<?xml version="1.0" encoding="utf-8"?>
<!-- Generator: Adobe Illustrator 19.2.1, SVG Export Plug-In . SVG Version: 6.00 Build 0)  -->
<svg version="1.1" id="Laag_1" xmlns="http://www.w3.org/2000/svg" xmlns:xlink="http://www.w3.org/1999/xlink" x="0px" y="0px"
	 viewBox="0 0 113.7 117.6" style="enable-background:new 0 0 113.7 117.6;" xml:space="preserve">
<style type="text/css">
	.st0{fill:none;stroke:#000000;stroke-miterlimit:10;}
</style>
<g>
	<path d="M62,57.8c0,0,0.1,0.1,0.4,0.3c0.1,0.1,0.2,0.3,0.3,0.5c0.1,0.1,0.1,0.2,0.1,0.3c0,0.1,0,0.3,0,0.4c0,1.1-0.4,2.3-0.1,3.4
		c0.1,0.5,0.4,1,0.8,1.2c0,0,0.1,0,0,0l0,0l0.1,0l0.1,0c0,0,0,0,0.1,0c0.1,0,0.2,0,0.2,0c0.2-0.1,0.3-0.2,0.4-0.3
		c0.1,0,0.1-0.1,0.2-0.2c0.1,0,0.1-0.1,0.2-0.1c0.1-0.1,0.2-0.2,0.2-0.3c0-0.2-0.1-0.4-0.1-0.4c0,0,0,0,0.1,0c0.1,0,0.2,0.1,0.3,0.2
		c0.1,0.1,0.2,0.4,0.2,0.7c0,0.1,0,0.3-0.1,0.4c0,0.2-0.2,0.2-0.3,0.4c-0.2,0.2-0.5,0.4-0.8,0.5C64,65,63.8,65,63.6,65
		c-0.1,0-0.3,0-0.4-0.1l-0.1,0l-0.1,0l0,0c-0.1-0.1,0,0-0.1,0c-0.7-0.4-1.1-1.1-1.3-1.8c-0.2-0.7-0.1-1.4,0-2
		c0.1-0.6,0.2-1.1,0.2-1.6c0-0.1,0-0.2,0-0.3c0-0.1,0.1-0.2,0.1-0.3c0-0.2,0.1-0.3,0.1-0.5C62,58,62,57.8,62,57.8z"/>
</g>
<g>
	<g>
		<path d="M27.4,74.8c0,0,0.3,0,0.9,0c0.3,0,0.7,0,1.1-0.1c0.2,0,0.4-0.1,0.7-0.1c0.2-0.1,0.5-0.1,0.7-0.2c1.1-0.2,2.3-0.7,3.6-1.3
			c0.3-0.2,0.7-0.3,1-0.6c0.3-0.2,0.7-0.4,1-0.6c0.7-0.5,1.5-0.9,2.2-1.4c1.5-1.1,3.1-2.4,4.7-3.7c1.6-1.4,3.3-2.9,5.2-4.3
			c1.9-1.4,3.9-2.8,6.1-4c2.2-1.2,4.6-2.2,7-2.8c2.5-0.6,5.1-0.8,7.6-0.5c0.6,0.1,1.3,0.2,1.9,0.3c0.6,0.2,1.2,0.3,1.8,0.5
			c1.2,0.4,2.3,0.9,3.3,1.5c2.1,1.1,4,2.3,5.9,3.4c1.9,1.1,3.6,2.1,5.2,3.1c0.8,0.5,1.6,0.9,2.3,1.5c0.7,0.6,1.3,1.1,1.8,1.7
			c1,1.2,1.6,2.5,1.8,3.6c0.2,1.1,0.1,2,0,2.6c-0.1,0.3-0.2,0.5-0.2,0.6c-0.1,0.1-0.1,0.2-0.1,0.2s0-0.1,0.1-0.2
			c0-0.1,0.1-0.4,0.1-0.6c0.1-0.6,0.1-1.4-0.2-2.5c-0.3-1-0.9-2.2-2-3.2c-0.5-0.5-1.1-1-1.8-1.5c-0.7-0.5-1.4-1-2.2-1.4
			c-1.6-0.9-3.4-2-5.2-3c-1.9-1.1-3.8-2.3-5.8-3.3c-1-0.5-2.1-1-3.2-1.4c-0.6-0.2-1.1-0.3-1.7-0.5c-0.6-0.2-1.2-0.2-1.8-0.3
			c-2.4-0.3-4.8-0.1-7.2,0.5c-4.8,1.2-9.1,3.8-12.8,6.6c-1.9,1.4-3.5,2.9-5.2,4.3c-1.6,1.4-3.2,2.7-4.8,3.8
			c-0.8,0.5-1.5,1.1-2.3,1.5c-0.4,0.2-0.8,0.4-1.1,0.6c-0.4,0.2-0.7,0.3-1.1,0.5c-1.4,0.6-2.8,0.9-3.9,1c-0.3,0-0.5,0.1-0.8,0.1
			c-0.2,0-0.5,0-0.7,0c-0.4,0-0.8,0-1.1,0C27.7,74.8,27.4,74.8,27.4,74.8z"/>
	</g>
	<g>
		<path d="M56,59c0,0-0.3,0.6-0.8,1.7c-0.2,0.5-0.5,1.2-0.8,1.9c-0.1,0.4-0.3,0.8-0.4,1.2c-0.1,0.4-0.4,0.8-0.5,1.3
			c-0.7,1.8-1.4,4-1.8,6.4c-0.2,1.2-0.3,2.4,0,3.6c0.1,0.6,0.4,1.1,0.8,1.5c0.4,0.4,0.9,0.7,1.2,0.5c0.3-0.1,0.6-0.7,0.8-1.3
			c0.2-0.6,0.4-1.2,0.6-1.8c0.4-1.2,0.7-2.4,1-3.6c0.5-2.4,0.8-4.7,1-6.6c0.1-0.5,0-1,0.1-1.4c0.1-0.4,0.1-0.9,0.1-1.3
			c0.1-0.8,0.1-1.5,0.2-2.1c0.1-1.2,0.1-1.8,0.1-1.8s0,0.2,0.1,0.5c0.1,0.3,0.1,0.8,0.2,1.3c0.1,0.6,0.2,1.3,0.2,2.1
			c0,0.4,0.1,0.8,0.1,1.3c0,0.5,0,0.9-0.1,1.4c-0.1,2-0.4,4.3-1,6.8c-0.3,1.2-0.6,2.5-1,3.7c-0.2,0.6-0.4,1.3-0.6,1.9
			c-0.1,0.3-0.2,0.6-0.4,1c-0.2,0.3-0.4,0.7-0.9,0.9c-0.4,0.2-1,0.1-1.3-0.1c-0.4-0.2-0.7-0.4-0.9-0.7c-0.5-0.5-0.9-1.2-1-1.9
			c-0.4-1.4-0.2-2.8,0-4c0.5-2.5,1.2-4.7,1.9-6.6c0.2-0.5,0.3-0.9,0.6-1.3c0.2-0.4,0.4-0.8,0.7-1.1c0.4-0.7,0.8-1.3,1.1-1.8
			c0.3-0.5,0.6-0.8,0.8-1.1C55.9,59.2,56,59,56,59z"/>
	</g>
	<g>
		<path d="M92.2,70.2C90,71,88.2,72.5,87,74.3c-0.3,0.5-0.6,0.9-0.9,1.4c-0.3,0.5-0.5,1-0.7,1.5c-0.2,0.5-0.4,1-0.5,1.6
			c-0.1,0.3-0.1,0.5-0.1,0.8c0,0.3-0.1,0.5-0.1,0.8c0,0.2,0.1,0.4,0.1,0.5c0.1,0.1,0.2,0.1,0.3,0.1c0.2,0,0.6-0.5,0.8-0.9l1.4-3.1
			l2.9-6.2l0.1-0.2l0.2-0.1c0.4-0.1,0.9-0.1,1.3,0.1c0.4,0.2,0.7,0.5,0.9,0.7c0.4,0.6,0.7,1.2,0.8,1.9c0.1,0.3,0.1,0.7,0.1,1
			l0.1,0.9c0,0.6,0.1,1.2,0.1,1.9c0.1,2.5,0,4.9-0.3,7.4l0,0.4l-0.4,0.1C92,84.9,90.9,84.6,90,84l-0.2-0.2l0-0.3
			c0.1-1.1,0.3-2.2,0.4-3.4l0.2-1.7c0.1-0.6,0.1-1.1,0.3-1.7C91.3,74.6,91.7,72.4,92.2,70.2z M92.2,70.2c-0.1,2.3-0.3,4.5-0.5,6.7
			c0,0.6-0.1,1.1-0.2,1.7l-0.2,1.7c-0.2,1.1-0.3,2.2-0.4,3.3l-0.2-0.4c0.6,0.5,1.5,0.7,2.3,0.6l-0.4,0.4c0.3-2.4,0.4-4.8,0.3-7.3
			c0-0.6,0-1.2-0.1-1.8l-0.1-0.9c0-0.3,0-0.6-0.1-0.8c-0.1-0.5-0.3-1.1-0.6-1.5c-0.2-0.2-0.3-0.4-0.5-0.4c-0.2-0.1-0.3-0.1-0.5,0
			l0.3-0.3l-2.9,6.2l-1.4,3.1c-0.1,0.3-0.3,0.6-0.6,0.8c-0.2,0.2-0.5,0.5-1,0.6c-0.5,0.1-1-0.1-1.2-0.5c-0.3-0.4-0.3-0.7-0.3-1.1
			c0-0.3,0-0.6,0.1-0.9c0-0.3,0.1-0.6,0.1-0.9c0.1-0.6,0.3-1.2,0.5-1.7c0.2-0.6,0.5-1.1,0.8-1.6c0.3-0.5,0.6-1,1-1.5
			c0.8-0.9,1.7-1.6,2.7-2.2c0.5-0.3,1-0.6,1.5-0.8C91.1,70.5,91.6,70.3,92.2,70.2z"/>
	</g>
	<g>
		<path d="M62.1,62.3c-0.9-1.3-1.9-2.5-3.1-3.5l0.8-0.2c-0.1,0.2-0.1,0.3-0.2,0.6l0,0.1l0,0c0,0-0.1,0.1-0.1,0.1
			c-0.1,0-0.1,0.1-0.2,0.1c-0.1,0-0.1,0-0.2,0c-0.1,0-0.3-0.1-0.3-0.2c0,0-0.1-0.1-0.1-0.1l0,0c0-0.2,0-0.2,0-0.3l0-0.2c0,0,0,0,0,0
			l0,0c0,0,0,0.1,0.1,0.2c0.1,0.1,0.2,0.1,0.3,0.1c0.1,0,0.2,0,0.3-0.1c0,0,0.1-0.1,0.1-0.1l0,0l0,0l-0.1,0.2l-0.2,0.5
			c-0.2,0.7-0.5,1.3-0.7,2c-0.4,1.3-0.7,2.7-0.7,4c0,1.3,0.3,2.7,1,3.8c0.4,0.6,0.8,1,1.3,1.4c0.5,0.4,1.1,0.6,1.7,0.7
			c0.6,0.1,1.2,0,1.4-0.5c0.1-0.2,0.2-0.5,0.2-0.8c0-0.3,0-0.6,0-1c0-0.7-0.1-1.4-0.2-2.1c-0.1-0.7-0.2-1.4-0.3-2.1l-0.4-2.1
			c-0.1-0.7-0.2-1.4-0.2-2.2c0-0.7,0.1-1.5,0.2-2.2c0.1-0.7,0.3-1.4,0.5-2.1c-0.1,1.4-0.1,2.8,0.1,4.2c0.1,0.7,0.2,1.4,0.3,2.1
			l0.3,2.1c0.1,0.7,0.2,1.4,0.3,2.1c0.1,0.7,0.2,1.5,0.2,2.2c0,0.7,0.1,1.5-0.3,2.4c-0.1,0.1-0.1,0.2-0.2,0.3l-0.1,0.1L63.7,72
			c-0.2,0.2-0.4,0.3-0.6,0.3c-0.4,0.1-0.9,0.1-1.3,0.1c-1.6-0.3-2.9-1.3-3.7-2.6c-0.8-1.3-1.2-2.8-1.2-4.3c0-1.5,0.3-2.9,0.7-4.3
			c0.2-0.7,0.4-1.4,0.7-2l0.2-0.5c0-0.1,0.1-0.2,0.1-0.3l0.1-0.1l0,0c0,0,0.1-0.1,0.1-0.1c0.1-0.1,0.2-0.1,0.4-0.1
			c0.1,0,0.2,0.1,0.3,0.2c0.1,0.1,0.1,0.2,0.1,0.2l0,0.1c0,0.1,0,0.1,0,0.1l0,0.3c0,0,0,0.1,0,0l0,0c0,0,0-0.1-0.1-0.1
			c-0.1-0.1-0.2-0.2-0.3-0.2c-0.1,0-0.2,0-0.2,0c-0.1,0-0.1,0-0.2,0.1c0,0-0.1,0.1-0.1,0.1c0,0,0,0,0,0l0,0l0.2-0.4l0.3-0.8l0.5,0.6
			C60.8,59.4,61.6,60.8,62.1,62.3z"/>
	</g>
	<g>
		<path d="M80.6,61.4c0,0-0.4,0.5-1,1.4c-0.3,0.4-0.7,1-1.1,1.6c-0.2,0.3-0.4,0.7-0.6,1c-0.2,0.4-0.5,0.7-0.7,1.1
			c-1,1.5-1.9,3.4-2.7,5.6c-0.4,1.1-0.7,2.2-1,3.4c-0.3,1.1-0.4,2.4,0.1,3.2c0.3,0.4,0.7,0.7,1.1,0.8c0.4,0.1,0.8-0.1,1.2-0.5
			c0.2-0.2,0.4-0.4,0.5-0.6c0.2-0.2,0.4-0.5,0.5-0.7c0.3-0.5,0.6-1,0.8-1.5c0.5-1,0.8-2,1.1-3c0.3-1,0.4-2,0.5-2.9
			c0.1-0.9,0.2-1.7,0.4-2.5c0.1-0.7,0.2-1.4,0.3-1.9c0.1-1.1,0.2-1.7,0.2-1.7s0.1,0.6,0.1,1.7c0,0.5,0.1,1.2,0.1,2
			c0,0.4,0,0.8,0,1.2c0,0.4-0.1,0.9-0.1,1.3c-0.1,0.9-0.3,1.9-0.6,3c-0.3,1.1-0.6,2.2-1.2,3.2c-0.3,0.5-0.6,1.1-0.9,1.6
			c-0.2,0.3-0.4,0.5-0.5,0.7c-0.2,0.2-0.4,0.5-0.6,0.7c-0.4,0.5-1.3,0.9-2.1,0.8c-0.8-0.2-1.4-0.6-1.8-1.2c-0.8-1.3-0.5-2.8-0.3-4
			c0.3-1.2,0.6-2.4,1-3.5c0.8-2.2,1.8-4.2,2.8-5.8c0.3-0.4,0.5-0.8,0.7-1.1c0.3-0.3,0.5-0.6,0.8-0.9c0.5-0.6,1-1,1.4-1.4
			c0.4-0.4,0.7-0.7,0.9-0.9C80.4,61.5,80.6,61.4,80.6,61.4z"/>
	</g>
	<g>
		<path d="M63.1,70.8c0,0-0.1,0.4-0.1,1c0,0.3-0.1,0.7,0,1.1c0,0.2,0.1,0.4,0.1,0.6c0.1,0.2,0.1,0.4,0.2,0.6
			c0.1,0.2,0.3,0.3,0.4,0.4c0.3,0.2,0.4,0.2,0.6,0.2c0.4,0,0.9-0.4,1.3-0.8c0.4-0.5,0.7-1.1,0.9-1.7c0.2-0.6,0.3-1.4,0.4-2.1
			c0.4-2.9,0.2-5.8-0.3-7.9c0-0.3-0.1-0.5-0.2-0.8c0-0.3,0-0.5-0.1-0.7c0-0.4-0.1-0.8-0.1-1.2c-0.1-0.6-0.1-1-0.1-1s0.2,0.3,0.5,0.9
			c0.1,0.3,0.3,0.7,0.5,1.1c0.2,0.4,0.4,0.9,0.5,1.5c0.5,2.2,0.7,5.2,0.3,8.2c-0.1,0.8-0.2,1.4-0.4,2.2c-0.2,0.8-0.6,1.4-1.1,2
			c-0.5,0.6-1.1,1.1-2,1.2c-0.4,0-0.9-0.1-1.1-0.3c-0.4-0.2-0.6-0.5-0.8-0.8c-0.2-0.3-0.3-0.6-0.3-0.9c0-0.3,0-0.6,0.1-0.8
			c0.1-0.5,0.3-0.9,0.4-1.2c0.1-0.3,0.3-0.5,0.4-0.7C63.1,70.8,63.1,70.8,63.1,70.8z"/>
	</g>
	<g>
		<path d="M74.2,58.8c-0.4,0.9-0.8,1.8-1.2,2.6l-0.6,1.3c-0.2,0.4-0.4,0.9-0.7,1.3L68.8,69c-0.5,0.8-1,1.6-1.3,2.5
			c-0.4,0.8-0.6,1.7-0.6,2.5c0,0.1,0,0.2,0,0.3l0.1,0.3c0.1,0.2,0.1,0.3,0.2,0.5c0.2,0.4,0.5,0.7,0.8,0.9c0.6,0.5,1.5,0.7,2.1,0.3
			l-0.2,0.2c1-2.5,1.8-5.1,2.5-7.8l0.5-2l0.2-1c0.1-0.3,0.2-0.7,0.3-1c0.4-1.3,0.8-2.6,1.1-4c0,1.4-0.2,2.8-0.3,4.1
			c0,0.3-0.1,0.7-0.1,1l-0.2,1c-0.2,0.7-0.3,1.3-0.5,2c-0.7,2.7-1.6,5.3-2.6,7.9l-0.1,0.1l-0.1,0.1c-0.5,0.3-1.1,0.5-1.7,0.4
			c-0.6-0.1-1.1-0.3-1.5-0.7c-0.4-0.3-0.8-0.8-1.1-1.2c-0.1-0.2-0.2-0.5-0.3-0.8c0-0.1,0-0.2-0.1-0.4c0-0.1,0-0.3,0-0.4
			c-0.1-1.1,0.3-2.1,0.7-3c0.4-0.9,0.9-1.7,1.4-2.6l2.9-4.9c0.2-0.4,0.5-0.8,0.8-1.2l0.8-1.2C73,60.4,73.6,59.6,74.2,58.8z"/>
	</g>
	<g>
		<path d="M87.8,65.4c0,0-0.2,0.3-0.7,0.9c-0.2,0.3-0.5,0.6-0.8,1c-0.1,0.2-0.3,0.4-0.5,0.7c-0.2,0.2-0.4,0.4-0.6,0.7
			c-1.6,1.8-3.5,4.5-5,7.4c-0.4,0.7-0.7,1.5-1,2.2c-0.3,0.7-0.6,1.5-0.8,2.2c-0.2,0.7,0,1.1,0.4,1.1c0.4,0.1,1-0.2,1.4-0.6
			c0.2-0.2,0.3-0.4,0.5-0.6c0.2-0.2,0.3-0.4,0.5-0.6c0.3-0.4,0.6-0.8,0.9-1c0.6-0.5,1.1-0.5,1.1-0.5c0,0-0.1,0-0.3,0.2
			c-0.2,0.1-0.4,0.3-0.6,0.6c-0.2,0.3-0.4,0.7-0.6,1.1c-0.2,0.5-0.3,1-0.9,1.6c-0.5,0.5-1.2,0.9-2.2,0.8c-0.2,0-0.5-0.1-0.7-0.3
			c-0.1-0.1-0.3-0.3-0.3-0.3l-0.1-0.1c-0.1-0.1-0.1-0.1-0.1-0.2c-0.2-0.5-0.1-1,0-1.4c0.3-0.8,0.5-1.5,0.8-2.3
			c0.3-0.8,0.7-1.5,1-2.3c1.5-3,3.5-5.8,5.1-7.6c0.2-0.2,0.4-0.5,0.6-0.7c0.2-0.2,0.4-0.3,0.6-0.5c0.4-0.3,0.8-0.6,1.1-0.8
			C87.5,65.6,87.8,65.4,87.8,65.4z"/>
	</g>
	<g>
		<path d="M66.7,59.3c0,0-0.1,0-0.2,0c-0.1,0-0.1,0-0.2,0c0,0-0.1,0-0.1,0c0,0,0,0,0-0.1c-0.1-0.1-0.2-0.3-0.3-0.5
			c-0.1-0.2-0.3-0.4-0.3-0.5c0,0-0.1,0,0-0.1c0,0,0-0.1,0.1-0.1c0-0.1,0.1-0.1,0.1-0.2c0.1-0.1,0.1-0.2,0.1-0.2s0.1,0,0.2,0
			c0.1,0,0.1,0,0.2,0c0,0,0.1,0,0.1,0c0,0,0,0,0,0c0.1,0.1,0.2,0.3,0.3,0.5c0.1,0.2,0.3,0.4,0.3,0.5c0,0,0.1,0,0,0.1
			c0,0,0,0.1-0.1,0.1c0,0.1-0.1,0.1-0.1,0.2C66.7,59.2,66.7,59.3,66.7,59.3z"/>
	</g>
	<g>
		<path d="M86.3,71.6c0,0,0-0.1,0-0.3c0-0.1,0-0.2,0-0.3c0-0.1,0-0.1,0-0.2c0-0.1,0.1-0.1,0.1-0.1c0.4-0.4,0.8-0.9,1.3-1.4
			c0.5-0.5,1-1,1.3-1.4c0.1,0,0.1-0.1,0.1-0.1c0.1,0,0.1,0,0.2-0.1c0.1,0,0.2-0.1,0.3-0.1c0.2,0,0.3-0.1,0.3-0.1s0,0.1,0,0.3
			c0,0.1,0,0.2-0.1,0.3c0,0.1,0,0.1,0,0.2c0,0.1-0.1,0.1-0.1,0.1c-0.4,0.4-0.8,0.9-1.3,1.4s-1,1-1.3,1.4c-0.1,0-0.1,0.1-0.1,0.1
			c-0.1,0-0.1,0-0.2,0.1c-0.1,0-0.2,0.1-0.3,0.1C86.4,71.6,86.3,71.6,86.3,71.6z"/>
	</g>
	<g>
		<path d="M85,62.9c-0.1,0.5-0.3,1-0.5,1.5c-0.1,0.1-0.2,0.2-0.2,0.3L84,65l-0.5,0.6l-1.8,2.3l-0.8-0.6c0.6-0.8,1.2-1.6,1.9-2.4
			l0.5-0.6l0.2-0.3c0.1-0.1,0.1-0.2,0.2-0.3C84.1,63.5,84.6,63.2,85,62.9z M85,62.9c-0.1,0.5-0.3,1-0.5,1.5
			c-0.1,0.1-0.2,0.2-0.2,0.3L84,65l-0.5,0.6c-0.6,0.8-1.3,1.5-1.8,2.3l-0.8-0.6l1.8-2.3l0.5-0.6l0.2-0.3c0.1-0.1,0.1-0.2,0.2-0.3
			C84.1,63.5,84.5,63.2,85,62.9z"/>
	</g>
	<g>
		<path d="M68.2,62.2c0,0-0.1-0.1-0.1-0.2c0-0.1-0.1-0.2-0.1-0.3c0-0.1-0.1-0.1-0.1-0.2c0-0.1,0-0.1,0-0.2c0.1-0.4,0.2-1,0.3-1.6
			c0.1-0.6,0.2-1.1,0.3-1.6c0-0.1,0-0.1,0-0.2c0,0,0.1-0.1,0.1-0.1c0.1-0.1,0.2-0.1,0.2-0.2c0.1-0.1,0.2-0.2,0.2-0.2
			s0.1,0.1,0.1,0.2c0,0.1,0.1,0.2,0.1,0.3c0,0.1,0.1,0.1,0.1,0.2c0,0.1,0,0.1,0,0.2c-0.1,0.4-0.2,1-0.3,1.6
			c-0.1,0.6-0.2,1.1-0.3,1.6c0,0.1,0,0.1,0,0.2c0,0-0.1,0.1-0.1,0.1c-0.1,0.1-0.2,0.1-0.2,0.2C68.3,62.2,68.2,62.2,68.2,62.2z"/>
	</g>
	<g>
		<path d="M81.1,64.9c0-0.3-0.1-0.5-0.1-0.8l0-0.4c0-0.1,0.1-0.2,0.1-0.3l0.4-1.3l0.8-2.5l0.1,2.6c0.1,1.1,0,2.1-0.1,3.1
			c-0.1,0.5-0.2,1-0.3,1.5c0,0.1-0.1,0.3-0.1,0.4c-0.1,0.1-0.2,0.2-0.3,0.3c-0.2,0.2-0.4,0.4-0.6,0.6c0-0.3-0.1-0.6-0.1-0.8
			c0-0.1,0-0.3,0-0.4c0-0.1,0.1-0.2,0.1-0.4c0.1-0.5,0.2-1,0.3-1.5c0.1-1,0.2-2,0.1-2.9l1,0.1l-0.4,1.3c0,0.1,0,0.2-0.1,0.3
			l-0.2,0.3C81.5,64.5,81.3,64.7,81.1,64.9z"/>
	</g>
	<g>
		<path d="M74.4,64.9c0,0-0.1-0.1-0.2-0.2c-0.1-0.1-0.1-0.2-0.2-0.3c0-0.1-0.1-0.1-0.1-0.2c0-0.1,0-0.1,0-0.2
			c0.1-0.5,0.4-1.2,0.8-1.8c0.4-0.6,1-1.1,1.5-1.4c0.1,0,0.1-0.1,0.2-0.1c0.1,0,0.1,0,0.2,0c0.1,0,0.2,0,0.3,0
			c0.2,0,0.3,0.1,0.3,0.1s0,0.1-0.1,0.3c0,0.1-0.1,0.2-0.1,0.3c0,0.1,0,0.1-0.1,0.2c0,0.1-0.1,0-0.1,0.1c-0.4,0.2-0.8,0.6-1.2,1.1
			c-0.3,0.5-0.6,1.1-0.7,1.5c0,0.1,0,0.1,0,0.2c0,0-0.1,0.1-0.1,0.1c-0.1,0.1-0.2,0.2-0.2,0.2C74.5,64.8,74.4,64.9,74.4,64.9z"/>
	</g>
	<g>
		<path d="M71.4,62.9c0,0-0.1-0.1-0.1-0.3c0-0.1-0.1-0.2-0.1-0.3c0-0.1,0-0.1-0.1-0.2c0-0.1,0-0.1,0-0.2c0.1-0.5,0.2-1.1,0.4-1.8
			c0.1-0.7,0.3-1.3,0.4-1.8c0-0.1,0-0.1,0-0.2c0,0,0.1-0.1,0.1-0.1c0.1-0.1,0.2-0.2,0.2-0.2c0.1-0.1,0.2-0.2,0.2-0.2
			s0.1,0.1,0.1,0.3c0,0.1,0.1,0.2,0.1,0.3c0,0.1,0,0.1,0.1,0.2c0,0.1,0,0.1,0,0.2c-0.1,0.5-0.2,1.1-0.4,1.8
			c-0.1,0.7-0.3,1.3-0.4,1.8c0,0.1,0,0.1,0,0.2c0,0-0.1,0.1-0.1,0.1c-0.1,0.1-0.2,0.2-0.2,0.2C71.5,62.8,71.4,62.9,71.4,62.9z"/>
	</g>
	<g>
		<path d="M88.4,63.5c0,0,0.1,0,0.4-0.1c0.1,0,0.3,0,0.4,0c0.1,0,0.2,0,0.3,0c0.1,0,0.1,0.1,0.2,0.1c0.6,0.3,1.4,0.8,2.2,1.3
			c0.8,0.6,1.4,1.2,1.9,1.7c0,0.1,0.1,0.1,0.2,0.2c0,0.1,0,0.2,0.1,0.2c0,0.2,0.1,0.3,0.1,0.4c0,0.2,0.1,0.4,0.1,0.4s-0.1,0-0.3-0.1
			c-0.1,0-0.2-0.1-0.4-0.1c-0.1,0-0.1-0.1-0.2-0.1c-0.1,0-0.1-0.1-0.2-0.2c-0.4-0.5-1.1-1.1-1.8-1.6c-0.7-0.5-1.5-1-2-1.2
			c-0.1,0-0.2,0-0.2-0.1c-0.1-0.1-0.1-0.1-0.1-0.2c-0.1-0.1-0.2-0.2-0.2-0.3C88.4,63.6,88.4,63.5,88.4,63.5z"/>
	</g>
	<g>
		<path d="M77.6,59c0.4-0.1,0.7-0.2,1-0.4c0.2-0.1,0.3-0.2,0.5-0.3c0.1-0.1,0.3-0.1,0.5-0.2c0.7-0.3,1.4-0.6,2.2-0.8
			c0.3-0.1,0.4-0.1,0.7-0.1c0.2,0,0.4,0,0.7,0.1c0.4,0.1,0.8,0.3,1.2,0.5c0.4,0.2,0.7,0.6,0.9,1c0.1,0.2,0.2,0.5,0.1,0.8
			c0,0.3-0.1,0.5-0.2,0.7l-0.5-0.8c0.3-0.1,0.5-0.1,0.8,0c0.3,0,0.5,0.1,0.8,0.3c0.5,0.2,0.8,0.6,1.1,1c0.1,0.2,0.3,0.4,0.4,0.6
			c0.1,0.2,0.1,0.5,0.2,0.7c0.1,0.5,0,0.9-0.1,1.4c-0.2-0.4-0.4-0.8-0.6-1.1c-0.1-0.2-0.3-0.3-0.4-0.5c-0.1-0.2-0.2-0.3-0.3-0.5
			c-0.2-0.3-0.5-0.5-0.8-0.7c-0.1-0.1-0.3-0.1-0.4-0.2c-0.1,0-0.3,0-0.4,0l-1,0.2l0.5-0.9c0.1-0.1,0.1-0.2,0.1-0.3
			c0-0.1,0-0.2-0.1-0.3c-0.1-0.2-0.3-0.4-0.5-0.6c-0.3-0.2-0.5-0.3-0.8-0.4c-0.1,0-0.3-0.1-0.4-0.1c-0.1,0-0.4,0-0.4,0
			c-0.6,0.1-1.3,0.5-2,0.7c-0.2,0-0.3,0.2-0.6,0.2c-0.2,0-0.4,0-0.6,0c-0.2,0-0.4,0-0.6-0.1C78,59.1,77.8,59,77.6,59z"/>
	</g>
	<g>
		<path d="M81.1,62.2c0,0,0-0.1,0.1-0.2c0-0.1,0.1-0.1,0.1-0.2c0,0,0-0.1,0.1-0.1c0,0,0.1,0,0.1,0c0.3-0.1,0.6-0.2,1-0.3
			s0.7-0.2,1-0.3c0,0,0.1-0.1,0.1,0c0,0,0.1,0.1,0.1,0.1c0.1,0.1,0.1,0.1,0.2,0.1c0.1,0.1,0.2,0.1,0.2,0.1s0,0.1-0.1,0.2
			c0,0.1-0.1,0.1-0.1,0.2c0,0,0,0.1-0.1,0.1c0,0.1-0.1,0-0.1,0c-0.3,0.1-0.6,0.2-1,0.3c-0.4,0.1-0.7,0.2-1,0.3c0,0-0.1,0.1-0.1,0
			c0,0-0.1-0.1-0.1-0.1c-0.1,0-0.1-0.1-0.2-0.1C81.2,62.2,81.1,62.2,81.1,62.2z"/>
	</g>
	<g>
		<path d="M29.4,73.2c0.8-0.7,1.7-1.3,2.6-2l2.6-1.9l2.6-1.9c0.9-0.6,1.7-1.3,2.6-1.9c0.9-0.6,1.7-1.3,2.6-1.9
			c0.9-0.6,1.7-1.3,2.5-2c0.8-0.7,1.6-1.4,2.4-2.2l1.1-1.1l1.1-1.2c0.3-0.4,0.7-0.8,1-1.3c0.3-0.4,0.6-0.9,0.9-1.3
			c0.5-0.9,1-1.8,1.5-2.8c0.9-1.9,1.7-4,2.6-6c0.4-1,0.9-2,1.5-2.9c0.3-0.5,0.5-1,0.9-1.4c0.3-0.5,0.6-0.9,1-1.4
			c0.7-0.9,1.5-1.7,2.4-2.3c0.4-0.3,1-0.6,1.4-0.9c0.5-0.2,1-0.4,1.6-0.6l-0.2,0.2c0.3-0.4,0.5-1,0.6-1.6c0.1-0.6,0.1-1.2,0.1-1.8
			c0-0.6-0.1-1.2-0.4-1.7c-0.2-0.4-0.7-1-1.1-1.4c-0.9-1-1.8-1.9-2.7-2.8c-0.9-0.9-1.8-2-2.6-3.1c-0.7-1.2-1.3-2.4-1.5-3.8
			c-0.2-1.4-0.1-2.9,0.6-4.1c0.3-0.6,0.9-1.2,1.5-1.6c0.6-0.4,1.3-0.7,2-0.9c0.7-0.2,1.5-0.2,2.2,0c0.7,0.2,1.4,0.7,1.8,1.3l0.1,0.1
			l0,0.1c0.3,1,0.1,2-0.2,2.9c-0.3,0.9-0.7,1.7-1.1,2.5c-0.4,0.8-0.6,1.6-0.7,2.5c0,0.4,0,0.9,0.1,1.3c0.1,0.2,0.2,0.4,0.3,0.6
			c0.1,0.2,0.3,0.4,0.4,0.5c-0.2-0.1-0.3-0.3-0.5-0.5c-0.1-0.2-0.3-0.4-0.3-0.6c-0.2-0.4-0.3-0.9-0.3-1.3c0-0.9,0.2-1.8,0.5-2.7
			c0.3-0.8,0.6-1.7,0.9-2.5c0.2-0.8,0.3-1.7,0-2.4l0.1,0.1c-0.7-0.8-1.9-1.1-3.1-0.9c-0.6,0.1-1.1,0.4-1.6,0.7
			c-0.5,0.3-0.9,0.7-1.2,1.3c-0.6,1-0.7,2.3-0.5,3.5c0.2,1.2,0.7,2.4,1.4,3.4c1.4,2.1,3.4,3.8,5.2,5.8c0.4,0.5,0.9,0.9,1.3,1.7
			c0.3,0.7,0.4,1.4,0.5,2.1c0,0.7,0,1.4-0.1,2.1c-0.1,0.7-0.3,1.4-0.8,2L64.5,37l-0.2,0.1c-0.5,0.2-1,0.4-1.4,0.6
			c-0.4,0.3-0.9,0.5-1.3,0.8c-0.8,0.6-1.6,1.3-2.2,2.2c-0.3,0.4-0.6,0.8-0.9,1.3c-0.3,0.4-0.6,0.9-0.8,1.4c-0.5,0.9-1,1.9-1.4,2.9
			c-0.9,2-1.7,4-2.6,6c-0.5,1-1,2-1.5,2.9c-0.3,0.5-0.6,0.9-0.9,1.4c-0.3,0.4-0.7,0.9-1,1.3l-1.1,1.2l-1.1,1.2
			c-0.8,0.8-1.6,1.5-2.4,2.2c-1.7,1.4-3.4,2.7-5.2,4c-0.9,0.7-1.8,1.2-2.7,1.8l-2.8,1.7C33,70.9,31.2,72,29.4,73.2z"/>
	</g>
	<g>
		<path d="M65.3,28.3c0,0,0.2,0,0.5-0.1c0.2,0,0.3,0,0.6,0c0.1,0,0.2,0,0.4,0c0.1,0,0.2,0.1,0.3,0.2c0.5,0.3,0.9,0.7,1.3,1.3
			c0.2,0.3,0.3,0.7,0.4,1c0.1,0.4,0.1,0.8,0,1.1c-0.1,0.4-0.2,0.8-0.5,1.1c-0.1,0.1-0.1,0.2-0.2,0.2L68,33.3l-0.1,0.1l-0.1,0.1
			c-0.2,0.1-0.3,0.2-0.5,0.3c-0.7,0.3-1.4,0.3-2,0.1c-0.1-0.1-0.3-0.1-0.4-0.2c-0.1-0.1-0.2-0.2-0.3-0.3l-0.1-0.1c0,0,0,0,0-0.1
			c0-0.1-0.1-0.1-0.1-0.2c0-0.1,0-0.2,0-0.3c0-0.2,0.1-0.3,0.3-0.4c0.1,0,0.1,0,0.1,0c0,0-0.1,0-0.1,0.1c0,0.1,0,0.1,0.1,0.2
			c0,0,0.1,0.1,0.1,0.1c0,0,0.1,0,0.1,0c0,0,0,0,0,0c0,0,0,0,0,0c0.1,0,0.2,0,0.3,0c0.1,0,0.1,0.1,0.2,0.1c0.3,0.1,0.8,0.1,1.2-0.1
			c0.1,0,0.2-0.1,0.3-0.2l0.1-0.1c0,0,0,0,0,0l0,0c0,0,0.1-0.1,0.1-0.1c0.1-0.2,0.2-0.4,0.3-0.7c0-0.2,0.1-0.5,0-0.8
			c-0.1-0.3-0.1-0.5-0.3-0.7c-0.2-0.4-0.6-0.8-1-1c-0.1-0.1-0.2-0.1-0.3-0.2C66.2,29.1,66.1,29,66,29c-0.1-0.1-0.3-0.3-0.4-0.4
			C65.5,28.4,65.3,28.3,65.3,28.3z"/>
	</g>
	<path class="st0" d="M43.7,62.2c1.7-8.4-0.2-11.5,1.4-19.9c0.8-3.9,3.6-9,7.2-7.4c-0.7,7-3.9,16.8-5.7,23.6"/>
	<g>
		<path d="M27.4,79.2c0,0,0.7,0,1.9,0c0.6,0,1.3,0,2.2,0.1c0.4,0,0.9,0.1,1.4,0.1c0.5,0.1,1,0.2,1.5,0.4c1,0.3,2.1,0.7,3.2,1.4
			c1,0.7,2.1,1.5,2.8,2.7c0.8,1.2,1,2.7,0.8,4.2c-0.2,1.4-0.7,2.9-1.8,4c-1,1.2-2.7,1.7-4.2,1.2l-0.5-0.2l-0.5-0.3
			c-0.3-0.2-0.6-0.4-0.9-0.7c-0.5-0.5-0.9-1.1-1.3-1.7c-0.7-1.2-1.1-2.4-1.4-3.5c-0.4-1.1-0.6-2.2-1-3.2c-0.2-0.5-0.4-0.9-0.5-1.3
			c-0.1-0.4-0.3-0.8-0.5-1.2c-0.3-0.7-0.8-1.2-1.3-1.6c-0.5-0.3-0.9-0.5-1.2-0.6c-0.3-0.1-0.5-0.1-0.5-0.1s0.2,0,0.5,0
			C26.4,78.9,26.9,78.9,27.4,79.2c0.6,0.3,1.3,0.8,1.8,1.5c0.3,0.4,0.5,0.8,0.7,1.2c0.2,0.4,0.4,0.9,0.6,1.4c0.3,1,0.6,2.1,1,3.2
			c0.3,1.1,0.7,2.3,1.3,3.3c0.6,1.1,1.4,2,2.6,2.3c1.1,0.3,2.4,0,3.2-1c0.9-0.9,1.4-2.2,1.5-3.4c0.2-1.2,0-2.5-0.6-3.5
			c-0.6-1-1.6-1.8-2.5-2.4c-1-0.6-2-1-2.9-1.3c-0.5-0.1-1-0.2-1.4-0.3c-0.4-0.1-0.9-0.2-1.3-0.3c-0.8-0.2-1.5-0.3-2.1-0.4
			C28.1,79.3,27.4,79.2,27.4,79.2z"/>
	</g>
	<g>
		<path d="M30.6,77.7c0,0,0.1,0.7,0.2,1.8c0.1,0.6,0.2,1.3,0.4,2c0.1,0.4,0.2,0.8,0.4,1.2c0.1,0.2,0.1,0.4,0.2,0.6
			c0.1,0.2,0.2,0.4,0.2,0.6c0.4,0.9,0.9,1.7,1.7,2.3c0.4,0.3,0.9,0.6,1.4,0.8c0.2,0.1,0.5,0.2,0.8,0.2c0.3,0.1,0.5,0.1,0.8,0.1
			c1.1,0.1,2.3-0.2,3.4-0.8c1.1-0.6,2-1.5,2.7-2.5c0.7-1,1.2-2.2,1.2-3.4c0-0.6,0-1.2-0.2-1.7c-0.1-0.3-0.2-0.6-0.3-0.8
			c-0.2-0.3-0.3-0.6-0.5-0.7l-0.2-0.3L42.5,77c-0.2-0.2-0.5-0.2-0.7-0.3c-0.5-0.1-1-0.1-1.6,0c-1.1,0.2-2.1,0.5-3,0.8
			c-0.5,0.1-0.9,0.3-1.4,0.4c-0.5,0.1-0.9,0.1-1.3,0.2c-0.4,0-0.8,0.1-1.2,0c-0.4,0-0.7,0-1,0c-0.6,0-1-0.2-1.3-0.2
			C30.7,77.7,30.6,77.7,30.6,77.7s0.2,0,0.5,0c0.2,0,0.3,0,0.6,0c0.2,0,0.5,0,0.8-0.1c0.3,0,0.6-0.1,0.9-0.1c0.3,0,0.7-0.1,1.1-0.2
			c0.4-0.1,0.8-0.2,1.2-0.4c0.4-0.2,0.9-0.2,1.4-0.4c0.9-0.3,2-0.6,3.2-0.8c0.6-0.1,1.2-0.1,1.9,0c0.3,0.1,0.7,0.2,1,0.4
			c0.2,0.1,0.3,0.2,0.5,0.3l0.4,0.4c0.3,0.3,0.4,0.6,0.5,0.8c0.2,0.3,0.3,0.7,0.4,1C45,79.3,45,80,45,80.7c-0.1,1.4-0.6,2.8-1.4,3.9
			c-0.8,1.2-1.8,2.1-3,2.8c-1.2,0.7-2.6,1.1-3.9,1c-0.3,0-0.7,0-1-0.1c-0.3-0.1-0.5-0.1-0.9-0.3c-0.6-0.2-1.2-0.5-1.6-0.9
			c-1-0.8-1.6-1.8-2-2.7c-0.2-0.5-0.4-0.9-0.5-1.4c-0.1-0.5-0.1-0.9-0.2-1.3c-0.1-0.8,0-1.5,0-2.1c0-0.6,0.1-1,0.1-1.3
			C30.5,77.8,30.6,77.7,30.6,77.7z"/>
	</g>
	<g>
		<path d="M40.2,86c0.4,2,0.6,4,0.8,6c0.1,0.5,0.1,1,0.1,1.5l0.1,1.5c0.1,1,0.1,2,0.2,3c0.2,2,0.4,4,1,5.8c0.2,0.5,0.3,0.9,0.5,1.3
			c0.2,0.4,0.5,0.8,0.8,1.1c0.3,0.3,0.7,0.5,1.1,0.6c0.4,0.1,0.8,0.1,1.3,0l-0.3,0.2c0.3-0.4,0.7-0.9,1-1.3c0.3-0.5,0.6-0.9,0.8-1.4
			c0.2-0.5,0.5-1,0.6-1.5c0.2-0.5,0.4-1,0.5-1.6c0.3-1.1,0.4-2.2,0.5-3.3c0-0.5,0-1.1,0-1.6c0-0.5-0.1-1.1-0.2-1.6
			c-0.1-0.6-0.2-1-0.4-1.6c-0.2-0.5-0.4-1-0.6-1.5c-0.5-1-1.1-1.9-1.9-2.6c-0.2-0.2-0.4-0.4-0.6-0.6c-0.2-0.2-0.4-0.4-0.6-0.5
			c-0.4-0.3-0.9-0.6-1.4-0.9c-0.5-0.3-1-0.5-1.5-0.6C41.3,86.1,40.8,86,40.2,86c0.6-0.1,1.1-0.1,1.7,0c0.6,0.1,1.2,0.2,1.7,0.4
			c0.6,0.2,1.1,0.4,1.6,0.7c0.5,0.3,1,0.6,1.4,1c0.8,0.9,1.5,1.8,2.1,2.9c0.3,0.5,0.5,1.1,0.7,1.6c0.2,0.5,0.3,1.1,0.4,1.7
			c0.1,0.6,0.2,1.2,0.2,1.7c0,0.6,0,1.2,0,1.8c-0.1,1.2-0.2,2.3-0.5,3.5c-0.1,0.6-0.3,1.1-0.5,1.7c-0.2,0.6-0.4,1.1-0.7,1.6
			c-0.3,0.5-0.5,1-0.9,1.5c-0.3,0.5-0.7,1-1,1.4l-0.1,0.1l-0.2,0c-0.6,0.1-1.1,0.2-1.7,0c-0.6-0.2-1.1-0.5-1.5-0.9
			c-0.4-0.4-0.7-0.9-1-1.3c-0.3-0.5-0.4-1-0.6-1.5c-0.6-2-0.9-4-1.1-6c-0.1-1-0.2-2-0.2-3l-0.1-1.5c0-0.5-0.1-1,0-1.5
			C40.1,90,40.2,88,40.2,86z"/>
	</g>
	<g>
		<path d="M28.5,79c-0.3-1-0.5-2.1-0.8-3.1c-0.2-1-0.5-2.1-0.7-3.1c-0.3-2.1-0.7-4.2-1-6.4l-0.5-3.2c-0.2-1.1-0.3-2.2,0-3.4
			c0.1-0.6,0.3-1.1,0.7-1.7c0.4-0.5,1-0.9,1.5-1.1c0.6-0.2,1.2-0.3,1.9-0.1c0.6,0.1,1.3,0.6,1.5,1.3l0,0.1l0,0.1c0.1,4-0.1,8-0.6,12
			c-0.1,1-0.3,2-0.5,3l-0.3,1.5c-0.1,0.5-0.2,1-0.3,1.5c-0.3,1-0.6,1.9-1,2.9c-0.3,0.9-0.7,1.9-1.1,2.8L28,79c0.2-1,0.4-2,0.5-2.9
			c0.1-0.5,0.2-1,0.3-1.5l0.3-1.5c0.2-1,0.3-1.9,0.5-2.9c0.5-3.9,0.8-7.9,0.6-11.8l0,0.2c-0.2-0.3-0.4-0.6-0.9-0.7
			c-0.4-0.1-0.9-0.1-1.3,0.1c-0.4,0.2-0.8,0.4-1.1,0.7c-0.3,0.4-0.5,0.8-0.6,1.3c-0.2,0.9-0.1,2,0,3l0.5,3.2c0.3,2.1,0.7,4.2,1,6.4
			c0.1,1.1,0.2,2.1,0.3,3.2C28.3,76.9,28.4,78,28.5,79z"/>
	</g>
	<path class="st0" d="M28.3,72.4c-0.2-4.5-0.3-9.1,1.4-13.2s5.8-7.7,10.2-7.2c2.5,4.1,1.3,9.6-1.6,13.3c-2.9,3.8-7.2,6.2-11.3,8.6"
		/>
	<g>
		<path d="M63.2,23.7c0-0.4,0-0.8-0.1-1.2l0-0.6c0-0.2,0-0.4,0-0.6c0.2-0.7,0.3-1.5,0.5-2.2l0.1-0.5l0.4,0.1l0.8,0.1l0.8,0.3
			l0.7,0.4l0.7,0.5l0.6,0.5l0.5,0.6l0.5,0.6l0.4,0.7l0.3,0.7l0.2,0.8l0.1,0.8l0.1,0.8c0,0.3,0,0.5,0,0.8c0,0.3-0.2,0.5-0.3,0.8
			l-0.4,0.7c-0.2,0.2-0.4,0.4-0.5,0.6c0.1-0.3,0.1-0.5,0.2-0.7l0.1-0.7c0-0.2-0.1-0.5,0-0.7c0-0.2,0-0.4,0-0.7l0-0.7l-0.1-0.7
			l-0.2-0.7l-0.3-0.6l-0.3-0.6l-0.4-0.6l-0.5-0.5l-0.5-0.5L66,20.4l-0.6-0.3l-0.6-0.2l-0.7-0.1l0.5-0.4c-0.2,0.7-0.3,1.5-0.5,2.2
			c0,0.2-0.1,0.4-0.2,0.5l-0.2,0.5C63.6,23,63.4,23.4,63.2,23.7z"/>
	</g>
	<g>
		<path d="M69.6,41.2c0,0,0.2-0.1,0.6-0.3c0.2-0.1,0.4-0.2,0.7-0.3c0.1-0.1,0.3-0.1,0.4-0.2c0.1-0.1,0.3-0.1,0.5-0.1
			c0.7-0.2,1.5-0.4,2.3-0.7c0.8-0.3,1.7-0.7,2.5-1.2c0.8-0.5,1.6-1,2.3-1.5c0.7-0.6,1.3-1.1,1.8-1.6c0.2-0.3,0.5-0.5,0.7-0.6
			c0.2-0.2,0.5-0.3,0.6-0.4c0.3-0.3,0.6-0.4,0.6-0.4s-0.1,0.2-0.3,0.6c-0.1,0.2-0.2,0.4-0.4,0.7c-0.1,0.1-0.2,0.3-0.2,0.4
			c-0.1,0.2-0.2,0.2-0.4,0.4c-0.5,0.5-1.2,1.1-1.9,1.7c-0.7,0.6-1.5,1.1-2.4,1.6c-0.9,0.5-1.7,0.9-2.6,1.3c-0.9,0.3-1.7,0.6-2.4,0.8
			c-0.2,0-0.3,0.1-0.5,0.1c-0.2,0-0.3,0-0.5,0c-0.3,0-0.6,0-0.8,0C69.8,41.3,69.6,41.2,69.6,41.2z"/>
	</g>
	<g>
		<path d="M83.3,28.4c-0.3,0.1-0.5,0.2-0.8,0.2l-0.4,0.1c-0.1,0.1-0.2,0-0.4,0l0.6-0.4l-0.7,3.3L81.3,31l1.8,0.4l-0.6,0.3
			c0.2-0.4,0.4-0.8,0.5-1.1c0-0.1,0.1-0.2,0.2-0.3l0.2-0.2c0.2-0.2,0.3-0.3,0.5-0.4c0,0.2,0,0.5,0,0.7l0,0.3c0,0.1,0,0.2-0.1,0.3
			c-0.2,0.4-0.4,0.8-0.5,1.1l-0.2,0.4l-0.4-0.1L81.1,32l-0.5-0.1l0.1-0.5l0.7-3.3l0.1-0.5l0.4,0.1c0.1,0,0.2,0,0.4,0.1l0.3,0.2
			C82.9,28.1,83.1,28.2,83.3,28.4z"/>
	</g>
	<g>
		<path d="M83.7,30.1c0,0-0.1,0.2-0.1,0.6c0,0.2,0,0.4,0.1,0.6c0,0.1,0.1,0.2,0.1,0.3c0.1,0.1,0,0.3,0.1,0.4
			c0.2,0.5,0.6,1.1,1.2,1.2c0.3,0.1,0.6,0,0.9-0.1c0.3-0.2,0.6-0.4,0.8-0.7c0.2-0.3,0.3-0.7,0.3-1c0-0.4-0.1-0.6-0.3-0.9
			c-0.2-0.2-0.4-0.5-0.7-0.6c-0.3-0.2-0.6-0.3-0.9-0.3c-0.1,0-0.3,0-0.4-0.1c-0.1-0.1-0.3-0.1-0.4-0.1c-0.3-0.1-0.5-0.1-0.7-0.2
			c-0.4-0.1-0.6-0.1-0.6-0.1s0.2-0.1,0.6-0.3c0.2-0.1,0.4-0.2,0.7-0.2c0.1,0,0.3-0.1,0.5-0.1c0.2,0,0.3,0.1,0.5,0.1
			c0.7,0.2,1.6,0.5,2.2,1.4c0.3,0.4,0.5,1,0.4,1.5c0,0.5-0.2,1.1-0.5,1.5c-0.3,0.4-0.7,0.8-1.2,1c-0.5,0.2-1.1,0.3-1.6,0.2
			c-0.5-0.1-1-0.4-1.3-0.7c-0.3-0.3-0.5-0.7-0.7-1.1c-0.1-0.2-0.1-0.4-0.2-0.6c0-0.2,0-0.4,0.1-0.5c0.1-0.3,0.2-0.6,0.3-0.8
			C83.5,30.2,83.7,30.2,83.7,30.1z"/>
	</g>
	<g>
		<path d="M85.3,23.6c-0.4,0.2-0.8,0.4-1.2,0.5c-0.1,0-0.2,0.1-0.3,0.1c-0.1,0-0.2,0-0.3,0l-0.6,0l0.4-0.4c-0.2,0.6-0.1,1.3,0.1,1.9
			c0.3,0.6,0.7,1.1,1.3,1.2l0.1,0c-0.1,0,0,0,0,0l0.1,0c0.1,0,0.1,0,0.2,0c0.1,0,0.3-0.1,0.4-0.1c0.3-0.1,0.5-0.3,0.7-0.6
			c0.1-0.1,0.2-0.3,0.2-0.4c0-0.1,0.1-0.3,0.2-0.4c0.1-0.1,0.1-0.3,0.1-0.5c0-0.2,0-0.4-0.1-0.6c0.2,0.1,0.4,0.2,0.5,0.4
			c0.1,0.2,0.2,0.4,0.3,0.7c0,0.2,0.1,0.5-0.1,0.7c-0.1,0.2-0.2,0.4-0.3,0.6c-0.3,0.4-0.6,0.7-1.1,0.9c-0.2,0.1-0.4,0.2-0.7,0.2
			c-0.1,0-0.3,0-0.4,0l-0.1,0c0,0,0,0-0.1,0l-0.1,0c-0.9-0.2-1.6-1-2-1.8c-0.3-0.8-0.4-1.7-0.2-2.6l0.1-0.3l0.3,0l0.6,0
			c0.1,0,0.2,0,0.3,0c0.1,0,0.2,0,0.3,0C84.4,23.3,84.9,23.4,85.3,23.6z"/>
	</g>
	<g>
		<path d="M87.1,32.9c-0.4,0.2-0.7,0.4-1,0.7c-0.1,0.1-0.3,0.3-0.4,0.4c-0.1,0.2-0.3,0.2-0.4,0.4c-0.5,0.5-0.9,1.1-1.1,1.8L84,35.6
			c1.3,0.9,2.9,1.4,4.4,1.5L88,37.3c0.4-0.7,0.6-1.5,0.6-2.4c0-0.2,0-0.4-0.1-0.6c0-0.1,0-0.2,0-0.3l0-0.3c0-0.2,0-0.4-0.1-0.7
			c0-0.2-0.1-0.5-0.2-0.7c0.4,0.3,0.7,0.7,0.9,1.1c0.1,0.2,0.3,0.4,0.3,0.7c0,0.3,0.1,0.5,0.1,0.8c0,1-0.2,2-0.8,2.9l-0.2,0.2
			l-0.3,0c-1.8-0.1-3.5-0.6-5-1.6l-0.3-0.2l0.1-0.3c0.2-0.9,0.7-1.6,1.4-2.2c0.2-0.1,0.3-0.3,0.5-0.4c0.2-0.1,0.4-0.2,0.6-0.2
			C86.2,32.9,86.6,32.8,87.1,32.9z"/>
	</g>
	<g>
		<path d="M89.9,26.1c-0.4,0.2-0.8,0.4-1.2,0.5l0.2-0.1c0,0.1-0.1,0.2-0.1,0.2c0,0.1-0.1,0.1-0.1,0.2c-0.1,0.1-0.1,0.3-0.2,0.5
			c0,0.4,0,0.8,0.2,1.1c0.2,0.3,0.4,0.6,0.8,0.8c0.2,0.1,0.3,0.1,0.5,0.1c0.1,0,0.2,0,0.3,0c0.1,0,0.2,0,0.3,0
			c0.7-0.2,1.4-0.8,1.7-1.6c0.1-0.2,0.1-0.4,0.1-0.6c0-0.2,0-0.4,0-0.6c0-0.2,0-0.4,0-0.6c0-0.2-0.1-0.4-0.3-0.6
			c0.3,0,0.6,0.1,0.8,0.3c0.2,0.2,0.4,0.5,0.5,0.7c0.1,0.3,0,0.6,0,0.8c0,0.3-0.1,0.5-0.2,0.8c-0.4,1-1.2,1.9-2.3,2.2
			c-0.2,0.1-0.7,0.1-0.9,0.1c-0.3,0-0.6-0.1-0.9-0.2c-0.6-0.3-0.9-0.7-1.2-1.2c-0.3-0.5-0.4-1.1-0.3-1.7c0-0.3,0.1-0.6,0.3-0.9
			c0.1-0.1,0.2-0.3,0.3-0.4c0.1-0.1,0.3-0.2,0.4-0.2l0.1-0.1l0,0C89.1,25.9,89.5,26,89.9,26.1z"/>
	</g>
</g>
<g>
	<path d="M75.2,31.1c0,0-0.1,0-0.2-0.1c-0.1,0-0.3-0.1-0.5,0c-0.2,0-0.4,0.1-0.6,0.2c-0.1,0.1-0.2,0.1-0.3,0.2
		c-0.1,0.1-0.2,0.1-0.3,0.2c-0.2,0.2-0.4,0.5-0.5,0.8c-0.1,0.3-0.1,0.7-0.1,1.2c0,0.4,0,0.9,0.1,1.3c0.1,0.4,0.3,0.7,0.6,0.8
		c0.6,0.3,1.6,0,2.1-0.5c0.1-0.1,0.2-0.3,0.3-0.4c0.1-0.2,0.2-0.3,0.2-0.5c0.1-0.3,0.2-0.7,0.2-1c0-0.2,0-0.3,0-0.5
		c0-0.2,0.1-0.3,0.1-0.5c0-0.3,0.1-0.6,0.1-0.8c0-0.4,0-0.7,0-0.7s0.1,0.2,0.3,0.6c0.1,0.2,0.2,0.5,0.3,0.8c0.1,0.2,0.1,0.3,0.2,0.5
		c0.1,0.2,0,0.4,0,0.6c0,0.4-0.1,0.9-0.2,1.3c-0.1,0.2-0.2,0.5-0.3,0.7c-0.1,0.2-0.3,0.5-0.5,0.7c-0.4,0.4-0.9,0.7-1.5,0.8
		c-0.6,0.1-1.2,0.1-1.8-0.1c-0.6-0.3-1-0.9-1.2-1.4c-0.2-0.6-0.2-1.1-0.2-1.6c0-0.5,0-1,0.2-1.5c0.2-0.5,0.4-0.9,0.7-1.2
		c0.2-0.1,0.3-0.3,0.5-0.4c0.2-0.1,0.4-0.1,0.6-0.1c0.4,0,0.7,0,0.9,0.1C75.1,30.8,75.2,31.1,75.2,31.1z"/>
</g>
</svg>
