<?xml version="1.0" encoding="utf-8"?>
<!-- Generator: Adobe Illustrator 19.2.1, SVG Export Plug-In . SVG Version: 6.00 Build 0)  -->
<svg version="1.1" id="Laag_1" xmlns="http://www.w3.org/2000/svg" xmlns:xlink="http://www.w3.org/1999/xlink" x="0px" y="0px"
	 viewBox="0 0 342.7 207.8" style="enable-background:new 0 0 342.7 207.8;" xml:space="preserve">
<g>
	<path d="M132,76.5l-1.1-0.4l-1.1-0.2l-1.1-0.1l-1.1,0l-1.1,0.1l-1.1,0.3l-1.1,0.4l-1,0.5l-1,0.6l-0.9,0.7l-0.8,0.7
		c-0.2,0.3-0.5,0.5-0.7,0.8l-0.7,0.9l-0.6,0.9l-0.4,1l-0.3,1l-0.4-0.6c3,0.7,6,0.9,9,0.8l1.2-0.1l-0.8,0.9c-1.3,1.5-2.1,3.5-2.1,5.5
		c0,0.5,0.1,1,0.2,1.5l0.1,0.4l0,0.2l0.1,0.2c0.1,0.3,0.2,0.5,0.3,0.7c0.5,0.8,1.2,1.6,2,2.1c0.8,0.5,1.8,0.8,2.7,0.9
		c0.2,0,0.5,0,0.7,0c0.1,0,0.3,0,0.3-0.1l0.4-0.1c0.4-0.2,0.8-0.4,1.2-0.7c0.8-0.6,1.3-1.4,1.6-2.3c0.3-0.9,0.3-1.9-0.1-2.7
		l-1.2-2.6l2,2c1.4,1.4,3.7,2,5.7,1.7c1-0.2,2-0.5,2.9-1.1c0.8-0.6,1.5-1.4,2-2.3c0.5-0.9,1-2,1.9-2.9c0.4-0.4,1-0.8,1.6-1
		c0.6-0.2,1.3-0.2,1.8-0.2c0.6,0,1.1,0.1,1.5,0c0.6-0.1,1-0.2,1.4-0.5c0.8-0.5,1.5-1.3,1.9-2.3c0.8-1.9,1-4.1,0.9-6.3
		c-0.1-1.1-0.1-2.2-0.2-3.3c-0.1-1.1-0.2-2.2-0.2-3.3l-0.1-1.7c0-0.6,0-1.1-0.1-1.6c0-0.2-0.2-0.5-0.2-0.6l-0.3-0.3
		c-0.1-0.1-0.2-0.1-0.2-0.2c-0.4-0.2-0.9-0.2-1.4,0c-1,0.3-2,0.8-3,1.2c-1,0.4-2.2,0.7-3.3,0.3c1.1,0.3,2.2-0.1,3.1-0.5
		c1-0.5,1.9-1.1,3-1.5c0.5-0.2,1.2-0.3,1.8,0c0.1,0.1,0.3,0.2,0.4,0.3l0.3,0.3c0.3,0.3,0.4,0.6,0.5,0.9c0.2,0.6,0.2,1.2,0.3,1.7
		l0.2,1.6c0.1,1.1,0.1,2.2,0.2,3.3c0.1,1.1,0.2,2.2,0.2,3.3c0.1,2.3-0.1,4.6-1,6.7c-0.5,1.1-1.2,2.1-2.3,2.7
		c-0.3,0.2-0.6,0.3-0.9,0.4c-0.3,0.1-0.6,0.1-0.8,0.2c-0.7,0.1-1.2,0-1.8,0c-1.1-0.1-1.9,0.2-2.6,0.9c-0.7,0.7-1.2,1.7-1.7,2.7
		c-0.5,1-1.3,2-2.3,2.6c-1,0.7-2.1,1.1-3.3,1.3c-2.3,0.4-4.8-0.2-6.6-1.9l0.8-0.6c0.5,1.1,0.5,2.4,0.2,3.5c-0.4,1.1-1,2.1-2,2.8
		c-0.5,0.4-1,0.6-1.6,0.8l-0.4,0.1c-0.2,0.1-0.3,0.1-0.5,0.1c-0.3,0.1-0.6,0.1-0.9,0.1c-1.2,0-2.3-0.4-3.3-1c-1-0.6-1.8-1.5-2.3-2.5
		c-0.1-0.3-0.3-0.5-0.4-0.8l-0.1-0.2l-0.1-0.2l-0.1-0.4c-0.1-0.6-0.2-1.1-0.2-1.7c-0.1-2.3,0.8-4.5,2.3-6.2l0.4,0.8
		c-3.1,0.2-6.3-0.1-9.3-0.8l-0.5-0.1l0.1-0.5l0.3-1.2l0.5-1.1l0.6-1c0.2-0.3,0.5-0.6,0.7-1c0.3-0.3,0.6-0.6,0.9-0.8l0.9-0.7l1-0.6
		l1.1-0.5L124,76l1.1-0.3l1.2-0.2l1.2-0.1l1.2,0.1l1.1,0.2l1.1,0.3L132,76.5z"/>
</g>
<g>
	<path d="M206.3,59.7c-1.4-1.4-2.7-2.8-3.8-4.4c-0.6-0.8-1-1.7-1.5-2.5c-0.5-0.9-0.9-1.7-1.3-2.6c-0.4-0.9-0.7-1.9-0.8-2.9
		c-0.1-1,0-2.1,0.5-3c0.5-0.9,1.2-1.7,2-2.3c0.3-0.2,0.4-0.3,0.7-0.4c0.3-0.1,0.6-0.2,0.9-0.2c0.6-0.1,1.1,0.1,1.6,0.3
		c1,0.4,1.8,1,2.6,1.5c0.8,0.5,1.6,0.8,2.4,0.5c0.2,0,0.4-0.2,0.6-0.2c0,0,0.1-0.1,0.1,0l0.1-0.1l0.3-0.2c0.2-0.1,0.3-0.3,0.4-0.5
		c0.1-0.1,0.2-0.3,0.3-0.5c0.4-0.7,0.6-1.7,0.6-2.6c0-0.9,0-1.9,0.1-2.9c0.1-1,0.4-2.1,1.1-3c0.2-0.2,0.3-0.4,0.6-0.6
		c0.1-0.1,0.2-0.1,0.3-0.2c0.1-0.1,0.3-0.2,0.4-0.2c0.6-0.2,1.2-0.2,1.7-0.1c0.6,0.1,1.1,0.4,1.5,0.8c0.4,0.4,0.7,1.2,0.5,1.8
		l-0.9-0.4c0.9-1.9,1.9-3.9,3.2-5.7c0.7-0.9,1.4-1.7,2.2-2.5c0.4-0.4,0.9-0.7,1.4-1c0.5-0.3,0.9-0.5,1.5-0.8c2-1,4.1-1.5,6-2.4
		c1-0.4,1.9-0.9,2.6-1.6c0.4-0.3,0.7-0.7,0.9-1.1c0.1-0.2,0.2-0.4,0.3-0.6l0.2-0.7l0.3-1l0.5,0.9l0.8,1.2c0.2,0.4,0.4,0.9,0.6,1.3
		c0.1,0.5,0.2,0.9,0.3,1.4c0.1,0.5,0.1,0.9,0.2,1.4l0,1.4l-0.1,1.4c-0.1,0.9-0.2,1.8-0.3,2.7c-0.2,1.8-0.4,3.6-0.4,5.4
		c0,0.9,0.1,1.8,0.2,2.6c0,0.4,0.2,0.8,0.3,1.3c0.1,0.4,0.3,0.8,0.5,1.2c0.3,0.8,0.9,1.5,1.3,2.4c0.2,0.4,0.4,0.9,0.5,1.4
		c0.1,0.5,0,1.1-0.1,1.6c-0.4,1.1-1.4,1.7-2.2,2.1c-0.9,0.4-1.7,0.7-2.5,1c-0.8,0.4-1.5,0.8-2,1.5c-0.5,0.6-0.9,1.4-1.2,2.2
		c-0.5,1.6-0.4,3.4,0.2,5.1l0.2,0.6l-0.6,0c-1.9,0.1-3.6,0.9-5.1,2.1c-1.5,1.2-2.7,2.8-4.3,4.1c-1.6,1.3-3.6,2.2-5.7,2.2
		c-0.5,0-1,0-1.5,0l-1.5-0.2c-1-0.2-2-0.3-3-0.6c-2-0.5-3.8-1.5-5.6-1.4c-0.9,0-1.8,0.3-2.7,0.7c-0.9,0.3-1.8,0.8-2.6,1.2
		c-0.4,0.2-0.9,0.4-1.3,0.7l-1.3,0.8c-0.9,0.5-1.6,1.1-2.4,1.6c-1.6,1.2-3.1,2.4-4.6,3.7c-1.5,1.3-2.9,2.6-4.4,4
		c-1.5,1.3-2.9,2.7-4.4,4c-0.7,0.7-1.5,1.3-2.3,1.9c-0.8,0.6-1.6,1.2-2.4,1.8c-1.6,1.2-3.3,2.3-5.1,3.2c-0.9,0.4-1.8,0.8-2.8,1.2
		l-1.4,0.4c-0.2,0.1-0.5,0.2-0.7,0.2l-0.7,0.1l-1.5,0.3l-1.5,0.1c-1,0.1-2,0.2-3,0.2c-0.5,0-1,0-1.5,0c-0.5-0.1-1-0.1-1.5-0.4
		c-0.4-0.3-0.7-0.8-1-1.1c-0.3-0.4-0.7-0.7-1.1-1c-1.6-1.1-3.5-1.8-5.3-2.5c1.9,0.6,3.8,1.3,5.4,2.4c0.4,0.3,0.8,0.6,1.2,1
		c0.4,0.4,0.6,0.8,1,1c0.8,0.4,1.8,0.3,2.8,0.2c1-0.1,1.9-0.2,2.9-0.3l1.5-0.2l1.4-0.3l0.7-0.1c0.2-0.1,0.5-0.2,0.7-0.2l1.4-0.5
		c0.9-0.4,1.8-0.8,2.6-1.3c1.7-1,3.3-2,4.9-3.2c0.8-0.6,1.6-1.2,2.3-1.8c0.8-0.6,1.5-1.2,2.3-1.9c1.5-1.3,2.9-2.6,4.4-3.9
		c1.5-1.3,2.9-2.7,4.4-4c1.5-1.3,3-2.6,4.6-3.8c1.7-1.2,3.3-2.2,5.1-3.1c0.9-0.4,1.8-0.9,2.7-1.2c0.9-0.4,1.9-0.7,3-0.7
		c1.1-0.1,2.1,0.2,3.1,0.5c0.9,0.3,1.9,0.6,2.8,0.9c0.9,0.3,1.9,0.4,2.8,0.6l1.5,0.2c0.5,0,0.9,0,1.4,0c1.9,0,3.6-0.8,5.1-2
		c1.5-1.2,2.7-2.8,4.3-4.1c1.6-1.3,3.6-2.2,5.6-2.4l-0.4,0.7c-0.6-1.8-0.7-3.8-0.2-5.7c0.3-0.9,0.7-1.8,1.4-2.6
		c0.6-0.7,1.5-1.4,2.4-1.7c0.9-0.4,1.7-0.6,2.5-1c0.8-0.3,1.5-0.8,1.7-1.5c0.3-0.7,0.1-1.5-0.3-2.2c-0.4-0.8-1-1.5-1.4-2.4
		c-0.2-0.4-0.4-0.9-0.5-1.3c-0.1-0.5-0.3-0.9-0.3-1.4c-0.2-0.9-0.2-1.9-0.2-2.8c0-1.9,0.2-3.7,0.4-5.5c0.1-0.9,0.2-1.8,0.3-2.7
		l0-1.3l0-1.3c0-0.4-0.1-0.9-0.2-1.3c-0.1-0.4-0.2-0.8-0.3-1.3l-0.5-1.2l-0.7-1.1l0.9-0.2l-0.3,0.8c-0.1,0.3-0.3,0.5-0.4,0.8
		c-0.3,0.5-0.7,0.9-1.1,1.3c-0.9,0.8-1.9,1.3-2.9,1.8c-2,0.9-4.1,1.5-6,2.4c-0.4,0.2-0.9,0.5-1.4,0.7c-0.4,0.3-0.8,0.6-1.2,0.9
		c-0.8,0.7-1.5,1.5-2.1,2.3c-1.2,1.7-2.2,3.6-3.1,5.5l-0.9-0.4c0.1-0.3,0-0.6-0.2-0.9c-0.2-0.3-0.6-0.4-1-0.5
		c-0.8-0.2-1.6,0.1-2.1,0.8c-0.5,0.7-0.8,1.5-0.9,2.4c-0.1,0.9-0.1,1.9-0.1,2.9c-0.1,1-0.2,2.1-0.7,3c-0.2,0.5-0.7,1-1.1,1.3
		l-0.3,0.2l-0.1,0.1c-0.1,0.1-0.1,0.1-0.2,0.1c-0.3,0.1-0.5,0.3-0.8,0.3c-0.6,0.2-1.2,0.1-1.7,0c-0.5-0.2-1-0.4-1.4-0.7
		c-0.9-0.5-1.6-1.2-2.4-1.5c-0.4-0.2-0.8-0.3-1.2-0.3c-0.2,0-0.3,0.1-0.5,0.1c-0.2,0.1-0.5,0.2-0.6,0.3c-0.8,0.5-1.4,1.2-1.9,2
		c-0.4,0.8-0.6,1.7-0.5,2.6c0.1,0.9,0.3,1.9,0.7,2.8c0.3,0.9,0.8,1.8,1.2,2.6c0.4,0.9,0.9,1.7,1.4,2.5
		C203.8,56.8,205,58.3,206.3,59.7z"/>
</g>
<g>
	<path d="M208.7,62.6c0,0,0.4-0.4,1-1c0.3-0.3,0.7-0.7,1.1-1.2c0.2-0.2,0.4-0.5,0.7-0.7c0.2-0.3,0.5-0.5,0.8-0.7
		c1.1-1,2.4-2.2,3.8-3.5c1.4-1.3,2.9-2.7,4.3-4.1c1.4-1.4,2.7-3,3.8-4.5c0.5-0.8,1-1.5,1.5-2.3c0.2-0.4,0.4-0.7,0.6-1.1
		c0.2-0.4,0.4-0.7,0.5-1c0.3-0.7,0.6-1.3,0.8-1.9c0.2-0.6,0.4-1.1,0.6-1.5c0.3-0.9,0.4-1.3,0.4-1.3s0,0.5,0,1.4
		c-0.1,0.4-0.1,1-0.2,1.6c-0.1,0.3-0.1,0.6-0.2,1c-0.1,0.4-0.3,0.7-0.4,1c-0.1,0.4-0.3,0.7-0.5,1.1c-0.2,0.4-0.4,0.8-0.6,1.1
		c-0.4,0.8-1,1.6-1.5,2.3c-1.1,1.6-2.5,3.1-3.9,4.6c-1.4,1.5-2.9,2.9-4.3,4.2c-1.4,1.3-2.7,2.5-3.9,3.5c-0.3,0.2-0.5,0.5-0.8,0.7
		c-0.3,0.2-0.6,0.4-0.8,0.6c-0.5,0.3-1,0.6-1.4,0.9C209.2,62.3,208.7,62.6,208.7,62.6z"/>
</g>
<g>
	<path d="M132.3,74c-1.7-1-3.3-2-4.8-3.1c-0.8-0.6-1.5-1.2-2.2-1.9c-0.7-0.7-1.4-1.4-2-2.2c-0.5-0.8-1-1.7-1.4-2.6
		c-0.4-0.9-0.6-1.9-0.7-2.9c0-0.5-0.1-1,0-1.5c0.1-0.5,0.1-1,0.3-1.5c0.3-1,1-2,2-2.5c1-0.5,2.1-0.5,3.1-0.3c1,0.2,1.9,0.6,2.8,1
		c1.8,0.7,3.6,1.5,5.2,2.6c0.8,0.5,1.6,1.2,2.3,1.9c0.7,0.7,1.3,1.6,1.7,2.5c0.4,0.9,0.7,1.9,0.8,2.9c0.1,1,0,2.1-0.4,3.1l-0.5,1.2
		l-0.4-1.2c-0.3-0.8-0.6-1.7-0.6-2.6c-0.1-0.9-0.1-1.8-0.1-2.6c0-0.9,0.1-1.7,0.3-2.6c0.2-0.9,0.3-1.7,0.6-2.5
		c0.5-1.7,1.1-3.3,1.9-4.8c0.4-0.8,0.8-1.5,1.3-2.2c0.5-0.7,1.1-1.4,1.8-2c0.7-0.6,1.6-1,2.5-1.2c0.5-0.1,1,0,1.4,0.1
		c0.5,0.1,0.9,0.4,1.3,0.6c0.8,0.6,1.4,1.3,1.8,2.1c0.4,0.8,0.8,1.6,1,2.5c0.7,3.5-0.4,7.2-2.9,9.6c2.2-2.6,2.9-6.2,2-9.3
		c-0.3-0.8-0.5-1.5-0.9-2.2c-0.4-0.7-0.9-1.3-1.5-1.7c-0.3-0.2-0.7-0.4-1-0.5c-0.4-0.1-0.7-0.1-1.1-0.1c-0.7,0.1-1.4,0.5-2,0.9
		c-0.6,0.5-1.1,1.1-1.6,1.8c-0.5,0.7-0.9,1.4-1.3,2.1c-0.8,1.5-1.4,3-1.8,4.6c-0.2,0.8-0.4,1.6-0.6,2.4c-0.1,0.8-0.2,1.6-0.3,2.5
		c0,0.8,0,1.6,0.1,2.5c0.1,0.8,0.3,1.6,0.6,2.3l-0.9,0c0.3-0.8,0.5-1.7,0.4-2.6c-0.1-0.9-0.3-1.8-0.7-2.6c-0.8-1.6-2.1-3-3.7-4
		c-1.6-1-3.3-1.8-5.1-2.5c-0.9-0.4-1.7-0.7-2.6-0.9c-0.9-0.2-1.7-0.2-2.5,0.2c-0.7,0.3-1.2,1.1-1.5,1.9c-0.3,0.8-0.3,1.7-0.3,2.6
		c0.1,0.9,0.3,1.8,0.6,2.6c0.3,0.9,0.8,1.7,1.3,2.4c0.5,0.8,1.1,1.5,1.7,2.2c0.6,0.7,1.3,1.4,2,2C129.2,71.7,130.7,72.8,132.3,74z"
		/>
</g>
<g>
	<path d="M139.4,73.1c-0.8,0.3-1.7,0.2-2.4-0.4l0.3-0.3c0.6,0.6,1.4,1.1,2.2,1.3c0.4,0.1,0.8,0.2,1.3,0.2c0.4,0,0.8,0,1.2-0.1
		l-0.4,0.6c-0.2-1-0.2-2,0-2.9c0.1-1,0.4-1.9,0.9-2.8l1-1.9l0,2.1l0,0.8l-0.1,0.8c-0.1,0.5-0.2,1.1-0.3,1.6c-0.2,0.5-0.4,1-0.6,1.5
		c-0.2,0.5-0.5,0.9-0.8,1.4c-0.3,0.4-0.6,0.9-1,1.3c-0.4,0.4-0.8,0.8-1.2,1.1c-0.4,0.3-0.9,0.6-1.3,0.9l-0.7,0.4l-0.7,0.3l0.1-0.9
		c0.1,0.1,0.3,0.1,0.4,0.1c0.1,0,0.1,0,0.2,0c0.1,0,0.1,0,0.2,0c0.3-0.1,0.6-0.3,0.8-0.6c0.5-0.5,0.9-1.2,1.2-1.9l0.4,0.7l-3.9-0.2
		l-0.5,0l0-0.5l0-2.4l1,0.1c-0.1,0.7-0.1,1.5,0.2,2.2l-0.7-0.3c0.3-0.2,0.7-0.2,1.1-0.1c0.3,0.1,0.6,0.2,0.9,0.5
		c0.2,0.2,0.4,0.5,0.6,0.8c0.1,0.3,0.2,0.7,0,1.1l-0.7-0.6c1.2-0.7,2.3-1.7,3.2-2.8l0.3-0.3l0.4,0.2c1.3,0.6,2.3,1.8,2.7,3.2l-1,0
		c0.1-0.3,0.1-0.7,0.1-1c0-0.4-0.2-0.7-0.4-1.1c-0.4-0.7-1-1.2-1.8-1.3l0.2-0.2c0,0.2,0,0.4,0.1,0.6c0.1,0.2,0.3,0.3,0.5,0.5
		c0.4,0.2,0.9,0.3,1.3,0c-0.2,0.2-0.4,0.3-0.7,0.3c-0.3,0-0.5,0-0.8-0.1c-0.2-0.1-0.5-0.3-0.6-0.5c-0.2-0.2-0.3-0.5-0.2-0.8l0-0.2
		l0.2,0c0.5,0,0.9,0.2,1.3,0.4c0.4,0.2,0.8,0.6,1.1,0.9c0.3,0.4,0.5,0.8,0.6,1.3c0.1,0.2,0.1,0.5,0.1,0.7c0,0.3,0,0.5-0.1,0.8
		l-0.5,1.7l-0.5-1.6c-0.3-1.1-1.2-2.1-2.2-2.6l0.6-0.1c-1,1.2-2.2,2.2-3.5,3l-1.1,0.7l0.4-1.2c0-0.1,0-0.3,0-0.4
		c-0.1-0.1-0.2-0.3-0.3-0.4c-0.1-0.1-0.3-0.2-0.4-0.2c-0.2,0-0.3,0-0.4,0l-0.5,0.2l-0.2-0.5c-0.4-0.9-0.5-1.9-0.3-2.8l1,0.1l0,2.4
		l-0.5-0.5l3.9,0.2l0.7,0l-0.3,0.6c-0.3,0.8-0.8,1.6-1.4,2.3c-0.3,0.3-0.7,0.6-1.2,0.8c-0.1,0-0.3,0.1-0.4,0.1c-0.1,0-0.3,0-0.4,0
		c-0.3,0-0.5-0.1-0.8-0.3l-0.9-0.5l1-0.4l0.7-0.3l0.6-0.3c0.4-0.2,0.8-0.5,1.2-0.8c0.4-0.3,0.7-0.6,1.1-1c0.3-0.4,0.6-0.7,0.9-1.1
		c0.3-0.4,0.5-0.8,0.7-1.3c0.2-0.4,0.4-0.9,0.5-1.4c0.1-0.5,0.2-0.9,0.3-1.4l0.1-0.7l0-0.7l0.9,0.2c-0.8,1.6-1,3.4-0.7,5.1l0.1,0.5
		l-0.5,0.1c-0.5,0.1-1,0.1-1.5,0c-0.5-0.1-1-0.2-1.4-0.4c-0.9-0.4-1.7-1-2.3-1.8l0.3-0.3C137.7,73,138.5,73.3,139.4,73.1z"/>
</g>
<g>
	<path d="M182.3,78.4c0,0,0.4-0.1,1.2-0.3c0.4-0.1,0.8-0.2,1.3-0.4c0.3-0.1,0.5-0.2,0.8-0.3c0.3-0.1,0.6-0.1,0.9-0.2
		c2.5-0.5,5.9-1.4,9.3-1.9c3.5-0.5,7-0.3,9.6,0.3c0.7,0.1,1.2,0.3,1.7,0.5c0.5,0.2,0.9,0.4,1.3,0.6c0.7,0.3,1.1,0.6,1.1,0.6
		s-0.4-0.1-1.2-0.2c-0.4-0.1-0.8-0.1-1.3-0.2c-0.3,0-0.5-0.1-0.8-0.1c-0.3,0-0.6-0.1-0.9-0.2c-1.2-0.2-2.7-0.4-4.3-0.5
		c-1.6-0.1-3.3,0-5,0.3c-3.4,0.5-6.7,1.4-9.3,1.9c-0.3,0.1-0.6,0.2-0.9,0.2c-0.3,0-0.6,0-0.9,0c-0.5,0-1,0-1.4,0
		C182.7,78.4,182.3,78.4,182.3,78.4z"/>
</g>
<g>
	<g>
		<path d="M49.9,84.2l3.9,0l0,0.1L53,83.6c-0.2-0.3-0.4-0.5-0.6-0.8c-0.4-0.6-0.7-1.3-0.8-1.9c-0.2-0.7-0.2-1.4-0.2-2.1
			c0-0.4,0-0.7,0.1-1.1c0-0.4,0.1-0.7,0.2-1c0.1-0.7,0.3-1.4,0.6-2c0.2-0.7,0.6-1.3,0.9-1.9c0.3-0.6,0.7-1.2,1.1-1.8
			c0.2-0.3,0.4-0.6,0.6-0.9l0.7-0.8c1-1,2-1.9,3-2.9c1-0.9,2-1.9,2.9-2.9c0.5-0.5,0.9-1,1.3-1.5c0.4-0.5,0.8-1.1,1.1-1.7
			c0.2-0.3,0.3-0.6,0.5-0.9l0.4-0.9l0.3-0.9l0.2-1l1,0.2c-0.1,0.6-0.1,1.2-0.1,1.8c0,0.6,0.1,1.2,0.3,1.7c0.1,0.6,0.3,1.1,0.6,1.7
			c0.2,0.5,0.5,1.1,0.9,1.5c0.3,0.5,0.7,0.9,1.1,1.4c0.4,0.4,0.9,0.8,1.4,1.1c0.5,0.3,1,0.6,1.6,0.8c0.6,0.2,1.1,0.4,1.7,0.6
			c1.2,0.3,2.5,0.6,3.6,1.4l0.2,0.2c0,0,0,0,0.1,0.1l0.1,0.1l0.3,0.3c0.2,0.3,0.5,0.5,0.7,0.8c0.4,0.6,0.6,1.2,0.8,1.8
			c0.2,0.6,0.2,1.3,0.3,2c0,0.6,0,1.3-0.1,1.9c-0.1,1.3-0.4,2.5-0.8,3.7l-0.5-0.6c2-0.1,4.1,0.3,5.7,1.5c1.7,1.2,2.8,3,3.3,4.9
			c0.6,1.9,0.8,3.9,0.7,5.8c-0.1,1.9-0.3,3.9-0.7,5.7c-0.8,3.8-2.3,7.4-4.3,10.7c-1,1.6-2.2,3.2-3.6,4.5c-1.4,1.3-3.1,2.5-5,3.1
			c-0.5,0.1-1,0.3-1.5,0.3c-0.5,0-0.9,0.1-1.4,0.1c-0.5,0-1,0-1.5,0c-0.5,0-1-0.1-1.5-0.2c-1.9-0.3-3.8-1-5.5-1.8
			c-3.5-1.7-6.7-4-9.2-6.9l-0.2-0.3c-0.1-0.1-0.1,0-0.1-0.2l-0.1-0.2l-0.4-0.6c-0.2-0.5-0.4-1-0.6-1.4c-0.3-0.9-0.5-1.9-0.7-2.8
			c-0.4-1.9-0.6-3.8-0.8-5.7c-0.2-1.9-0.4-3.8-0.5-5.7C50.2,88,50,86.1,49.9,84.2z M49.9,84.2c0.2,3.8,0.7,7.6,1.4,11.3
			c0.3,1.9,0.7,3.7,1.2,5.6l0.4,1.4c0.1,0.4,0.3,0.9,0.5,1.3c0.2,0.4,0.3,0.8,0.5,1.2l0.4,0.6l0.1,0.2c0,0,0.1,0.1,0.1,0.1l0.2,0.3
			c2.5,2.8,5.5,5.1,8.9,6.7c1.7,0.8,3.5,1.4,5.3,1.7c0.5,0.1,0.9,0.1,1.4,0.2c0.5,0.1,0.9,0,1.4,0c0.4,0,0.9-0.1,1.4-0.1
			c0.4,0,0.9-0.2,1.3-0.3c1.7-0.5,3.3-1.6,4.6-2.9c1.3-1.3,2.5-2.8,3.5-4.4c2-3.2,3.4-6.7,4.2-10.4c0.4-1.8,0.7-3.7,0.7-5.6
			c0-1.9-0.1-3.7-0.7-5.5c-0.5-1.7-1.5-3.3-3-4.4c-1.4-1.1-3.3-1.4-5.1-1.3l-0.7,0l0.2-0.7c0.3-1.2,0.6-2.4,0.7-3.6
			c0.1-0.6,0.1-1.2,0.1-1.8c0-0.6-0.1-1.2-0.2-1.7c-0.2-0.6-0.4-1.1-0.7-1.6c-0.1-0.3-0.3-0.4-0.5-0.6L77,69.6l-0.1-0.1
			c0,0,0,0-0.1,0l-0.2-0.1c-0.9-0.6-2.1-1-3.3-1.3c-0.6-0.2-1.2-0.3-1.8-0.6c-0.6-0.3-1.2-0.5-1.7-0.9c-0.6-0.4-1.1-0.8-1.5-1.2
			c-0.5-0.5-0.9-1-1.3-1.5c-0.4-0.5-0.7-1.1-1-1.7c-0.3-0.6-0.5-1.2-0.6-1.8c-0.2-0.6-0.2-1.3-0.3-1.9c0-0.7,0-1.3,0.1-2l1,0.2
			l-0.2,1.1l-0.3,1l-0.4,1c-0.2,0.3-0.3,0.6-0.5,1c-0.4,0.6-0.8,1.2-1.2,1.8c-0.4,0.6-0.9,1.1-1.4,1.6c-1,1-2,2-3,2.9
			c-1,0.9-2,1.9-3,2.9c-0.9,1-1.8,2-2.5,3.2c-0.4,0.6-0.7,1.2-0.9,1.8c-0.3,0.6-0.5,1.3-0.7,1.9c-0.1,0.3-0.2,0.7-0.2,1
			c-0.1,0.3-0.1,0.7-0.1,1c-0.1,0.7,0,1.4,0.1,2c0.1,0.7,0.4,1.3,0.7,1.9c0.2,0.3,0.4,0.6,0.6,0.8l0.7,0.7l0.1,0.1l-0.1,0L49.9,84.2
			z"/>
	</g>
	<g>
		<path d="M68.7,81.6c0,0,0,0.1,0,0.4c0,0.2,0.1,0.6,0.1,1c0.1,0.4,0.2,1,0.3,1.6c0.1,0.3,0.1,0.6,0.3,1c0.1,0.3,0.1,0.7,0.2,1.1
			c0.3,1.5,0.7,3.2,1.1,5.1c0.4,1.9,0.7,4,0.7,6.1c-0.1,2.1-0.3,4.1-0.4,6.1c-0.1,0.9-0.1,1.9,0,2.7c0.1,0.9,0.2,1.7,0.3,2.4
			c0.1,0.4,0.2,0.7,0.3,1c0.1,0.3,0.1,0.6,0.2,0.9c0.2,0.6,0.4,1.1,0.6,1.5c0.4,0.8,0.7,1.2,0.7,1.2s-0.1-0.1-0.3-0.2
			c-0.2-0.2-0.5-0.4-0.8-0.8c-0.3-0.4-0.6-0.8-1-1.4c-0.2-0.3-0.3-0.6-0.5-0.9c-0.2-0.3-0.2-0.7-0.3-1.1c-0.2-0.8-0.3-1.6-0.3-2.5
			c-0.1-0.9,0-1.9,0-2.8c0.1-2,0.4-4,0.4-6c0-1,0-2-0.1-3c-0.1-1-0.3-2-0.5-2.9c-0.4-1.9-0.9-3.6-1.1-5.2c-0.1-0.4-0.2-0.7-0.2-1.1
			c0-0.4,0-0.7,0-1c0-0.6,0-1.2,0.1-1.7c0-0.5,0.1-0.8,0.1-1.1C68.7,81.7,68.7,81.6,68.7,81.6z"/>
	</g>
	<g>
		<path d="M62.7,105c0.8,0.2,1.5,0.4,2.3,0.7c0.2,0,0.4,0.2,0.5,0.3l0.5,0.3l1,0.5l4.1,2.2l-0.7,0.3c0.4-1.8,1.3-3.4,2.2-5
			c0.2-0.4,0.5-0.8,0.7-1.1c0.2-0.4,0.5-0.7,0.8-1.1c0.1-0.2,0.3-0.3,0.5-0.5l0.5-0.5c0.3-0.3,0.7-0.6,1-0.9l-0.6,1.2l-0.3,0.6
			c-0.1,0.2-0.2,0.4-0.3,0.6c-0.5,0.7-1,1.4-1.5,2.2c-0.9,1.5-1.7,3.1-2.1,4.7l-0.2,0.6l-0.6-0.3l-4.1-2.2l-1-0.5l-0.5-0.3
			c-0.2-0.1-0.4-0.2-0.5-0.3C64,106.1,63.3,105.6,62.7,105z"/>
	</g>
	<g>
		<path d="M71.1,119.1c-2.8,0.5-5.7,1-8.5,1.7c-1.4,0.3-2.8,0.7-4.2,1.1c-1.4,0.4-2.7,1-3.5,2c-0.9,1-1.4,2.4-1.9,3.7
			c-0.1,0.3-0.3,0.7-0.4,1c-0.2,0.3-0.3,0.6-0.5,1c-0.3,0.7-0.7,1.3-1.1,1.9c-1.7,2.4-3.8,4.5-6.4,6l-0.4-0.9l4.9-1.9l0.9-0.3
			l-0.2,0.9c-0.5,2-2.3,3.6-4.4,3.9l-0.3-1c0.2-0.1,0.5-0.1,0.8-0.1c0.3,0,0.5,0.2,0.7,0.4c0.4,0.3,0.5,0.7,0.6,1.1
			c0.1,0.4,0.1,0.8,0,1.2c0,0.2-0.1,0.4-0.2,0.6c-0.1,0.2-0.2,0.4-0.3,0.5c-0.1,0.1-0.2,0.3-0.4,0.4l-0.4,0.4l-0.7,0.7
			c-0.4,0.5-0.8,0.9-0.8,1.4l-0.9-0.3c0.7-1.1,2.1-1.5,3.3-1.1l0.6,0.2l-0.3,0.5l-1.8,3.4l-0.9-0.5c0.1-0.2,0.2-0.3,0.4-0.4
			c0.2-0.1,0.4-0.2,0.6-0.2c0.4,0,0.7,0.1,1,0.2c0.3,0.2,0.5,0.4,0.7,0.6c0.2,0.3,0.3,0.6,0.3,1c0,0.1,0,0.3,0,0.5
			c0,0.2-0.1,0.3-0.1,0.4c-0.1,0.3-0.3,0.5-0.4,0.8c-0.3,0.5-0.7,0.8-1.1,1.2l-0.6-0.8c1.2-0.7,2.7-0.9,4-0.5l0.7,0.2l-0.4,0.6
			c-1.4,2-2.6,4.2-2.6,6.5l0,0.4l0,0.4c0,0.3,0.1,0.6,0.2,0.8c0.2,0.6,0.4,1.1,0.7,1.6c0.3,0.5,0.7,0.9,1.1,1.3
			c0.2,0.2,0.4,0.3,0.7,0.4c0.2,0.1,0.5,0.2,0.8,0.3l-0.5,0.2l5.7-7l0.2-0.2l0.3,0.1c1.1,0.2,2,1.1,2.3,2.2l-0.9-0.2l3-4.5l-0.1,0.4
			c0,0,0.1,0.1,0.1,0.1c0,0,0,0,0,0c-0.1,0-0.1,0.1-0.1,0.1c0-0.1,0,0,0,0c0,0,0.1,0.1,0.2,0.1c0.1,0,0.2,0,0.3-0.1
			c0.1-0.1,0.2-0.2,0.3-0.3c0.2-0.2,0.3-0.6,0.4-1c0.3-0.7,0.6-1.6,1.4-2.2c0.2-0.1,0.4-0.3,0.7-0.3c0.2-0.1,0.5-0.1,0.7-0.1
			c0.5,0,1.1,0.2,1.4,0.7l-0.8-0.1c2-2,3.4-4.7,3.9-7.5l0.4-2.3l0.6,2.2l0.5,2l-0.8-0.2c2-1.9,3-4.6,2.9-7.3l-0.1-0.9l0.8,0.5l1.8,1
			l-0.4,0c0.7-0.2,1.3-0.7,1.7-1.4c0.4-0.6,0.6-1.4,0.7-2.2c0.1-1.6-0.5-3.2-1-4.8l-3.3-9.7l0.7,0.3c-2.1,1-3.9,2.6-5.2,4.4
			c-1.4,1.9-2.3,4.1-3.3,6.3c-2,4.4-4.6,8.4-7.7,12.1c2.9-3.8,5.3-8,7.1-12.4c0.9-2.2,1.7-4.5,3.1-6.5c1.4-2.1,3.4-3.7,5.6-4.8
			l0.5-0.2l0.2,0.5L77,129c0.3,0.8,0.6,1.6,0.8,2.5c0.1,0.4,0.2,0.9,0.2,1.3c0.1,0.4,0.1,0.9,0.1,1.4c0,0.9-0.3,1.9-0.8,2.7
			c-0.5,0.8-1.2,1.5-2.2,1.8l-0.2,0.1l-0.2-0.1l-1.8-1l0.7-0.5c0.2,3-1,6-3.2,8.1l-0.6,0.6l-0.2-0.8l-0.5-2l1,0c-0.5,3-2,5.8-4.2,8
			l-0.4,0.4l-0.3-0.5c-0.1-0.2-0.3-0.3-0.6-0.3c-0.1,0-0.3,0-0.4,0.1c-0.1,0-0.3,0.1-0.4,0.2c-0.5,0.4-0.8,1-1.1,1.8
			c-0.1,0.4-0.3,0.8-0.6,1.2c-0.1,0.2-0.4,0.4-0.5,0.5c-0.3,0.2-0.6,0.2-0.9,0.2c-0.3,0-0.6-0.1-0.9-0.3c-0.3-0.2-0.5-0.6-0.3-1.1
			c0.2-0.4,0.4-0.6,0.8-0.7c0.2,0,0.4-0.1,0.6,0c0.2,0.1,0.4,0.3,0.5,0.5l0.1,0.2l-0.1,0.2l-3,4.5l-0.7,1l-0.2-1.2
			c-0.1-0.7-0.8-1.3-1.4-1.4l0.5-0.2l-5.7,7l-0.2,0.3l-0.3-0.1c-0.3-0.1-0.7-0.2-1-0.4c-0.3-0.2-0.6-0.3-0.9-0.6
			c-0.5-0.4-1-0.9-1.3-1.5c-0.4-0.6-0.6-1.2-0.8-1.8c-0.1-0.3-0.1-0.6-0.2-1l0-0.5l0-0.5c0-1.3,0.4-2.6,0.9-3.8
			c0.5-1.2,1.2-2.3,1.9-3.3l0.3,0.8c-1.1-0.3-2.3-0.1-3.3,0.4l-4.2,2.4l3.7-3.2c0.4-0.3,0.7-0.6,0.9-1c0.1-0.2,0.2-0.4,0.3-0.5
			c0-0.1,0.1-0.2,0.1-0.3c0-0.1,0-0.1,0-0.3c0-0.1,0-0.3-0.1-0.4c-0.1-0.1-0.2-0.2-0.4-0.3c-0.1-0.1-0.3-0.1-0.4-0.1
			c-0.1,0-0.2,0-0.2,0.1l-0.9-0.5l1.8-3.4l0.3,0.7c-0.7-0.3-1.7,0.1-2.2,0.7l-1.1,1.7l0.2-2c0-0.4,0.2-0.8,0.4-1.1
			c0.2-0.3,0.4-0.6,0.7-0.9c0.2-0.3,0.5-0.5,0.7-0.7l0.3-0.3c0.1-0.1,0.2-0.2,0.3-0.3c0.1-0.1,0.1-0.2,0.2-0.3
			c0.1-0.1,0.1-0.2,0.1-0.4c0-0.3,0-0.5,0-0.8c-0.1-0.3-0.2-0.5-0.3-0.6c-0.1-0.1-0.1-0.1-0.2-0.1c-0.1,0-0.1,0-0.2,0l-0.3-1
			c1.6-0.2,3.1-1.6,3.5-3.2l0.7,0.6l-4.9,1.9l-0.4-0.9c2.4-1.4,4.5-3.4,6.1-5.7c0.4-0.6,0.7-1.2,1.1-1.8c0.2-0.3,0.3-0.6,0.5-1
			l0.4-1c0.6-1.3,1.2-2.7,2.2-3.8c0.5-0.6,1.2-1,1.8-1.3c0.7-0.3,1.4-0.5,2.1-0.7c1.4-0.3,2.8-0.6,4.2-0.9
			C65.3,119.8,68.2,119.4,71.1,119.1z"/>
	</g>
	<g>
		<path d="M55.3,115.6c0,0-0.6,0.1-1.8,0.2c-0.6,0-1.2,0.1-2,0.2c-0.4,0-0.8,0.1-1.2,0.1c-0.4,0-0.9,0-1.4,0c-1.9,0-4.2-0.1-6.6-0.1
			c-1.2,0-2.4,0-3.6,0.3c-1.2,0.3-2.2,1-3.5,1.4c-1.3,0.4-2.7,0.5-3.9,0.6c-1.3,0-2.4,0.2-3.4,0.6c-0.5,0.2-0.9,0.5-1.4,0.9
			c-0.4,0.3-0.8,0.7-1.1,1.1c-0.7,0.8-1.2,1.7-1.8,2.5c-0.3,0.4-0.5,0.8-0.9,1.1c-0.3,0.3-0.6,0.6-1,0.9c-0.6,0.5-1.3,0.9-1.8,1.1
			c-0.5,0.2-1,0.4-1.2,0.5c-0.3,0.1-0.4,0.1-0.4,0.1s0.1-0.1,0.4-0.2c0.3-0.1,0.6-0.4,1.1-0.7c0.4-0.3,0.9-0.8,1.4-1.4
			c0.3-0.3,0.5-0.6,0.7-1c0.2-0.4,0.5-0.7,0.8-1.1c0.6-0.8,1.1-1.7,1.8-2.6c0.4-0.4,0.8-0.9,1.3-1.3c0.5-0.4,1-0.7,1.6-1
			c1.2-0.6,2.6-0.7,3.8-0.7c1.3,0,2.5-0.1,3.7-0.5c1.1-0.3,2.3-1.1,3.6-1.4c1.3-0.3,2.6-0.3,3.8-0.3c2.4,0,4.7,0.1,6.6,0.1
			c0.5,0,0.9,0,1.4,0c0.4,0,0.9,0.1,1.2,0.1c0.8,0.1,1.5,0.2,2,0.2C54.7,115.5,55.3,115.6,55.3,115.6z"/>
	</g>
	<g>
		<path d="M35.2,111.7c0,0,0.1,0,0.1-0.1c0.1-0.1,0.1-0.2,0.1-0.4c-0.1-0.2-0.2-0.4-0.4-0.5c-0.1-0.1-0.2-0.2-0.3-0.2
			c-0.1,0-0.1-0.1-0.1-0.1c-0.1-0.1-0.1-0.1-0.2-0.2c-0.6-0.4-1.3-0.9-2-1.3c-0.8-0.4-1.6-0.9-2.5-1.2c-1.8-0.7-3.6-1.2-5-1.4
			c-0.2,0-0.4,0-0.5-0.1c-0.2-0.1-0.3-0.1-0.4-0.2c-0.3-0.1-0.5-0.2-0.7-0.3c-0.4-0.1-0.7-0.2-0.7-0.2s0.2-0.1,0.7-0.2
			c0.2,0,0.5-0.1,0.8-0.1c0.2,0,0.3,0,0.5-0.1c0.2,0,0.3,0.1,0.5,0.1c1.5,0.2,3.4,0.7,5.3,1.5c0.9,0.4,1.8,0.8,2.6,1.3
			c0.8,0.5,1.6,1,2.1,1.4c0.1,0.1,0.1,0.1,0.2,0.2c0.1,0.1,0.2,0.1,0.3,0.2c0.1,0.2,0.2,0.4,0.3,0.5c0.1,0.3,0.1,0.7,0.1,0.9
			c-0.1,0.3-0.3,0.4-0.4,0.5C35.3,111.7,35.2,111.7,35.2,111.7z"/>
	</g>
	<g>
		<path d="M31.9,109.4c-2.4,0.4-4.7,1.5-6.5,3.2l-0.1-0.3c1.1,0.3,2.3,0.2,3.4-0.2c0.5-0.2,1-0.5,1.5-0.8c0.4-0.3,0.9-0.8,1.2-1.2
			l0.1,0.4l-0.8-0.5l-0.8-0.5l-0.7-0.6l-0.7-0.6c-0.4-0.4-0.9-0.9-1.3-1.4c-0.4-0.5-0.7-1-1.1-1.5c-0.3-0.5-0.6-1.1-0.9-1.7
			c-0.2-0.6-0.5-1.2-0.7-1.8l-0.2-0.9l-0.2-0.9L24.1,99l0-0.9l0-0.8l0.5,0.6c2.9,3.7,6.1,7.2,9.6,10.4l-0.4,0.3
			c-1.1-2.3-1.1-5.1,0-7.4l0.4-0.8l0.1,0.9c0.2,3.3,1.2,6.5,2.8,9.4l0.3,0.6l-0.6-0.2c-1.6-0.6-2.9-1.6-4.2-2.5c-1.3-1-2.6-2-4-2.7
			c-0.3-0.2-0.7-0.3-1.1-0.4c-0.4-0.1-0.8-0.2-1.1-0.3c-0.8-0.1-1.6-0.1-2.4,0c-0.8,0.1-1.5,0.4-2.2,0.8c-0.3,0.2-0.6,0.5-0.8,0.8
			c-0.1,0.2-0.2,0.3-0.3,0.5l-0.2,0.5l-0.2-0.3c0.8,0,1.5,0,2.3,0c0.8,0,1.5,0.1,2.3,0.2c0.8,0.1,1.5,0.2,2.3,0.4
			c0.7,0.2,1.5,0.4,2.2,0.6c0.7,0.2,1.4,0.5,2.1,0.8c0.7,0.3,1.4,0.6,2.1,0.9c0.7,0.3,1.3,0.7,2,1.1c0.6,0.4,1.3,0.8,1.9,1.3
			c-0.6-0.4-1.3-0.8-1.9-1.2c-0.7-0.4-1.3-0.7-2-1c-0.7-0.3-1.4-0.6-2.1-0.8c-0.7-0.2-1.4-0.5-2.2-0.7c-0.7-0.2-1.5-0.4-2.2-0.5
			c-0.7-0.1-1.5-0.2-2.2-0.3c-0.7-0.1-1.5-0.1-2.2-0.2c-0.7,0-1.5,0-2.2,0l-0.4,0l0.1-0.3l0.2-0.6c0.1-0.2,0.2-0.4,0.3-0.6
			c0.3-0.3,0.6-0.6,0.9-0.9c0.7-0.5,1.5-0.8,2.4-0.9c0.8-0.1,1.7-0.1,2.5,0c0.4,0.1,0.8,0.2,1.2,0.3c0.4,0.1,0.8,0.3,1.2,0.5
			c1.5,0.8,2.8,1.8,4.1,2.7c1.3,1,2.6,1.9,4.1,2.5l-0.3,0.4c-1.6-2.9-2.6-6.2-2.9-9.6l0.5,0.1c-1.1,2.2-1.1,4.8,0,7l0.6,1.2l-1-0.9
			c-3.4-3.3-6.7-6.7-9.6-10.5l0.4-0.2l0,0.9l0.1,0.9l0.2,0.9l0.2,0.9c0.2,0.6,0.4,1.1,0.6,1.7c0.3,0.6,0.5,1.1,0.8,1.6
			c0.3,0.5,0.7,1,1,1.5c0.4,0.5,0.8,0.9,1.2,1.3l0.7,0.6l0.7,0.6l0.7,0.5l0.8,0.5l0.2,0.1l-0.1,0.2c-0.3,0.5-0.8,1-1.3,1.4
			c-0.5,0.4-1.1,0.7-1.6,0.9c-1.2,0.4-2.5,0.4-3.6,0.1l-0.3-0.1l0.2-0.2C27,110.7,29.4,109.6,31.9,109.4z"/>
	</g>
	<g>
		<path d="M82.8,120.1c0,0,0.3-0.1,0.9-0.3c0.6-0.2,1.5-0.4,2.7-0.7c1.2-0.2,2.6-0.5,4.4-0.3c0.2,0,0.4,0,0.7,0.1
			c0.2,0,0.4,0.1,0.6,0.1c0.5,0.1,0.9,0.3,1.4,0.5c0.9,0.4,1.7,1.1,2.5,1.8c0.7,0.8,1.4,1.8,1.7,3c0.3,1.2,0,2.6-0.6,3.6
			c-1.5,2.3-4.2,2.9-5.9,4.6c-0.1,0.1-0.2,0.2-0.3,0.3l-0.1,0.1c0,0,0,0.1,0,0l0,0l-0.1,0.2l-0.3,0.4l-0.2,0.4
			c-0.3,0.5-0.4,1.1-0.6,1.7c-0.2,1.2-0.2,2.5-0.2,3.9c0,1.3,0.1,2.7-0.1,4.1c-0.1,0.7-0.2,1.4-0.5,2.1c-0.1,0.3-0.3,0.7-0.4,1
			c-0.2,0.3-0.3,0.6-0.5,0.9c-0.7,1.2-1.6,2.3-2.2,3.4c-0.3,0.6-0.6,1.1-0.8,1.7c-0.2,0.6-0.3,1.2-0.5,1.9c-0.2,0.7-0.6,1.5-1.2,1.9
			c-0.6,0.5-1.2,0.8-1.7,1.1c-1.1,0.7-2.2,1.4-3.2,2.2c-2,1.6-3.7,3.3-5.1,5.2c-0.7,0.9-1.4,1.8-1.7,2.8c-0.3,0.9-0.2,1.9,0,2.9
			c0.2,1,0.5,2,0.5,3c0,1-0.1,1.9-0.3,2.8c-0.4,1.7-1.2,3-1.9,4c-0.8,1-1.5,1.6-2,1.9c-0.5,0.4-0.8,0.5-0.8,0.5s0.3-0.2,0.8-0.6
			c0.5-0.4,1.1-1.1,1.8-2.1c0.6-1,1.2-2.3,1.5-3.9c0.3-1.6,0.1-3.3-0.5-5.3c-0.2-1-0.4-2.3,0-3.4c0.4-1.2,1.1-2.1,1.8-3.1
			c1.4-1.9,3.2-3.7,5.2-5.4c1-0.8,2.1-1.6,3.3-2.3c0.6-0.4,1.2-0.6,1.6-1c0.5-0.4,0.7-0.8,0.9-1.4c0.2-0.6,0.3-1.3,0.5-2
			c0.2-0.7,0.6-1.3,0.9-1.9c0.7-1.2,1.6-2.3,2.2-3.4c0.2-0.3,0.3-0.6,0.5-0.9c0.1-0.3,0.3-0.6,0.4-0.9c0.2-0.6,0.3-1.2,0.4-1.9
			c0.2-1.3,0.1-2.6,0.1-4c0-1.3-0.1-2.7,0.2-4.1c0.1-0.7,0.3-1.4,0.7-2l0.3-0.5l0.3-0.4l0.1-0.2l0,0l0.1-0.1l0.1-0.1
			c0.1-0.1,0.2-0.3,0.4-0.4c1-1,2.1-1.6,3.2-2.2c1-0.6,2-1.3,2.5-2.2c0.6-0.9,0.8-1.9,0.5-2.9c-0.2-1-0.8-1.8-1.4-2.5
			c-0.7-0.7-1.4-1.2-2.2-1.6c-0.4-0.2-0.8-0.4-1.1-0.5c-0.2-0.1-0.4-0.1-0.6-0.2c-0.2,0-0.4-0.1-0.6-0.1c-1.6-0.3-3-0.2-4.2,0
			c-1.2,0.1-2.1,0.3-2.7,0.4C83.2,120.1,82.8,120.1,82.8,120.1z"/>
	</g>
	<g>
		<path d="M89.4,116.6c0,0,0.2,0.2,0.7,0.6c0.4,0.4,1.2,0.8,2.2,1.1c1,0.3,2.3,0.5,3.9,0.5c0.8,0,1.6,0.1,2.4,0.1
			c0.9,0.1,1.8,0.2,2.7,0.5c1.9,0.5,3.8,1.7,5.4,3.3c1.6,1.6,2.9,3.5,4,5.6c1.1,2.1,1.9,4.6,1.7,7.2c-0.1,2.6-1,5.1-2.1,7.4
			c-1.1,2.3-2.5,4.4-3.8,6.5c-1.3,2.1-2.5,4.2-3.4,6.3c-0.9,2.1-1.2,4.4-2,6.5c-0.4,1-1,2.1-1.8,2.8c-0.4,0.4-0.9,0.7-1.4,0.9
			c-0.5,0.2-1,0.3-1.4,0.4c-1.7,0.3-1.8,2.2-2,3.7c-0.2,1.5-0.4,2.8-0.5,3.9c-0.3,2.2-0.4,3.4-0.4,3.4s0-1.3,0.1-3.5
			c0-1.1,0.1-2.4,0.1-4c0-0.8,0-1.6,0.3-2.5c0.1-0.5,0.4-1,0.8-1.3c0.4-0.4,1-0.6,1.4-0.7c1-0.2,1.8-0.5,2.4-1.1
			c0.7-0.6,1.2-1.5,1.5-2.4c0.8-1.9,1-4.2,2-6.5c1.8-4.5,5.1-8.4,7.2-12.9c1.1-2.2,1.9-4.6,2-7c0.1-2.4-0.5-4.7-1.6-6.7
			c-1-2.1-2.3-3.9-3.8-5.4c-1.5-1.5-3.2-2.5-4.9-3c-0.9-0.3-1.7-0.3-2.6-0.5c-0.8-0.1-1.6-0.2-2.4-0.4c-1.5-0.2-2.9-0.5-3.9-0.9
			c-1-0.4-1.8-1-2.2-1.4C89.6,116.9,89.4,116.6,89.4,116.6z"/>
	</g>
	<g>
		<path d="M75.4,164.9c-0.2,0.3-0.3,0.7-0.4,1c-0.1,0.3-0.2,0.7-0.2,1c0,0.2,0,0.3-0.1,0.5l-0.1,0.5c0,0.3-0.1,0.7-0.1,1
			c0,0.3,0.1,0.7,0.1,1c0.1,0.3,0.2,0.6,0.3,1c0.1,0.3,0.3,0.6,0.5,0.9c0.2,0.3,0.4,0.5,0.6,0.7l-0.5-0.1c0.7-0.3,1.4-0.8,1.9-1.4
			c0.5-0.6,0.8-1.3,0.6-1.9c0-0.1-0.1-0.1-0.1-0.2c0,0,0-0.1-0.1-0.1c0,0-0.1-0.1-0.1-0.1c-0.1-0.1-0.2-0.2-0.4-0.4
			c-0.3-0.2-0.7-0.5-1.1-0.8c-0.2-0.2-0.3-0.4-0.4-0.7c-0.1-0.3-0.1-0.5-0.1-0.8c0-0.3,0.1-0.5,0.2-0.7c0.1-0.2,0.4-0.4,0.6-0.4
			c-0.4,0.2-0.4,0.7-0.2,1c0.1,0.2,0.2,0.3,0.3,0.4c0.1,0.1,0.3,0.2,0.4,0.3c0.3,0.3,0.6,0.5,1,0.8c0.2,0.2,0.4,0.3,0.6,0.5
			c0.1,0.1,0.1,0.1,0.1,0.1c0.1,0.1,0.1,0.1,0.1,0.2c0.1,0.1,0.1,0.2,0.2,0.4c0.2,0.5,0.2,1.1,0,1.6c-0.2,0.5-0.4,0.9-0.7,1.3
			c-0.6,0.7-1.4,1.3-2.3,1.7l-0.3,0.1l-0.2-0.2c-0.3-0.3-0.5-0.6-0.8-0.9c-0.2-0.3-0.4-0.7-0.6-1c-0.1-0.4-0.3-0.7-0.3-1.1
			c-0.1-0.4-0.1-0.8-0.1-1.2c0-0.4,0-0.8,0.1-1.2c0.1-0.4,0.1-0.8,0.3-1.1c0.2-0.3,0.4-0.7,0.7-1l0.4-0.4L75.4,164.9z"/>
	</g>
	<g>
		<path d="M82.9,152.3c-0.2,0.4-0.6,0.8-1,1.1c-0.2,0.1-0.4,0.3-0.6,0.4c-0.2,0.1-0.5,0.1-0.7,0.2c-0.9,0.3-1.8,0.5-2.5,0.9
			c-0.4,0.2-0.7,0.5-0.9,0.8c-0.1,0.2-0.2,0.3-0.3,0.5c0,0.1,0,0.1-0.1,0.2c0,0.1,0,0.2,0,0.3c0,0.4,0.1,0.7,0.4,1
			c0.2,0.3,0.5,0.4,0.8,0.4l-0.3,0.2l1.3-1.9c0.1-0.2,0.2-0.3,0.4-0.4l0.4-0.4c0.3-0.3,0.6-0.5,0.9-0.8c-0.1,0.4-0.3,0.7-0.4,1.1
			l-0.2,0.5c-0.1,0.2-0.1,0.4-0.3,0.5l-1.3,1.9l-0.1,0.2l-0.2,0c-0.3,0-0.7,0-1-0.1c-0.3-0.1-0.5-0.3-0.7-0.6
			c-0.4-0.5-0.6-1-0.6-1.6c0-0.1,0-0.3,0-0.4c0-0.1,0.1-0.4,0.1-0.4c0.1-0.3,0.2-0.5,0.4-0.7c0.3-0.4,0.8-0.8,1.2-1
			c0.9-0.5,1.9-0.8,2.7-1c0.2-0.1,0.4-0.1,0.6-0.2c0.2-0.1,0.4-0.1,0.7-0.1C82,152.6,82.4,152.5,82.9,152.3z"/>
	</g>
	<g>
		<path d="M90.7,143.8c0,0.2,0,0.4,0,0.6c0,0.2,0.1,0.4,0.1,0.5l0.1,0.2c0,0.1,0.1,0.2,0.1,0.2c0,0.2,0.1,0.3,0.1,0.5
			c0.2,0.6,0.7,1.1,1.3,1.3l-0.5,0.1c0.7-0.6,1.2-1.3,1.5-2.2l0.2,0.6l-2.1-1.7l-0.5-0.4c-0.1-0.1-0.2-0.1-0.3-0.2
			c-0.1-0.1-0.1-0.2-0.2-0.3c-0.3-0.4-0.5-0.8-0.8-1.2c0.4,0.2,0.9,0.3,1.3,0.5c0.1,0,0.2,0.1,0.3,0.1c0.1,0.1,0.2,0.2,0.3,0.2
			l0.5,0.4l2.1,1.7l0.3,0.2l-0.1,0.3c-0.4,1-1,1.9-1.8,2.6l-0.2,0.2l-0.3-0.1c-0.9-0.3-1.6-1.1-1.9-1.9c-0.1-0.2-0.1-0.4-0.2-0.6
			c0-0.2,0-0.5,0.1-0.7c0.1-0.2,0.2-0.4,0.3-0.6C90.4,144.1,90.5,144,90.7,143.8z"/>
	</g>
	<g>
		<path d="M86.9,135.1c-0.3,0-0.6,0.1-0.9,0.2c-0.3,0.1-0.5,0.2-0.8,0.3c-0.1,0.1-0.2,0.2-0.4,0.2c-0.1,0-0.2,0.1-0.4,0.1
			c-0.2,0.1-0.5,0.2-0.7,0.4c-0.4,0.3-0.8,0.7-1.1,1.1c-0.2,0.2-0.3,0.4-0.4,0.7c-0.1,0.2-0.2,0.5-0.2,0.7l-0.2-0.5l2.1,1.4
			l-0.7,0.2c0.5-1.1,1.2-2,2.1-2.8c0.2-0.2,0.5-0.4,0.7-0.5c0.1-0.1,0.2-0.2,0.4-0.3c0.1-0.1,0.3-0.1,0.4-0.1
			c0.6-0.2,1.1-0.3,1.7-0.3c-0.5,0.3-0.9,0.6-1.3,1c-0.1,0.1-0.2,0.2-0.3,0.3c-0.1,0.1-0.2,0.1-0.3,0.2c-0.2,0.2-0.4,0.3-0.6,0.5
			c-0.8,0.7-1.4,1.5-1.9,2.5l-0.2,0.5l-0.5-0.3l-2.1-1.4l-0.3-0.2l0.1-0.3c0.1-0.3,0.2-0.6,0.3-0.9c0.1-0.3,0.3-0.6,0.5-0.9
			c0.4-0.5,0.9-1,1.4-1.3c0.3-0.2,0.6-0.3,0.9-0.5c0.2-0.1,0.3-0.1,0.5-0.2c0.2-0.1,0.3-0.1,0.5-0.1c0.3,0,0.7,0,1,0.1
			C86.4,134.8,86.7,134.9,86.9,135.1z"/>
	</g>
	<g>
		<path d="M110.1,130.8c0,0-0.2,0.2-0.5,0.4c-0.2,0.1-0.3,0.3-0.6,0.5c-0.1,0.1-0.2,0.2-0.3,0.3c-0.1,0.1-0.3,0.1-0.4,0.2
			c-0.5,0.3-1.1,0.8-1.5,1.4c-0.2,0.3-0.3,0.7-0.4,1c0,0.4,0,0.8,0.2,1.1c0.3,0.7,0.9,1.2,1.5,1.1c0,0,0.2,0,0.3-0.1l0.2-0.1
			c0.1-0.1,0.2-0.2,0.3-0.3c0.2-0.2,0.3-0.5,0.5-0.8c0.1-0.1,0.1-0.3,0.1-0.4c0.1-0.1,0.1-0.3,0.2-0.4c0.1-0.2,0.2-0.5,0.3-0.7
			c0.1-0.4,0.2-0.6,0.2-0.6s0.1,0.2,0.1,0.6c0,0.2,0.1,0.5,0.1,0.8c0,0.2,0,0.3,0,0.5c0,0.2-0.1,0.3-0.2,0.5
			c-0.1,0.4-0.3,0.7-0.6,1.1c-0.2,0.2-0.4,0.3-0.6,0.5c-0.1,0.1-0.3,0.1-0.4,0.2c-0.1,0-0.1,0.1-0.4,0.1c-0.6,0.1-1.2-0.1-1.6-0.4
			c-0.5-0.3-0.8-0.8-1-1.3c-0.2-0.5-0.3-1-0.2-1.6c0-0.6,0.2-1.1,0.5-1.5c0.5-0.8,1.3-1.4,1.9-1.7c0.2-0.1,0.3-0.2,0.5-0.3
			c0.2,0,0.3-0.1,0.5-0.1c0.3-0.1,0.5-0.1,0.7-0.1C109.8,130.8,110.1,130.8,110.1,130.8z"/>
	</g>
	<g>
		<path d="M111.5,141.6l-0.3,0.5l-0.2,0.5l-0.1,0.5c0,0.2,0,0.3-0.1,0.5c-0.1,0.3-0.1,0.6-0.2,0.9l0,0.5l0.1,0.5l0.1,0.5l0.2,0.5
			l0.2,0.4l0.3,0.4l0.3,0.3l0.4,0.3l0.4,0.2l0.4,0.1l-0.5,0.2c0.3-0.4,0.5-0.8,0.6-1.3c0.1-0.5,0.1-1,0.1-1.5c0-0.2-0.1-0.5-0.1-0.7
			c0-0.1-0.1-0.2-0.1-0.3c-0.1-0.1-0.1-0.2-0.1-0.4c-0.1-0.2-0.1-0.5-0.2-0.7c-0.1-0.2-0.2-0.5-0.4-0.7c0.3,0.1,0.5,0.3,0.7,0.5
			c0.2,0.2,0.4,0.4,0.6,0.6c0.1,0.1,0.2,0.2,0.3,0.4c0,0.1,0.1,0.3,0.1,0.4c0.1,0.3,0.1,0.6,0.2,0.9c0.1,0.6,0,1.2-0.1,1.8
			c-0.1,0.6-0.4,1.2-0.8,1.7l-0.2,0.3l-0.3-0.1l-0.6-0.2l-0.6-0.3l-0.5-0.4c-0.2-0.1-0.3-0.3-0.4-0.4c-0.1-0.2-0.3-0.3-0.4-0.5
			l-0.3-0.5l-0.2-0.6l-0.2-0.6l-0.1-0.6l0-0.6l0.1-0.6l0.1-0.6c0-0.2,0.2-0.4,0.3-0.6l0.4-0.5c0.2-0.1,0.4-0.3,0.5-0.4L111.5,141.6z
			"/>
	</g>
	<g>
		<path d="M101.9,152.4c-0.3,0.3-0.5,0.5-0.8,0.8l-0.4,0.4c-0.1,0.1-0.3,0.2-0.4,0.3c-0.5,0.4-1,0.8-1.3,1.3l-0.1,0.2
			c0,0.1,0,0.1-0.1,0.2c0,0.1-0.1,0.3-0.1,0.4c0,0.3,0,0.6,0,0.9c0.1,0.3,0.2,0.5,0.4,0.7c0.1,0.1,0.2,0.2,0.3,0.2
			c0.1,0.1,0.2,0.1,0.3,0.1l-0.5,0.2l1.3-2c0.1-0.2,0.2-0.3,0.3-0.5c0.1-0.2,0.3-0.3,0.4-0.4c0.3-0.3,0.6-0.5,1-0.8
			c-0.1,0.4-0.2,0.8-0.3,1.2c-0.1,0.2-0.1,0.4-0.2,0.6c-0.1,0.2-0.2,0.3-0.3,0.5l-1.3,2l-0.2,0.3l-0.3-0.1c-0.2-0.1-0.4-0.1-0.6-0.3
			c-0.2-0.1-0.4-0.3-0.5-0.5c-0.3-0.3-0.5-0.7-0.6-1.1c-0.1-0.4-0.1-0.8-0.1-1.2c0-0.2,0.1-0.4,0.1-0.6c0-0.1,0.1-0.2,0.1-0.3
			c0-0.1,0.1-0.1,0.1-0.3c0.4-0.7,1-1.2,1.6-1.6c0.2-0.1,0.3-0.2,0.5-0.3l0.6-0.1C101.1,152.5,101.5,152.4,101.9,152.4z"/>
	</g>
	<g>
		<path d="M100.3,163.8l-0.3,0.4l-0.2,0.4l-0.2,0.4c0,0.2-0.1,0.3-0.2,0.4c-0.1,0.3-0.2,0.5-0.3,0.8c-0.1,0.3-0.1,0.6-0.1,0.9
			c0,0.3,0.1,0.6,0.1,0.8c0.1,0.3,0.2,0.5,0.3,0.8l0.2,0.4l0.3,0.3l0.3,0.3l0.3,0.2l-0.6,0.1c0.5-0.6,0.9-1.4,1-2.2
			c0-0.2,0.1-0.4,0.1-0.6c0-0.1,0-0.2,0-0.3c0-0.1,0-0.2,0.1-0.3c0.1-0.4,0.1-0.9,0.1-1.3c0.3,0.4,0.6,0.8,0.7,1.3
			c0,0.1,0.1,0.2,0.1,0.4c0,0.1,0,0.2,0,0.4c0,0.2,0,0.5-0.1,0.7c-0.2,1-0.6,1.9-1.2,2.6l-0.3,0.3l-0.3-0.2l-0.5-0.3l-0.4-0.4
			l-0.4-0.4l-0.3-0.5c-0.2-0.3-0.3-0.7-0.4-1c-0.1-0.4-0.1-0.7-0.1-1.1c0-0.4,0-0.7,0.1-1.1c0.1-0.4,0.2-0.7,0.3-1
			c0.1-0.2,0.2-0.3,0.3-0.5l0.4-0.3c0.2-0.1,0.3-0.2,0.5-0.3L100.3,163.8z"/>
	</g>
</g>
<g>
	<path d="M157.9,126.3l1.1-2.5l0.5-1.3c0.2-0.4,0.3-0.8,0.6-1.3c0.2-0.4,0.6-0.9,1.2-0.9c0.1,0,0.3,0,0.4,0c0.1,0,0.3,0.1,0.4,0.2
		c0.2,0.1,0.4,0.4,0.6,0.6c0.3,0.4,0.4,0.9,0.5,1.4c0.1,0.5,0.1,1,0.1,1.4c0.1,1.8,0.1,3.7-0.1,5.5c-0.2,1.8-0.4,3.7-0.8,5.5
		l-0.9-0.3c1.1-2.2,1.2-4.9,0.3-7.3l0.9-0.4c2.4,3.9,3.8,8.4,3.9,13l-0.9-0.2l0.3-0.6l0.2-0.7l0.2-0.7l0.1-0.7l0-0.7l0-0.7l-0.1-0.7
		l-0.2-0.7l-0.2-0.7l-0.3-0.7l-0.3-0.6l-0.4-0.6l-0.4-0.6l-0.5-0.5l-0.5-0.5l-0.6-0.4l-2-1.3l2.3,0.4c3.6,0.6,6.9,2.6,9.1,5.5l2,2.6
		l-2.7-1.9l-8.4-5.9l-0.5-0.4l0.5-0.4c0.2-0.2,0.5-0.4,0.7-0.5c0.3-0.1,0.6-0.2,0.8-0.3c0.6-0.1,1.1-0.1,1.7,0
		c1.1,0.2,2,0.6,2.9,1.1c0.2,0.1,0.4,0.2,0.6,0.3c0.2,0.1,0.4,0.2,0.7,0.2c0.4,0.1,0.9,0.3,1.3,0.3c0.4,0.1,0.9,0,1.3-0.1
		c0.2-0.1,0.4-0.1,0.5-0.2c0.2-0.1,0.3-0.2,0.4-0.4l0.2,0.8l-5.4-2.2c-1.8-0.8-3.6-1.4-5.4-2.2l-2.4-1.1l2.5,0.1
		c1.9,0.1,3.9-0.7,5.2-2.1l0.2,0.5c-2.5,0-5-0.8-7-2.3c2.1,1.3,4.6,1.9,7,1.7l0.6,0l-0.4,0.5c-1.3,1.7-3.4,2.7-5.6,2.7l0.2-0.9
		c1.8,0.7,3.6,1.5,5.4,2.2l5.4,2.2l0.6,0.3l-0.4,0.5c-0.2,0.2-0.4,0.4-0.7,0.6c-0.3,0.2-0.5,0.3-0.8,0.4c-0.6,0.2-1.1,0.2-1.7,0.1
		c-0.5-0.1-1.1-0.2-1.5-0.4c-0.2-0.1-0.5-0.2-0.7-0.3c-0.3-0.1-0.5-0.2-0.7-0.3c-0.9-0.4-1.8-0.8-2.6-1c-0.4-0.1-0.9-0.1-1.3,0
		c-0.2,0-0.4,0.1-0.6,0.2c-0.2,0.1-0.3,0.2-0.5,0.3l-0.1-0.8l8.4,5.9l-0.7,0.7c-2.1-2.7-5.2-4.5-8.5-5.1l0.3-0.9l0.7,0.5l0.6,0.5
		l0.6,0.6l0.5,0.6l0.4,0.7l0.4,0.7l0.3,0.7l0.2,0.8l0.2,0.8l0.1,0.8l0,0.8l0,0.8l-0.1,0.8l-0.2,0.8l-0.3,0.8l-0.3,0.7l-0.9,1.9
		l0-2.2c-0.1-4.4-1.4-8.8-3.7-12.5l0.9-0.4c1,2.6,0.9,5.6-0.3,8.1l-1.7,3.4l0.7-3.7c0.4-1.8,0.6-3.6,0.8-5.4l0.2-2.7
		c0.1-0.9,0.1-1.8,0.1-2.7c0-0.5,0-0.9,0-1.3c-0.1-0.4-0.2-0.8-0.4-1.2c-0.2-0.3-0.5-0.6-0.8-0.5c-0.3,0-0.7,0.3-0.9,0.6
		c-0.2,0.4-0.4,0.8-0.7,1.2l-0.6,1.2L157.9,126.3z"/>
</g>
<g>
	<path d="M143.1,116.5c0.3,0.1,0.6,0.1,0.9,0.2c0.3,0,0.6,0,0.9,0c0.6-0.1,1.1-0.3,1.6-0.6c0.5-0.3,0.9-0.7,1.2-1.2
		c0.2-0.2,0.3-0.5,0.4-0.8c0.1-0.3,0.1-0.6,0.2-0.8l0.1,0l-5.2,9.5l-0.4-0.2c0.8-1.8,1.8-3.4,3.1-4.9c1.3-1.5,2.7-2.8,4.4-3.9
		l0.7-0.5l-0.3,0.8c-2.7,6.6-5.1,13.3-7.4,20.1l-0.5-0.2c2.6-5.2,4.8-10.6,6.6-16.1l0.6-1.7l-0.1,1.8c-0.1,3.7,0.1,7.3,0.7,10.9
		l-0.5-0.1c1.5-2.7,2-6,1.4-9l0.5,0c-1.2,5.5-1.7,11.2-1.5,16.8l-0.5,0c1.2-6.8,1.7-13.7,1.6-20.6l0.5,0c0.2,3.4,1.1,6.8,2.5,9.9
		l-0.5,0.1c-0.2-2.9-0.9-5.7-2.1-8.4l-0.2-0.5l0.5,0.1c2.2,0.5,4.1,2.1,5,4.1l0.2,0.4l-0.5-0.1c-1.4-0.3-2.6-1-3.5-2.1
		c-0.9-1-1.6-2.3-1.7-3.7l0-0.5l0.4,0.2c0.6,0.3,1.2,0.5,1.9,0.4l-0.1,0.4l-1.9-2.4l0.3-0.3c0.3,0.4,0.9,0.6,1.4,0.8
		c0.5,0.2,1.1,0.5,1.5,1l0.2,0.3l-0.4,0c-1.3-0.1-2.6-0.5-3.6-1.2c-0.5-0.3-1.1-0.7-1.5-1.1c-0.5-0.4-1-0.8-1.5-1.1
		c-0.3-0.1-0.6-0.3-0.9-0.3c-0.3,0-0.6,0-0.9,0.2c-0.6,0.3-1,0.7-1.5,1.2C144.5,114.3,143.8,115.4,143.1,116.5z M143.1,116.5
		c0.7-1.1,1.3-2.2,2.2-3.1c0.4-0.5,0.9-0.9,1.5-1.2c0.3-0.1,0.6-0.2,1-0.2c0.3,0,0.6,0.1,0.9,0.3c0.6,0.3,1.1,0.7,1.6,1.1
		c0.5,0.4,1,0.8,1.5,1.1c1.1,0.7,2.3,1,3.5,1.1l-0.1,0.3c-0.3-0.4-0.8-0.7-1.3-0.9c-0.5-0.2-1.1-0.4-1.6-0.9l0.3-0.3l2,2.4l0.3,0.3
		l-0.4,0.1c-0.8,0.1-1.5,0-2.2-0.4l0.4-0.2c0.2,2.6,2.3,4.8,4.8,5.3l-0.3,0.3c-0.9-1.9-2.7-3.4-4.7-3.8l0.3-0.3
		c1.2,2.7,2,5.6,2.1,8.6l0.1,1.3l-0.5-1.2c-1.5-3.2-2.4-6.6-2.6-10l0.5,0c0.1,6.9-0.4,13.9-1.6,20.7l-0.5,0
		c-0.1-5.7,0.4-11.4,1.5-17l0.3-1.3l0.2,1.3c0.6,3.2,0,6.5-1.5,9.3l-0.3,0.6l-0.1-0.7c-0.6-3.6-0.8-7.4-0.7-11l0.5,0.1
		c-1.8,5.6-4,11-6.7,16.2l-0.5-0.2c2.3-6.8,4.7-13.5,7.4-20.2l0.4,0.3c-1.6,1.1-3,2.3-4.3,3.8c-1.2,1.4-2.3,3-3.1,4.8l-0.4-0.2
		l5.4-9.4l0.2-0.3l0,0.4c0,0.3-0.1,0.6-0.2,0.9c-0.1,0.3-0.2,0.5-0.4,0.8c-0.3,0.5-0.8,0.9-1.3,1.2c-0.5,0.3-1.1,0.5-1.7,0.6
		c-0.3,0-0.6,0-0.9,0C143.7,116.6,143.4,116.6,143.1,116.5z"/>
</g>
<g>
	<path d="M152.2,108.4l-5.4-0.1l0-0.5c0.3,0,0.6,0,0.8-0.1c0.3-0.1,0.5-0.2,0.8-0.3c0.5-0.3,0.9-0.7,1.2-1.2c0.7-1,1.1-2.1,1.4-3.2
		c0.3-1.2,0.8-2.4,1.5-3.5c0.3-0.6,0.8-1.1,1.3-1.5c0.3-0.2,0.6-0.4,0.9-0.5c0.3-0.1,0.7-0.2,1-0.3l1.8-0.2l-1.5,1.1l-2.3,1.7
		l-1.9,1.4l1.1-2.1l5.1-9.4l1.4-2.5l-0.4,2.8l-0.6,3.9l-0.9-0.4c1-1.3,1.9-2.8,2.5-4.3l0.8-1.8l0.2,1.9l0.4,4.1l-0.8-0.4
		c0.7-0.5,1.3-1.4,1.4-2.2l0.9,0.3c-1.1,2.3-1.3,5.1-0.6,7.5l-1,0c0.7-1.9,0.6-4-0.1-5.8l0.9,0c-1.1,2.5-1.5,5.2-1.4,7.9l0.1,2.1
		l-1-1.8l-1.2-2.1l0.8,0.1c-1.3,1.5-1.8,3.7-1.2,5.5l0.5,1.8l-1.4-1.3l-1.9-1.8l0.8-0.2c-0.3,1.2-0.4,2.4-0.3,3.6
		c0.1,1.2,0.4,2.4,0.8,3.5l0.5,1.4l-1.2-0.9l-2.4-1.8l0.5-0.2c-0.3,1.4-0.4,2.8-0.3,4.3l0.1,1.3l-0.4-1.2l-0.9-2.4l0,0
		c-0.5-0.2-1.2,0.2-1.2,0.8c0-0.6,0.6-1.1,1.3-0.9l0,0l0,0l1.1,2.4l-0.3,0.1c-0.2-1.4-0.2-2.9,0-4.4l0.1-0.5l0.5,0.3l2.5,1.6
		l-0.7,0.5c-0.3-0.6-0.5-1.2-0.6-1.8c-0.2-0.6-0.2-1.3-0.3-1.9c-0.1-1.3,0-2.6,0.3-3.9l0.2-0.8l0.6,0.6l1.9,1.8l-0.8,0.5
		c-0.7-2.2-0.1-4.7,1.4-6.5l0.5-0.5l0.3,0.6l1.2,2.1L160,101c-0.1-2.9,0.4-5.7,1.5-8.4l0.5-1.1l0.4,1.1c0.8,2.1,0.9,4.4,0.1,6.5
		l-0.5,1.5l-0.4-1.5c-0.7-2.7-0.5-5.7,0.7-8.2l1.7-3.8l-0.8,4.1c-0.2,1.1-0.9,2.2-1.8,2.9l-0.7,0.5l-0.1-0.9l-0.4-4.1l1,0.1
		c-0.7,1.6-1.6,3.1-2.7,4.5l-1.2,1.5l0.3-1.9l0.6-3.9l0.9,0.3l-5.1,9.4l-0.7-0.6l2.3-1.7l0.4,0.9c-0.3,0-0.5,0.1-0.8,0.2
		c-0.2,0.1-0.5,0.2-0.7,0.4c-0.4,0.3-0.8,0.8-1.1,1.3c-0.6,1-1,2.1-1.4,3.3c-0.4,1.2-1,2.4-1.8,3.4c-0.4,0.5-0.9,0.9-1.5,1.3
		c-0.3,0.2-0.6,0.3-0.9,0.3c-0.3,0.1-0.7,0.1-1,0l0-0.5L152.2,108.4z"/>
</g>
<g>
	<path d="M161.1,119.7c-0.7-0.4-1.6-0.2-2.1,0.3l-0.2,0.3l0.1-0.4c0.4-2.5,1.7-4.8,3.5-6.6l0.5,0.6l-2.4,1.8l-1.4,1.1l0.7-1.7
		c0.5-1,1-2.1,1.5-3.1l1.5-3.1l0.9,0.4l-0.8,2l-1.8,4.4l0.9-4.7l0.2-1.1l0.3-1l0.4-1l0.5-0.9c0.4-0.6,0.8-1.2,1.2-1.7l1.2-1.6
		c0.8-1.1,1.6-2.2,2.2-3.3c0.2-0.3,0.3-0.6,0.4-0.9c0.1-0.3,0.2-0.6,0.3-0.9c0.1-0.3,0.1-0.6,0.1-0.9l0-0.9l0.9,0.3
		c-0.8,0.9-1.2,2-1.3,3.2c-0.1,1.2,0.2,2.4,0.8,3.3l-0.9,0.5c-0.8-1.7-1.4-3.6-1.5-5.5l1-0.1c0.4,2.7,1.2,5.3,2.6,7.6l2.3,4
		l-3.1-3.4l-2.8-3l0.8-0.1c-0.2,0.2-0.3,0.5-0.4,0.8c-0.1,0.3-0.2,0.5-0.3,0.8c-0.1,0.6-0.2,1.2-0.1,1.7c0.1,0.6,0.2,1.2,0.5,1.7
		c0.1,0.3,0.3,0.5,0.4,0.8c0.2,0.2,0.4,0.4,0.6,0.7l1.2,1.2l-1.7-0.4c-1.8-0.4-3.2-2-3.3-3.9l-0.2-3.7l1.2,3.5
		c0.9,2.6,2.4,5.1,4.3,7.1l-0.6,0.8l-4.9-3.4l0.8-0.4c0,1.5,0.6,2.9,1.3,4.1l0.7,1.2l-1.3-0.4l-2.1-0.7l0.5-0.4c0,1.5,0.4,3.1,1,4.5
		l0.7,1.5l-1-1.3l-1.3-1.6l0.2-0.2l2.3,3.1l-2.5-2.9l0.2-0.2l1.4,1.5l-0.4,0.2c-0.7-1.4-1.2-3-1.4-4.6l-0.1-0.6l0.6,0.2l2.2,0.6
		l-0.5,0.7c-1-1.3-1.5-3-1.5-4.6l0-1l0.8,0.6l4.9,3.4l-0.6,0.8c-2-2.1-3.6-4.7-4.5-7.5l1-0.2c0.1,1.4,1.2,2.7,2.5,3l-0.4,0.9
		c-0.3-0.2-0.5-0.5-0.7-0.8c-0.2-0.3-0.4-0.6-0.5-0.9c-0.3-0.6-0.5-1.3-0.6-2c-0.1-0.7,0-1.4,0.1-2.1c0.1-0.3,0.2-0.7,0.3-1
		c0.1-0.3,0.3-0.6,0.5-0.9l0.3-0.5l0.4,0.5l2.8,3l-0.8,0.6c-1.4-2.4-2.4-5.2-2.7-8l1-0.1c0.1,1.8,0.6,3.5,1.4,5.1l-0.9,0.5
		c-0.7-1.2-1-2.6-0.9-3.9c0.1-1.4,0.6-2.7,1.5-3.8l0.9-1l0,1.3l0,1.1c-0.1,0.4-0.1,0.7-0.2,1.1c-0.1,0.3-0.2,0.7-0.3,1
		c-0.1,0.3-0.3,0.7-0.4,1c-0.6,1.3-1.5,2.4-2.3,3.5l-1.2,1.6c-0.4,0.5-0.8,1.1-1.1,1.7l-0.5,0.9l-0.4,0.9l-0.3,0.9l-0.2,0.9l-1-0.2
		l0.8-2l0.9,0.4l-1.5,3.1c-0.5,1-1,2.1-1.5,3.1l-0.7-0.6l2.6-1.7l0.5,0.6c-1.8,1.5-3.2,3.7-3.8,6.1l-0.2-0.1
		C159.5,119.3,160.4,119.2,161.1,119.7z"/>
</g>
<g>
	<path d="M151.5,107.2c-0.1-0.1-0.2-0.1-0.3,0c-0.1,0.1-0.1,0.2-0.1,0.2c0,0.2,0,0.4,0.1,0.4c0,0,0,0,0.1,0l0,0c0,0,0,0,0,0l0,0
		l0.1,0c0,0,0.1,0,0.2-0.1c0.1-0.1,0.2-0.2,0.3-0.4c0.1-0.2,0.1-0.3,0.2-0.5c0.1-0.2,0.2-0.4,0.3-0.6c0.1-0.2,0.2-0.5,0.4-0.7
		c0.2-0.2,0.5-0.4,0.8-0.5l0.2-0.1l0.2,0.1c0.1,0,0.1,0,0.2,0.1l0.1,0.1c0,0,0.1,0.2,0.1,0.3c0,0.1-0.1,0.4-0.3,0.5
		c-0.1,0.1-0.1,0-0.2,0.1c-0.3,0-0.3,0-0.4-0.1c-0.2-0.1-0.4-0.2-0.5-0.4c-0.1-0.1-0.1-0.3-0.1-0.5c0-0.2,0-0.2,0.1-0.2l0.1-0.3
		c0.1-0.5,0.3-0.9,0.5-1.4c0.4-0.9,0.8-1.7,1.3-2.6l0.9,0.5l-1.3,2.7l-0.9-0.4l1.7-3.5l0.8-1.8c0.2-0.3,0.2-0.6,0.4-0.9l0.6-0.8
		l0.6,0.3c-0.3,0.5-0.7,1-1,1.5c0.1-0.6,0.3-1.2,0.5-1.8l0.6,0.3l-0.3,0.9c-0.1,0.3-0.3,0.6-0.4,0.9l-0.8,1.8l-1.7,3.5l-0.9-0.4
		l1.3-2.7l0.9,0.5c-0.5,0.8-0.9,1.6-1.2,2.4c-0.2,0.4-0.3,0.8-0.4,1.3l-0.1,0.3c0,0,0,0.2,0,0.1c0,0,0-0.1,0-0.1c0,0,0,0,0,0
		c0,0,0.1,0-0.1,0c-0.1,0,0,0-0.2,0.1c-0.2,0.1-0.3,0.4-0.2,0.4c0,0.1,0.1,0.3,0.1,0.3l0,0c0.1,0,0,0,0,0l0.4,0.1
		c-0.2,0-0.4,0.3-0.6,0.7l-0.3,0.6c-0.1,0.2-0.2,0.5-0.5,0.7c-0.2,0.2-0.5,0.4-0.8,0.4c-0.2,0-0.3,0-0.5,0l-0.1,0l0,0c0,0,0,0-0.1,0
		l-0.1,0c-0.1,0-0.2-0.1-0.2-0.2c-0.1-0.2-0.1-0.3-0.1-0.5c0-0.1,0.1-0.3,0.1-0.4c0.1-0.1,0.2-0.2,0.3-0.3
		C151.3,107,151.5,107.1,151.5,107.2z"/>
</g>
<g>
	<path d="M149.1,107.4c-0.1,0.3-0.1,0.5-0.2,0.8c-0.1,0.3-0.3,0.5-0.4,0.8c-0.1,0.1-0.2,0.2-0.3,0.3c-0.1,0.1-0.3,0.2-0.4,0.2
		c-0.3,0.1-0.5,0.3-0.8,0.4c-1.1,0.4-2.3,0.5-3.5,0l0.5-0.8c0.9,1,2.1,1.7,3.3,2.2c0.6,0.3,1.3,0.4,1.9,0.6c0.2,0,0.3,0.1,0.5,0.1
		l0.5,0.2c0.3,0.1,0.7,0.2,1,0.3c-0.4,0.1-0.7,0.2-1.1,0.3l-0.6,0.1c-0.2,0-0.4,0-0.6,0c-0.7-0.1-1.4-0.3-2.1-0.6
		c-1.4-0.6-2.6-1.4-3.7-2.5l-1.6-1.6l2.1,0.8c0.9,0.3,1.9,0.3,2.7,0c0.2-0.1,0.4-0.2,0.6-0.3c0.1-0.1,0.2-0.1,0.3-0.2
		c0.1-0.1,0.2-0.1,0.3-0.2c0.2-0.1,0.4-0.2,0.7-0.4C148.7,107.8,148.9,107.6,149.1,107.4z"/>
</g>
<g>
	<path d="M178.9,80.8c1.6,1.5,3.4,2.8,5.3,3.9c1.9,1,4,1.8,6.2,2.3c1.1,0.2,2.2,0.4,3.2,0.5c0.5,0,1.1,0.1,1.6,0.1l1.7,0
		c0.6,0.1,1.2,0.1,1.8,0.4c0.6,0.2,1.2,0.7,1.4,1.4c0.1,0.3,0.1,0.2,0.1,0.6c0,0.3-0.1,0.4-0.1,0.6c-0.2,0.4-0.4,0.6-0.7,0.8
		c-0.3,0.2-0.6,0.4-1.1,0.4c-0.4,0-1-0.3-1.1-0.7l-0.3-0.8l0.8,0.2l4.6,0.9l2.3,0.5c0.8,0.2,1.5,0.3,2.3,0.5
		c0.4,0.1,0.8,0.3,1.2,0.5c0.1,0.1,0.2,0.1,0.3,0.2c0.1,0,0.1,0,0.2,0.1l0.1,0.1c0.1,0.2,0.3,0.2,0.4,0.4c0.6,0.8,0.8,1.6,1,2.4
		c0.2,1.7,0,3.2,0.1,4.7c0.1,0.7,0.2,1.4,0.5,2.1c0.3,0.6,0.8,1.2,1.3,1.6c1.1,0.9,2.6,1.5,4,2.1c1.5,0.5,3,1.1,4.3,2.1
		c0.7,0.5,1.3,1.1,1.8,1.8c0.5,0.7,0.8,1.6,0.8,2.5l0,0.7l-0.7-0.2c-1.3-0.5-2.6-0.6-4-0.4c-1.4,0.1-2.7,0.6-4,1.1
		c-2.6,1-5.2,2.4-8,3.3c-1.4,0.5-2.9,0.7-4.4,0.8l-1.1-0.1c-0.4,0-0.7-0.1-1.1-0.2c-0.8-0.2-1.5-0.4-2.1-0.7
		c-1.4-0.6-2.6-1.5-3.7-2.5c-1.1-1-2.1-2.1-3-3.2c-1.8-2.3-3.4-4.6-5.4-6.6c-1-1-2.1-1.9-3.3-2.6c-1.2-0.7-2.5-1.3-3.8-1.9
		c-1.3-0.6-2.6-1.3-3.8-2.3c-0.3-0.2-0.6-0.5-0.8-0.8c-0.2-0.3-0.5-0.5-0.7-0.9c-0.5-0.6-0.8-1.3-1.1-2c-0.6-1.4-0.9-2.8-1.1-4.3
		c-0.2-1.5-0.2-2.9-0.3-4.3l0-0.5l0.5,0c1.7,0.1,3.3,0.3,4.9,0.7c0.8,0.2,1.6,0.4,2.4,0.7c0.8,0.3,1.6,0.6,2.3,0.9
		c0.8,0.3,1.5,0.7,2.2,1.1c0.7,0.4,1.4,0.9,2.1,1.3c0.7,0.5,1.3,1,1.9,1.6c0.6,0.6,1.1,1.2,1.6,1.9c2.1,2.5,4,5.1,6.2,7.5
		c0.6,0.6,1.1,1.1,1.8,1.7c0.6,0.5,1.2,1,1.9,1.5c0.7,0.5,1.3,0.9,2.1,1.2c0.7,0.3,1.6,0.4,2.4,0.3c-0.8,0.2-1.6,0.1-2.4-0.2
		c-0.8-0.3-1.5-0.7-2.2-1.1c-0.7-0.4-1.4-0.9-2-1.4c-0.6-0.5-1.3-1.1-1.9-1.6c-2.4-2.3-4.4-4.8-6.6-7.2c-0.5-0.6-1.1-1.2-1.6-1.8
		c-0.6-0.6-1.2-1.1-1.8-1.5c-1.3-0.9-2.7-1.7-4.1-2.3c-0.7-0.3-1.5-0.6-2.2-0.9c-0.8-0.3-1.5-0.5-2.3-0.7c-1.6-0.4-3.1-0.6-4.7-0.7
		l0.5-0.5c0,1.4,0.1,2.9,0.3,4.2c0.2,1.4,0.5,2.8,1,4c0.3,0.6,0.6,1.2,1,1.8c0.2,0.3,0.4,0.5,0.7,0.8c0.2,0.2,0.5,0.5,0.7,0.7
		c1,0.9,2.3,1.5,3.6,2.1c1.3,0.6,2.6,1.2,3.9,1.9c1.3,0.8,2.4,1.7,3.5,2.8c2.1,2.1,3.7,4.5,5.5,6.7c1.8,2.2,3.8,4.2,6.3,5.4
		c0.6,0.3,1.3,0.5,1.9,0.7c0.3,0.1,0.7,0.1,1,0.2l1,0.1c1.4,0,2.7-0.3,4.1-0.7c1.3-0.4,2.6-1,3.9-1.6c1.3-0.6,2.6-1.2,4-1.7
		c1.4-0.5,2.8-1,4.3-1.2c1.5-0.2,3,0,4.5,0.5l-0.7,0.5c0-1.4-0.9-2.6-2.1-3.5c-0.6-0.4-1.3-0.8-1.9-1.1c-0.7-0.3-1.4-0.6-2.1-0.9
		c-1.5-0.6-3-1.2-4.3-2.2c-0.6-0.5-1.2-1.2-1.6-2c-0.4-0.8-0.6-1.6-0.6-2.4c-0.1-1.6,0.1-3.2-0.1-4.7c-0.1-0.7-0.3-1.4-0.7-1.9
		c-0.1-0.1-0.3-0.3-0.4-0.4l-0.1-0.1c0,0,0,0-0.1,0c-0.1,0-0.1-0.1-0.2-0.1c-0.3-0.2-0.6-0.3-1-0.4c-0.7-0.2-1.5-0.3-2.2-0.5
		l-2.3-0.5l-4.6-0.9l0.6-0.7c0.1,0.1,0.1,0.1,0.2,0.1c0.1,0,0.3-0.1,0.5-0.2c0.2-0.1,0.3-0.3,0.3-0.4c0-0.1,0-0.2,0-0.2
		c0,0.1,0-0.3,0-0.2c-0.3-0.7-1.3-1.1-2.3-1.2l-1.6-0.1c-0.6,0-1.1-0.1-1.7-0.1c-1.1-0.1-2.2-0.3-3.3-0.6c-2.2-0.6-4.2-1.5-6.2-2.6
		C182.2,83.8,180.4,82.4,178.9,80.8z"/>
</g>
<g>
	<path d="M197.4,75.6c0,0,0.1,0,0.4,0c0.1,0,0.2,0,0.4,0c0.1,0,0.2,0,0.2,0c0.1,0,0.1,0.1,0.2,0.1c0.6,0.4,1.2,1,1.9,1.6
		c0.6,0.7,1.1,1.4,1.5,2c0,0.1,0.1,0.1,0.1,0.2c0,0.1,0,0.2,0,0.2c0,0.2,0,0.3,0,0.4c0,0.2,0,0.4,0,0.4s-0.1-0.1-0.3-0.2
		c-0.1-0.1-0.2-0.1-0.3-0.2c-0.1,0-0.1-0.1-0.2-0.1c-0.1,0-0.1-0.1-0.1-0.2c-0.3-0.5-0.8-1.2-1.4-1.8c-0.6-0.6-1.2-1.1-1.7-1.5
		c-0.1-0.1-0.1-0.1-0.2-0.1c0-0.1-0.1-0.1-0.1-0.2c-0.1-0.1-0.1-0.2-0.2-0.3C197.4,75.7,197.4,75.6,197.4,75.6z"/>
</g>
<g>
	<path d="M188.5,72.4c0,0,0-0.3,0.1-0.8c0-0.2,0.1-0.5,0.1-0.9c0-0.2,0-0.3,0.1-0.5c0-0.2,0.1-0.3,0.2-0.5c0.5-1.5,1.2-3.5,1.7-5.5
		c0.5-2,1-4.1,1.3-5.7c0-0.2,0-0.4,0.1-0.6c0.1-0.2,0.1-0.3,0.2-0.5c0.1-0.3,0.2-0.6,0.3-0.8c0.2-0.4,0.3-0.7,0.3-0.7s0,0.3,0.1,0.8
		c0,0.2,0,0.5,0.1,0.9c0,0.2,0,0.3,0,0.5c0,0.2-0.1,0.4-0.1,0.6c-0.3,1.6-0.7,3.7-1.3,5.7c-0.6,2.1-1.2,4.1-1.7,5.6
		c-0.1,0.2-0.1,0.4-0.2,0.5c-0.1,0.2-0.2,0.3-0.3,0.4c-0.2,0.3-0.3,0.5-0.5,0.7C188.6,72.2,188.5,72.4,188.5,72.4z"/>
</g>
<g>
	<path d="M190.4,76c0,0,0.1-0.1,0.4-0.2c0.1,0,0.3-0.1,0.4-0.2c0.1,0,0.1-0.1,0.2-0.1c0.1,0,0.2,0,0.3,0c0.7,0,1.7-0.2,2.5-0.7
		c0.9-0.4,1.6-1,2.1-1.6c0.1-0.2,0.3-0.2,0.4-0.3c0.1-0.1,0.3-0.1,0.4-0.2c0.2-0.1,0.3-0.2,0.3-0.2s0,0.1,0,0.4c0,0.1,0,0.3-0.1,0.5
		c0,0.1,0,0.2-0.1,0.3c0,0.1-0.1,0.1-0.2,0.2c-0.5,0.6-1.4,1.3-2.4,1.8c-1,0.5-2.1,0.7-2.9,0.8c-0.1,0-0.2,0-0.3,0
		c-0.1,0-0.2-0.1-0.3-0.1c-0.2-0.1-0.3-0.1-0.4-0.2C190.5,76.1,190.4,76,190.4,76z"/>
</g>
<g>
	<path d="M189.1,67.2c0,0-0.1-0.1-0.2-0.2c-0.1-0.1-0.1-0.1-0.2-0.2c0,0-0.1-0.1-0.1-0.1c0,0,0-0.1,0-0.1c-0.1-0.4-0.1-1-0.2-1.5
		c-0.1-0.6-0.2-1.1-0.2-1.5c0-0.1-0.1-0.1,0-0.2c0-0.1,0.1-0.1,0.1-0.2c0.1-0.1,0.1-0.2,0.2-0.2c0.1-0.1,0.2-0.2,0.2-0.2
		s0.1,0.1,0.2,0.2c0.1,0.1,0.1,0.1,0.2,0.2c0,0,0.1,0.1,0.1,0.1c0.1,0,0,0.1,0,0.1c0.1,0.4,0.1,1,0.2,1.5c0.1,0.6,0.2,1.1,0.2,1.5
		c0,0.1,0,0.1,0,0.2c0,0.1-0.1,0.1-0.1,0.2c-0.1,0.1-0.1,0.2-0.2,0.2C189.2,67.1,189.1,67.2,189.1,67.2z"/>
</g>
<g>
	<g>
		<path d="M223.4,157.6l0-1.1l0.1-1.1l0.2-1.1l0.2-1.1l0.3-1.1c0.1-0.3,0.3-0.7,0.5-1l0.6-0.9l0.6-0.9l0.7-0.9l0.7-0.8l0.8-0.8
			l0.9-0.7l0.9-0.6l1-0.6l1-0.5l1-0.4l0.5-0.2l0.1,0.6c0.1,0.8,0.2,1.5,0.3,2.3c0,0.8,0,1.6,0,2.3c-0.1,0.8-0.2,1.5-0.3,2.3
			c-0.1,0.8-0.3,1.5-0.5,2.3c-0.2,0.7-0.5,1.5-0.8,2.2c-0.3,0.7-0.7,1.4-1.1,2.1c-0.4,0.7-0.9,1.3-1.4,1.9c-0.3,0.3-0.5,0.6-0.8,0.9
			l-0.9,0.8l-0.3,0.3l-0.3-0.3c-0.6-0.6-1-1.4-1.2-2.2c-0.1-0.8,0-1.7,0.4-2.4l0.3,0.4c-0.5-0.1-1.1,0-1.6,0
			C224.5,157.6,223.9,157.6,223.4,157.6z M223.4,157.6c0.6,0,1.1-0.2,1.7-0.4c0.6-0.1,1.1-0.3,1.7-0.4l0.4,0l-0.1,0.5
			c-0.1,0.3-0.1,0.7-0.1,1c0,0.3,0.1,0.6,0.2,1c0.1,0.3,0.2,0.6,0.3,0.9c0.1,0.3,0.3,0.5,0.6,0.8l-0.7,0l0.8-0.7
			c0.2-0.3,0.5-0.5,0.7-0.8c0.5-0.6,0.9-1.2,1.3-1.8c0.4-0.6,0.7-1.3,1-2c0.3-0.7,0.5-1.4,0.8-2.1c0.2-0.7,0.4-1.4,0.5-2.1
			c0.1-0.7,0.2-1.5,0.3-2.2c0-0.7,0.1-1.5,0-2.2c0-0.7-0.1-1.5-0.2-2.2l0.7,0.4l-1,0.4l-0.9,0.4l-0.9,0.5l-0.8,0.6l-0.8,0.6
			l-0.7,0.7l-0.7,0.8l-0.6,0.8l-0.6,0.8l-0.5,0.9c-0.2,0.3-0.3,0.6-0.5,0.9l-0.5,0.9l-0.4,1l-0.3,1l-0.3,1L223.4,157.6z"/>
	</g>
	<g>
		<path d="M282.3,133.4l19.5-2.7l0.4-0.1l-0.1,0.4c-0.3,1.8-1.3,3.6-2.7,4.8l-0.3-0.7c3-0.4,6.1-0.8,9.1-1.1l0.8-0.1l-0.3,0.8
			c-0.6,1.7-1.9,3.2-3.5,4.1l-0.2-0.9c1.6,0.1,3.3-0.2,4.8-0.8l0.5-0.2l0.1,0.6l0.4,1.8l-0.6-0.4c2.1-0.3,4.2-0.4,6.2-0.2l0.3,0
			l0.1,0.2c0.3,0.5,0.2,1.2,0,1.6c-0.2,0.5-0.7,0.9-1.3,1l-2.5,0.5l2.2-1.4c1-0.6,2.1-0.9,3.3-0.8l0.6,0.1l-0.2,0.6l-1.8,5.5
			l-0.2-0.6c1.2,1,3,1,4.7,1l1.3,0c0.5,0,0.9,0.1,1.4,0.2c0.9,0.2,1.8,0.6,2.5,1.2c0.8,0.6,1.4,1.4,1.5,2.5c0.1,0.5-0.1,1.1-0.3,1.5
			c-0.2,0.5-0.6,0.9-1,1.2c-0.8,0.6-1.8,0.8-2.7,0.8c-0.9,0.1-1.8,0-2.7-0.1l0.4-0.9c1.1,0.8,1.8,2,2.2,3.3c0.4,1.3,0.4,2.7-0.1,4
			l-0.1,0.3l-0.4,0c-0.9,0-1.7-0.3-2.4-0.7l0.6-0.1c-0.9,1-1.3,2.5-0.9,3.8l0.5,1.7l-1.3-1.1c-1.3-1.1-2.3-2.5-2.9-4.1l0.9,0
			c-0.7,2-1.1,4.1-1,6.3l0,1.3l-0.9-0.9L314,164l0.8-0.2l-1.9,5.7l-0.2,0.7l-0.6-0.5c-1.6-1.5-2.7-3.4-3.1-5.5l0.9,0.2l-2.8,4.5
			l-0.6,0.9l-0.3-1l-2.2-6.8l0.9,0.1l-1.3,2.9l-0.3,0.6l-0.5-0.4c-3.2-2.8-5.3-6.8-5.9-11.1l0.9,0.2c-0.7,1.4-1.1,2.9-1.3,4.4
			l-0.1,0.7l-0.6-0.4c-3.9-2.3-7.6-5.1-10.8-8.4l-1.1-1.2l1.6,0.3c1.2,0.2,1.9,1.4,1.7,2.6l-0.2,1.1l-0.7-0.9l-3.7-5.3
			c-0.3-0.4-0.6-0.9-0.9-1.4c-0.3-0.5-0.5-1.1-0.6-1.8c0-0.2,0-0.3,0-0.5c0-0.1,0.1-0.4,0.2-0.5c0.2-0.3,0.4-0.6,0.7-0.8
			c0.3-0.2,0.6-0.4,1-0.4c0.4-0.1,0.8,0.1,1.1,0.3l-0.7,0.7c-3.4-3.1-5.8-7.3-6.8-11.8l-0.1-0.5l0.5-0.1c1-0.2,2,0.2,2.7,0.8
			c0.7,0.6,1.2,1.3,1.7,2.1c0.5,0.8,0.8,1.6,1.1,2.3c0.3,0.8,0.7,1.5,1.1,2.2c0.8,1.5,1.7,2.8,2.9,3.8c0.6,0.5,1.3,0.9,2.1,1.1
			c0.8,0.3,1.6,0.5,2.4,0.7c0.8,0.2,1.6,0.6,2.4,1c0.7,0.5,1.4,1,2,1.6c1.2,1.1,2.4,2.3,3.8,3.3c2.7,2,5.8,3.5,9,4.4
			c-3.3-0.8-6.4-2.2-9.2-4.1c-1.4-0.9-2.7-2.1-3.9-3.2c-0.6-0.5-1.3-1-2-1.4c-0.7-0.4-1.5-0.7-2.3-0.9c-0.8-0.2-1.6-0.4-2.5-0.6
			c-0.8-0.3-1.6-0.7-2.4-1.2c-1.4-1.1-2.5-2.5-3.3-4c-0.4-0.8-0.8-1.5-1.1-2.3c-0.4-0.8-0.7-1.5-1.1-2.2c-0.4-0.7-0.9-1.3-1.5-1.8
			c-0.6-0.5-1.3-0.7-1.9-0.6l0.4-0.6c1,4.3,3.3,8.3,6.5,11.3l-0.7,0.7c-0.1-0.1-0.2-0.1-0.4-0.1c-0.2,0-0.3,0.1-0.5,0.2
			c-0.2,0.1-0.3,0.3-0.4,0.5c0,0.1-0.1,0.1-0.1,0.3c0,0.1,0,0.2,0,0.3c0,0.9,0.7,1.7,1.3,2.6l3.7,5.3l-0.9,0.2
			c0.1-0.3,0-0.6-0.2-0.9c-0.2-0.3-0.4-0.5-0.7-0.5l0.4-0.8c3.1,3.2,6.7,6,10.6,8.3l-0.7,0.4c0.2-1.6,0.7-3.2,1.4-4.7l0.7-1.5
			l0.2,1.7c0.5,4,2.5,7.8,5.5,10.5l-0.8,0.2l1.3-2.9l0.5-1.2l0.4,1.2l2.2,6.8l-0.9-0.1l2.8-4.5l0.7-1.1l0.2,1.3
			c0.4,1.9,1.3,3.7,2.8,5l-0.8,0.2l1.9-5.7l0.3-0.8l0.6,0.6l2.4,2.6l-0.9,0.3c0-2.2,0.4-4.5,1.1-6.6l0.5-1.3l0.5,1.3
			c0.5,1.4,1.4,2.7,2.6,3.7l-0.8,0.5c-0.5-1.7-0.1-3.6,1.1-4.8l0.3-0.3l0.3,0.2c0.6,0.4,1.2,0.6,1.9,0.6l-0.5,0.3
			c0.4-1.1,0.4-2.3,0.1-3.4c-0.3-1.1-1-2.1-1.9-2.8l-1.5-1.2l1.9,0.3c0.8,0.1,1.7,0.2,2.5,0.1c0.8-0.1,1.6-0.2,2.2-0.6
			c0.3-0.2,0.6-0.5,0.7-0.7c0.2-0.4,0.2-0.7,0.2-1c-0.1-0.7-0.5-1.3-1.1-1.8c-0.6-0.5-1.4-0.8-2.2-1c-0.4-0.1-0.8-0.1-1.2-0.2
			l-1.3,0c-0.9,0-1.8,0-2.7-0.2c-0.9-0.1-1.8-0.5-2.6-1.1l-0.3-0.2l0.1-0.3l1.8-5.5l0.4,0.7c-0.9-0.1-1.9,0.2-2.7,0.7l-0.4-0.9
			c0.2,0,0.5-0.2,0.6-0.5c0.1-0.3,0.1-0.6,0-0.8l0.4,0.3c-2-0.2-4-0.1-6,0.2l-0.5,0.1l-0.1-0.5l-0.4-1.8l0.7,0.4
			c-1.7,0.6-3.4,0.9-5.2,0.8l-1.8-0.1l1.6-0.9c1.4-0.8,2.5-2.1,3-3.6l0.5,0.7c-3,0.4-6.1,0.7-9.1,1l-1.4,0.1l1.1-0.9
			c1.3-1.1,2.2-2.6,2.6-4.3l0.4,0.4L282.3,133.4z"/>
	</g>
	<g>
		<path d="M275.9,128.9c0,0-0.3-0.2-0.8-0.7c-0.5-0.4-1.3-1.1-2.3-2c-1-0.9-2-2-3.4-3.2c-1.3-1.2-3-2.1-5.1-2.3
			c-2.1-0.1-4.4,0.5-6.8,1.3c-0.6,0.2-1.2,0.4-1.8,0.7c-0.3,0.1-0.6,0.2-0.9,0.3l-0.9,0.4l-0.9,0.4c-0.3,0.2-0.5,0.4-0.8,0.6
			c-0.3,0.2-0.5,0.4-0.8,0.6l-0.7,0.7c-1.9,1.9-3.2,4.4-4.5,7c-1.3,2.6-2.7,5.3-4.8,7.5c-2.1,2.2-4.9,3.7-7.8,4.4l-1,0.3
			c-0.3,0.1-0.7,0.2-1,0.3c-0.6,0.2-1.3,0.5-1.9,0.8c-1.2,0.6-2.3,1.5-3.3,2.3c-2.1,1.8-3.8,3.8-5.4,5.7c-1.6,1.9-3.1,3.8-4.6,5.4
			c-0.8,0.8-1.5,1.6-2.2,2.3c-0.8,0.7-1.5,1.3-2.3,1.8c-1.5,1-3.1,1.6-4.4,1.7c-1.3,0.2-2.3-0.1-3-0.3c-0.6-0.2-1-0.4-1-0.4
			s0.4,0.1,1,0.3c0.7,0.1,1.7,0.3,2.9,0c1.2-0.2,2.6-0.9,4-2c0.7-0.5,1.4-1.2,2.1-1.9c0.7-0.7,1.5-1.4,2.2-2.2
			c1.5-1.6,3-3.5,4.6-5.4c1.6-1.9,3.4-4,5.5-5.8c1.1-0.9,2.2-1.8,3.5-2.5c0.7-0.3,1.3-0.6,2.1-0.9c0.4-0.1,0.7-0.2,1.1-0.3l1.1-0.3
			c2.7-0.6,5.4-2,7.3-4.1c2-2.1,3.3-4.7,4.6-7.3c1.3-2.6,2.6-5.2,4.7-7.3c2-2.1,4.7-3.1,7.1-3.9c2.4-0.8,4.8-1.4,7.1-1.3
			c0.3,0,0.6,0.1,0.9,0.1c0.3,0,0.6,0.1,0.8,0.2c0.3,0.1,0.5,0.1,0.8,0.2c0.2,0.1,0.5,0.2,0.7,0.4c0.5,0.2,0.9,0.6,1.3,0.9
			c0.4,0.3,0.7,0.6,1,1c1.3,1.3,2.2,2.5,3.1,3.5c0.9,0.9,1.6,1.7,2.1,2.1C275.7,128.6,275.9,128.9,275.9,128.9z"/>
	</g>
	<g>
		<path d="M256.8,119.4c0,0,0.1,0,0.2,0c0.1,0,0.4,0.1,0.6,0c0.2,0,0.5,0,0.9-0.1c0.2-0.1,0.3-0.1,0.5-0.2c0.2-0.1,0.4-0.1,0.6-0.2
			c1.6-0.5,3.3-2.1,4.8-3.9c1.6-1.8,3.5-3.5,5.4-4.1c0.2-0.1,0.5-0.1,0.7-0.1c0.2,0,0.5,0.1,0.6,0.1c0.4,0.1,0.7,0.2,1,0.3
			c0.3,0.1,0.4,0.3,0.5,0.4c0.1,0.1,0.2,0.1,0.2,0.1s-0.1,0-0.2,0c-0.1,0-0.3-0.1-0.6-0.1c-0.2,0-0.6,0-0.9,0.1
			c-0.2,0.1-0.3,0.1-0.5,0.1c-0.2,0.1-0.4,0-0.6,0.1c-0.8,0.2-1.7,0.7-2.5,1.4c-0.9,0.7-1.7,1.5-2.4,2.4c-1.6,1.8-3.4,3.6-5.3,4.2
			c-0.2,0.1-0.5,0.2-0.7,0.2c-0.2,0-0.5,0-0.6,0c-0.4-0.1-0.7-0.1-1-0.3c-0.3-0.1-0.4-0.2-0.6-0.3
			C256.9,119.5,256.8,119.4,256.8,119.4z"/>
	</g>
	<g>
		<path d="M237.6,143.8c0,0,0.2-0.1,0.6-0.4c0.2-0.1,0.4-0.2,0.7-0.4c0.1-0.1,0.3-0.1,0.4-0.2c0.2-0.1,0.3,0,0.5-0.1
			c0.7-0.1,1.6-0.1,2.5-0.1c0.9,0,1.9,0.2,2.9,0.4c0.5,0.1,1,0.3,1.4,0.4c0.5,0.2,0.9,0.4,1.3,0.5c0.8,0.4,1.6,0.9,2.2,1.3
			c0.1,0.1,0.3,0.2,0.4,0.3c0.1,0.1,0.2,0.2,0.3,0.3c0.2,0.2,0.4,0.3,0.6,0.4c0.4,0.1,0.6,0.1,0.6,0.1c0,0-0.2,0.2-0.7,0.3
			c-0.2,0-0.5,0-0.9,0c-0.2,0-0.3-0.1-0.5-0.1c-0.2,0-0.3-0.2-0.5-0.3c-0.3-0.2-0.6-0.4-0.9-0.6c-0.3-0.2-0.7-0.4-1.1-0.6
			c-0.4-0.2-0.8-0.4-1.2-0.5c-0.4-0.2-0.9-0.3-1.3-0.4c-0.9-0.2-1.8-0.4-2.7-0.4c-0.9,0-1.7,0-2.3,0.1c-0.2,0-0.3,0.1-0.5,0.1
			c-0.2,0-0.3,0-0.5,0c-0.3,0-0.5,0-0.8,0C237.8,143.8,237.6,143.8,237.6,143.8z"/>
	</g>
	<g>
		<path d="M263.5,116.2c0,0,0.1-0.1,0.3-0.3c0.1-0.1,0.1-0.2,0.2-0.3c0-0.1,0.1-0.1,0.1-0.2c0-0.1,0.1-0.1,0.1-0.2
			c0.4-0.5,0.6-1.5,0.8-2.5c0.1-0.5,0.2-1.1,0.3-1.6c0.2-0.5,0.4-1,0.7-1.4c0.1-0.2,0.4-0.3,0.6-0.4c0.2-0.1,0.4-0.1,0.5,0
			c0.3,0,0.4,0.1,0.4,0.1c0,0-0.1,0.1-0.3,0.2c-0.1,0.1-0.2,0.2-0.2,0.3c0,0.1-0.1,0.1-0.1,0.2c0,0.1-0.1,0.1-0.1,0.2
			c-0.2,0.2-0.4,0.6-0.5,1c-0.1,0.4-0.2,0.9-0.3,1.4c-0.1,1.1-0.4,2.2-0.9,3c-0.1,0.1-0.1,0.2-0.2,0.3c-0.1,0.1-0.2,0.1-0.3,0.1
			c-0.2,0.1-0.4,0.1-0.5,0.1c-0.2,0-0.2,0-0.3,0C263.6,116.2,263.5,116.2,263.5,116.2z"/>
	</g>
	<g>
		<path d="M244.6,142.7c0,0,0.1-0.1,0.2-0.3c0.1-0.1,0.1-0.2,0.3-0.3c0.1,0,0.1-0.1,0.2-0.2c0.1-0.1,0.1,0,0.2,0
			c0.6-0.1,1.4-0.2,2.2-0.2c0.8,0,1.6,0,2.2,0.1c0.1,0,0.1,0,0.2,0c0.1,0,0.1,0.1,0.2,0.1c0.1,0.1,0.2,0.2,0.3,0.2
			c0.1,0.1,0.2,0.2,0.2,0.2s-0.1,0-0.3,0.1c-0.1,0-0.2,0.1-0.3,0.1c-0.1,0-0.1,0.1-0.2,0.1c-0.1,0-0.1,0-0.2,0
			c-0.5-0.1-1.3-0.1-2-0.1c-0.7,0-1.5,0.1-2,0.2c-0.1,0-0.1,0.1-0.2,0c-0.1,0-0.1,0-0.2-0.1c-0.1,0-0.2-0.1-0.3-0.1
			C244.8,142.7,244.6,142.7,244.6,142.7z"/>
	</g>
	<g>
		<path d="M277.1,130.7c0,0-0.1,0-0.2,0c-0.1,0-0.2,0-0.2,0c0,0-0.1,0-0.1,0c0,0,0-0.1-0.1-0.1c-0.2-0.2-0.4-0.5-0.6-0.8
			s-0.4-0.6-0.6-0.8c0,0-0.1,0,0-0.1c0,0,0-0.1,0-0.1c0-0.1,0.1-0.2,0.1-0.2c0.1-0.1,0.1-0.2,0.1-0.2s0.1,0,0.2,0c0.1,0,0.1,0,0.2,0
			c0,0,0.1,0,0.1,0c0.1,0,0,0.1,0.1,0.1c0.2,0.2,0.4,0.5,0.6,0.8c0.2,0.3,0.4,0.6,0.6,0.8c0,0,0.1,0,0.1,0.1c0,0,0,0.1,0,0.1
			c0,0.1-0.1,0.2-0.1,0.2C277.1,130.6,277.1,130.7,277.1,130.7z"/>
	</g>
	<g>
		<path d="M227.4,140.4c-0.1-0.3-0.3-0.6-0.3-0.9c-0.1-0.3,0-0.6,0-0.9c0-0.3,0.1-0.6,0.1-0.9c0-0.3,0.1-0.6,0.2-0.9
			c0.3-1.2,0.7-2.4,1-3.6c0.4-1.2,0.8-2.4,1.1-3.6c0.2-0.6,0.3-1.2,0.4-1.8c0-0.3,0.1-0.6,0.1-0.9c0-0.3-0.1-0.5-0.1-0.8l-0.1-0.4
			l0.3-0.1c0.9-0.2,1.9,0.3,2.3,1.1l-0.7,0.4c-0.8-1.4-1.3-2.9-1.5-4.4l-0.1-1l0.9,0.5c0.8,0.4,1.5,1.1,1.9,2l-1,0.3l-0.5-7.2
			l-0.1-0.8l0.7,0.3c0.9,0.3,1.8,0.9,2.4,1.7l-0.8,0.5c-0.9-2.4-1.5-4.9-1.9-7.5l-0.1-0.7l0.7,0.1c0.8,0.2,1.6,0.7,2,1.4
			c0.5,0.7,0.7,1.5,0.7,2.3l-1-0.1c0.3-1.7,0.4-3.5,0.2-5.3l-0.1-1.3l1,0.8c0.8,0.7,1.3,1.6,1.4,2.6l-1,0.1l0.1-4.8l0-0.6l0.6,0.2
			c0.8,0.2,1.4,0.8,1.7,1.5c0.3,0.7,0.5,1.5,0.2,2.3l-0.7,2.2l-0.2-2.3c-0.2-1.7,0-3.5,0.4-5.1l0.2-0.6l0.6,0.3
			c0.9,0.5,1.4,1.5,1.3,2.5l-1,0c0-1.5,0.5-2.9,1.5-4.1l0.9-1.1L241,103c-0.1,1.8,0.1,3.6,0.6,5.4l-0.8-0.2l1.5-1.5l0.7-0.7l0.2,1
			c0.4,2.4,0.1,4.9-0.8,7.2l-1.1,2.7l0.1-2.9c0-0.8,0.5-1.5,1.1-2c0.6-0.5,1.4-0.7,2.2-0.4l0.4,0.1l-0.1,0.4
			c-0.6,2.8-1.8,5.5-3.7,7.6l-0.7-0.7l1.8-1.4l0.9-0.7l-0.1,1.1c-0.1,2.9-1.6,5.7-3.9,7.5l-0.6-0.8l2.2-1.3l0.9-0.5l-0.1,1
			c-0.4,3.3-2.1,6.3-4.8,8.3l-0.8,0.5l0-0.9c0-1,0.4-2.1,1.3-2.8l1.8-1.5l-1,2.1c-0.2,0.4-0.3,0.7-0.6,1c-0.2,0.3-0.4,0.6-0.6,0.9
			c-0.4,0.6-0.9,1.2-1.4,1.8c-0.9,1.1-1.9,2.3-2.9,3.4c-1,1.1-1.9,2.2-2.8,3.4c-0.4,0.6-0.8,1.2-1.2,1.8c-0.2,0.3-0.3,0.6-0.5,0.9
			c-0.2,0.3-0.2,0.6-0.3,0.9l-0.8,2.6l-0.2-2.6l-0.1-1c0-0.3,0.1-0.6,0.1-0.9c0-0.3,0.1-0.6,0.2-0.9c0.1-0.3,0.1-0.6,0.3-0.9
			l0.3-0.8l0.4-0.8c0.2-0.5,0.5-1,0.8-1.6c1.2-2,2.5-3.9,3.9-5.8c1.3-1.9,2.7-3.7,3.7-5.8c0.5-1,1.1-2,1.5-3.1
			c0.4-1.1,0.7-2.2,0.6-3.4c0.2,1.2-0.1,2.3-0.5,3.4c-0.4,1.1-0.9,2.1-1.3,3.2c-0.2,0.5-0.5,1.1-0.8,1.6c-0.3,0.5-0.6,1-0.9,1.5
			c-0.6,1-1.2,2-1.8,2.9c-1.2,1.9-2.5,3.9-3.5,5.9c-0.2,0.5-0.5,1-0.7,1.5c-0.2,0.5-0.5,1-0.6,1.5c-0.1,0.3-0.2,0.5-0.2,0.8
			c-0.1,0.3-0.2,0.5-0.2,0.8c0,0.3-0.1,0.5-0.1,0.8l0.1,0.8l-1,0c0.1-0.4,0.2-0.8,0.4-1.2c0.1-0.4,0.3-0.7,0.5-1
			c0.4-0.7,0.8-1.3,1.3-1.9c0.9-1.2,1.9-2.3,2.8-3.5c1-1.1,1.9-2.2,2.9-3.4c0.5-0.6,0.9-1.1,1.3-1.7c0.2-0.3,0.4-0.6,0.6-0.9
			c0.2-0.3,0.3-0.6,0.5-0.9l0.8,0.6c-0.6,0.4-0.9,1.2-0.9,1.9l-0.8-0.4c2.4-1.7,4-4.6,4.4-7.6l0.7,0.5l-2.2,1.3l-0.6-0.8
			c2.1-1.6,3.4-4.1,3.5-6.7l0.8,0.4l-1.8,1.4l-0.7-0.7c1.8-2,3-4.5,3.5-7.2l0.3,0.6c-0.4-0.1-0.9,0-1.3,0.3
			c-0.4,0.3-0.7,0.8-0.7,1.2l-1-0.2c0.9-2.1,1.1-4.4,0.7-6.6l0.8,0.3l-1.5,1.5l-0.6,0.6l-0.2-0.8c-0.5-1.9-0.7-3.8-0.6-5.7l0.9,0.4
			c-0.8,0.9-1.3,2.2-1.3,3.4l-1,0c0.1-0.6-0.3-1.3-0.8-1.5l0.7-0.3c-0.4,1.6-0.5,3.2-0.4,4.8l-1-0.1c0.2-0.5,0.1-1-0.1-1.5
			c-0.2-0.5-0.6-0.8-1.1-1l0.6-0.5l-0.1,4.8l-1,0.1c-0.1-0.8-0.5-1.5-1.1-2l0.8-0.4c0.2,1.9,0.1,3.8-0.2,5.6l-1-0.1
			c0.1-1.2-0.8-2.4-1.9-2.6l0.6-0.6c0.3,2.5,0.9,4.9,1.8,7.3l1,2.7l-1.9-2.2c-0.5-0.6-1.2-1.1-2-1.4l0.7-0.5l0.5,7.1l0.2,2.5
			l-1.1-2.2c-0.3-0.6-0.8-1.2-1.5-1.5l0.7-0.5c0.2,1.4,0.6,2.9,1.2,4.2l-0.7,0.4c-0.2-0.5-0.9-0.9-1.5-0.8l0.3-0.5
			c0.1,0.4,0.2,0.7,0.1,1c0,0.3,0,0.7-0.1,1c-0.1,0.6-0.3,1.2-0.5,1.9c-0.4,1.2-0.8,2.4-1.2,3.6c-0.4,1.2-0.9,2.3-1.2,3.5
			c-0.1,0.3-0.2,0.6-0.2,0.9c0,0.3-0.1,0.6-0.2,0.9c0,0.3-0.1,0.6,0,0.9C227.1,139.9,227.3,140.1,227.4,140.4z"/>
	</g>
</g>
<g>
	<path d="M101.5,112.3l-0.7-0.9l-0.6-1c-0.4-0.6-0.7-1.3-1.1-2c-0.4-0.7-0.5-1.4-0.7-2.1c-0.2-0.7-0.4-1.5-0.5-2.2
		c-0.6-3-0.8-6-0.4-9l0-0.3l0.3-0.1c0.2-0.1,0.5-0.2,0.7-0.2c0.3,0,0.5-0.1,0.8-0.1c0.5,0,1,0.1,1.5,0.3c0.2,0.1,0.5,0.2,0.7,0.3
		c0.2,0.1,0.4,0.3,0.6,0.4c0.4,0.3,0.7,0.7,1,1c0.3,0.4,0.5,0.8,0.8,1.2c0.2,0.4,0.4,0.8,0.5,1.3c0.3,0.9,0.5,1.8,0.4,2.8
		c0,0.9-0.1,1.8-0.3,2.7c-0.1,0.9-0.3,1.7-0.4,2.6c0,0.4-0.2,0.8-0.2,1.3c-0.1,0.4-0.1,0.9-0.1,1.3c0,0.4,0,0.9,0,1.3
		c0,0.4,0.1,0.9,0.2,1.3c-0.2-0.4-0.4-0.8-0.5-1.2c-0.1-0.4-0.2-0.9-0.3-1.3c-0.1-0.4-0.1-0.9-0.1-1.4c0-0.5,0-0.9,0-1.4l0.4-2.6
		c0.1-0.9,0.2-1.7,0.3-2.6c0-0.8-0.1-1.6-0.4-2.4c-0.1-0.4-0.3-0.8-0.5-1.1c-0.2-0.4-0.4-0.7-0.7-1c-0.2-0.3-0.5-0.6-0.8-0.9
		c-0.1-0.1-0.3-0.3-0.5-0.3c-0.2-0.1-0.3-0.2-0.5-0.3c-0.3-0.2-0.7-0.2-1.1-0.2c-0.2,0-0.4,0-0.5,0.1l-0.5,0.2l0.3-0.4
		c-0.3,2.9-0.2,5.8,0.4,8.7c0.2,0.7,0.3,1.4,0.5,2.1l0.3,1c0.1,0.3,0.3,0.7,0.3,1c0.2,0.7,0.4,1.4,0.7,2.1
		C100.9,110.9,101.2,111.6,101.5,112.3z"/>
</g>
<g>
	<path d="M120.7,107.1c0,0,0.3,0.4,0.8,1.2c0.2,0.4,0.6,0.8,0.9,1.4c0.2,0.3,0.4,0.5,0.6,0.8c0.2,0.3,0.4,0.6,0.6,0.9
		c0.8,1.3,1.9,2.8,3.2,4.3c0.6,0.7,1.3,1.5,2,2.2c0.4,0.3,0.7,0.7,1.1,1c0.3,0.3,0.6,0.3,0.8,0.2c0.2-0.2,0.5-0.6,0.5-1
		c0-0.2,0.1-0.5,0.1-0.6l-0.1-0.8c-0.1-0.9-0.4-1.9-0.9-2.7c-0.9-1.7-2.2-2.9-3.5-3.6c-0.3-0.2-0.7-0.3-0.9-0.5
		c-0.3-0.2-0.6-0.3-0.9-0.4c-0.3-0.1-0.6-0.2-0.8-0.3c-0.3-0.1-0.5-0.2-0.7-0.2c-0.4-0.1-0.8-0.1-1-0.2c-0.2,0-0.4,0-0.4,0
		s0.1,0,0.4-0.1c0.2,0,0.6-0.1,1.1-0.1c0.2,0,0.5,0,0.8,0c0.3,0,0.6,0,0.9,0.1c0.7,0.1,1.4,0.3,2.1,0.8c1.4,0.8,2.9,2.2,3.9,4
		c0.5,0.9,0.8,1.9,1,3.1l0.1,0.8c0,0.3,0,0.6-0.1,0.9c-0.1,0.6-0.3,1.2-1,1.7c-0.3,0.2-0.8,0.3-1.1,0.2c-0.4-0.1-0.7-0.3-0.9-0.5
		c-0.4-0.4-0.8-0.7-1.2-1.1c-0.7-0.7-1.4-1.5-2.1-2.3c-1.3-1.5-2.4-3-3.2-4.4c-0.2-0.3-0.4-0.6-0.6-1c-0.1-0.3-0.3-0.7-0.4-0.9
		c-0.3-0.6-0.5-1.1-0.6-1.6c-0.2-0.4-0.3-0.8-0.3-1C120.8,107.2,120.7,107.1,120.7,107.1z"/>
</g>
<g>
	<path d="M111.1,112.2l0.6,1.9c0.2,0.6,0.4,1.3,0.7,1.9c0.1,0.3,0.2,0.6,0.3,0.9c0.1,0.3,0.2,0.6,0.3,0.9c0.2,0.6,0.5,1.2,0.8,1.7
		c0.2,0.3,0.3,0.6,0.5,0.8c0.2,0.3,0.4,0.5,0.6,0.7c0.4,0.5,0.9,0.9,1.4,1.3c1,0.8,2.2,1.3,3.4,1.4l-0.5,0.4
		c0.3-1.2,0.2-2.4-0.1-3.6c-0.2-0.6-0.5-1.2-0.8-1.7c-0.2-0.3-0.3-0.5-0.5-0.8c-0.2-0.2-0.4-0.5-0.6-0.7c-0.5-0.5-0.9-0.9-1.4-1.3
		c-0.3-0.2-0.5-0.4-0.8-0.6c-0.3-0.2-0.6-0.3-0.8-0.5c-1-0.8-2.2-1.4-3.3-2.1c1.3,0.3,2.6,0.7,3.8,1.2c0.3,0.1,0.6,0.4,0.9,0.5
		c0.3,0.2,0.6,0.4,0.8,0.6c0.3,0.2,0.5,0.4,0.8,0.7c0.3,0.2,0.5,0.5,0.7,0.7c0.2,0.3,0.5,0.5,0.7,0.8c0.2,0.3,0.4,0.6,0.6,0.9
		c0.4,0.6,0.6,1.2,0.9,1.9c0.4,1.3,0.5,2.8,0.2,4.2l-0.1,0.4l-0.4,0c-1.4-0.2-2.8-0.8-3.9-1.6c-0.6-0.4-1.1-0.9-1.5-1.4
		c-0.2-0.3-0.4-0.5-0.6-0.8c-0.2-0.3-0.4-0.6-0.6-0.9c-0.3-0.6-0.6-1.2-0.9-1.9c-0.1-0.3-0.2-0.6-0.3-1c-0.1-0.3-0.2-0.6-0.3-1
		C111.2,114.8,111.1,113.5,111.1,112.2z"/>
</g>
<g>
	<path d="M115.2,108.6c0,0-0.1,0-0.4,0.1c-0.2,0-0.6,0.1-1,0c-0.5,0-1-0.2-1.6-0.5c-0.3-0.2-0.6-0.3-0.9-0.5
		c-0.3-0.2-0.5-0.5-0.8-0.8c-1-1.2-1.8-2.8-2.5-4.5c-0.3-0.9-0.6-1.8-0.7-2.9c-0.1-1,0-2.3,0.9-3.1c0.2-0.2,0.5-0.4,0.7-0.5
		c0.3-0.2,0.6-0.2,0.8-0.3c0.6-0.1,1.1-0.1,1.7,0.1c0.5,0.1,1,0.4,1.5,0.7c0.4,0.3,0.8,0.7,1.1,1.1c0.6,0.8,1,1.7,1.3,2.5
		c0.3,0.8,0.5,1.6,0.7,2.4c0.1,0.4,0.2,0.7,0.2,1.1c0,0.3,0,0.7,0,1c0,0.6-0.1,1.1-0.1,1.6c-0.1,0.9-0.2,1.4-0.2,1.4s0-0.5-0.1-1.4
		c-0.1-0.4-0.1-0.9-0.3-1.5c-0.1-0.3-0.1-0.6-0.2-0.9c-0.1-0.3-0.1-0.7-0.2-1c-0.1-0.7-0.4-1.4-0.6-2.2c-0.3-0.8-0.6-1.6-1.1-2.2
		c-0.3-0.3-0.5-0.6-0.9-0.9c-0.3-0.2-0.7-0.4-1.1-0.5c-0.4-0.1-0.8-0.1-1.2,0c-0.2,0-0.4,0.1-0.5,0.2c-0.2,0.1-0.3,0.2-0.5,0.4
		c-0.6,0.6-0.7,1.5-0.6,2.3c0.1,0.9,0.4,1.8,0.7,2.6c0.7,1.7,1.5,3.2,2.4,4.3c0.2,0.3,0.5,0.5,0.7,0.7c0.2,0.2,0.4,0.5,0.6,0.6
		c0.4,0.4,0.8,0.6,1.2,0.8c0.4,0.1,0.7,0.2,0.9,0.3C115,108.6,115.2,108.6,115.2,108.6z"/>
</g>
<g>
	<path d="M106.5,114.2c0,0,0,0.5,0,1.4c0,0.4,0,1,0,1.6c0,0.3,0,0.6,0,1c0,0.3,0,0.7,0,1.1c0,1.5,0.2,3.2,1,4.7
		c0.4,0.7,1,1.5,1.8,1.9c0.8,0.4,1.7,0.6,2.6,0.4c0.9-0.1,1.6-0.7,1.7-1.5c0.2-0.8-0.2-1.6-0.6-2.4c-0.5-0.7-1.1-1.5-1.6-2.1
		c-0.6-0.6-1.1-1.2-1.7-1.7c-0.3-0.3-0.6-0.4-0.8-0.7c-0.2-0.2-0.5-0.5-0.7-0.7c-0.4-0.4-0.8-0.8-1.2-1c-0.7-0.6-1.1-0.9-1.1-0.9
		s0.5,0.2,1.3,0.5c0.4,0.2,0.9,0.4,1.4,0.7c0.3,0.2,0.6,0.3,0.9,0.5c0.3,0.2,0.6,0.5,0.9,0.7c0.6,0.5,1.2,1.1,1.8,1.8
		c0.6,0.7,1.2,1.4,1.7,2.2c0.5,0.8,1,1.9,0.8,3.1c-0.1,0.6-0.4,1.1-0.9,1.5c-0.5,0.4-1,0.6-1.6,0.7c-1.1,0.2-2.3,0-3.2-0.6
		c-1-0.6-1.7-1.4-2.2-2.3c-1-1.8-1.2-3.7-1.2-5.2c0-0.4,0-0.8,0-1.1c0.1-0.3,0.1-0.7,0.2-1c0.1-0.6,0.3-1.1,0.4-1.6
		C106.3,114.7,106.5,114.2,106.5,114.2z"/>
</g>
<g>
	<path d="M116.5,109.6c0.1,0.7,0.2,1.4,0.4,2l0.3,1c0.1,0.3,0.2,0.6,0.3,0.9c0.1,0.3,0.2,0.6,0.3,0.9l0.4,0.9l0.4,0.9l0.5,0.9
		l0.5,0.8l0.6,0.8l0.6,0.7l0.7,0.7l0.7,0.6l0.8,0.6l0.8,0.5l0.9,0.5l-0.7,0.3l0.2-0.9l0.1-0.9l0-0.9l-0.1-0.9l-0.2-0.9l-0.3-0.9
		l-0.3-0.9l-0.4-0.8l-0.5-0.8l-0.5-0.8l-0.6-0.7c-0.2-0.2-0.5-0.4-0.7-0.7l-0.7-0.7l-0.7-0.6l-0.8-0.5l-0.9-0.5l1,0.2l0.9,0.3
		l0.9,0.5l0.9,0.5c0.3,0.2,0.5,0.5,0.7,0.7l0.7,0.8l0.6,0.8l0.5,0.9l0.4,0.9l0.4,1l0.3,1l0.2,1l0.1,1l0,1l-0.1,1l-0.2,1l-0.1,0.6
		l-0.6-0.3l-0.9-0.5l-0.9-0.6l-0.8-0.6l-0.8-0.7l-0.7-0.7l-0.7-0.8l-0.6-0.8l-0.6-0.9l-0.5-0.9l-0.4-0.9l-0.4-1
		c-0.1-0.3-0.2-0.7-0.3-1c-0.1-0.3-0.1-0.7-0.1-1l0-1l0-1L116.5,109.6z"/>
</g>
<g>
	<path d="M123.2,103.6c0,0-0.1-1-0.5-2.7c-0.2-0.8-0.5-1.8-1-2.9c-0.3-0.5-0.6-1.1-1-1.6c-0.4-0.5-0.8-1-1.4-1.3
		c-0.5-0.3-1.2-0.3-1.8,0c-0.6,0.3-1,0.9-1.2,1.7c-0.3,1.4,0.5,3.1,1.8,4.3c1.3,1.2,3,2.1,4.8,2.3c1.9,0.2,3.9,0.2,5.9,0.3
		c2,0.1,4,0.2,6,0.5c1,0.2,2,0.4,2.9,0.7c0.5,0.1,0.9,0.4,1.4,0.6c0.5,0.3,1,0.5,1.3,1.2c0.1,0.3,0.1,0.7,0,1
		c-0.1,0.3-0.3,0.6-0.5,0.8c-0.1,0.1-0.2,0.2-0.3,0.3l-0.3,0.2c-0.2,0.1-0.4,0.3-0.6,0.4c-0.8,0.5-1.7,0.8-2.6,1
		c-1.8,0.3-3.6-0.1-5-0.9c-1.4-0.8-2.3-1.8-3.2-2.6c-0.9-0.8-1.7-1.5-2.4-2c-0.7-0.5-1.3-0.9-1.7-1c-0.2-0.1-0.4-0.1-0.5-0.2
		C123.3,103.7,123.2,103.6,123.2,103.6z M123.2,103.6c0,0,0.1,0,0.2,0c0.1,0,0.3,0,0.5,0.1c0.5,0.1,1.1,0.4,1.9,0.8
		c0.8,0.4,1.7,1,2.7,1.7c0.5,0.4,1,0.7,1.6,1.1c0.6,0.4,1.1,0.8,1.7,1.2c1.2,0.7,2.7,1,4.3,0.8c0.8-0.1,1.6-0.4,2.3-0.8
		c0.2-0.1,0.3-0.2,0.5-0.4l0.3-0.2c0.1,0,0.1-0.1,0.2-0.2c0.3-0.3,0.3-0.5,0.3-0.7c-0.2-0.5-1.2-0.9-2.1-1.2
		c-0.9-0.3-1.8-0.5-2.8-0.6c-1.9-0.3-3.9-0.4-5.9-0.5c-2-0.1-4-0.1-6-0.3c-2.1-0.3-4-1.2-5.4-2.6c-0.7-0.7-1.3-1.5-1.7-2.4
		c-0.4-0.9-0.6-1.9-0.4-2.9c0.2-1,0.8-1.8,1.7-2.3c0.9-0.5,1.9-0.4,2.7,0c1.6,0.8,2.2,2.3,2.6,3.4c0.4,1.2,0.6,2.3,0.7,3.1
		c0.1,0.9,0.1,1.6,0.1,2C123.2,103.4,123.2,103.6,123.2,103.6z"/>
</g>
<g>
	<path d="M103.6,112.1c0,0,0.2,0.1,0.1,0.4c0,0.1-0.1,0.3-0.2,0.4c-0.2,0.2-0.4,0.2-0.7,0.2c-0.5-0.1-1-0.4-1.6-0.6
		c-0.3-0.1-0.6-0.2-1-0.3c-0.3-0.1-0.7-0.3-1-0.4c-1.4-0.5-3.2-1-5.1-1.1c-1-0.1-2-0.1-3,0c-1,0-1.6,0.5-1.2,1.2
		c0.2,0.3,0.6,0.7,1,0.9c0.4,0.3,0.8,0.4,1.3,0.6c1,0.3,1.9,0.5,2.9,0.7c1.9,0.3,3.7,0.5,5.3,0.4c0.4,0,0.8-0.1,1.1,0
		c0.4,0,0.7,0,1,0c0.6,0,1.2,0,1.7,0c0.9,0,1.5-0.1,1.5-0.1s-0.1,0-0.4,0.1c-0.2,0.1-0.6,0.2-1,0.3c-0.5,0.1-1,0.3-1.6,0.4
		c-0.3,0.1-0.7,0.1-1,0.2c-0.4,0.1-0.8,0-1.2,0.1c-1.6,0-3.5-0.1-5.5-0.4c-1-0.2-2-0.4-3-0.7c-0.5-0.1-1.1-0.3-1.6-0.7
		c-0.5-0.3-0.9-0.7-1.3-1.3c-0.2-0.3-0.3-0.6-0.3-1c0-0.2,0.1-0.4,0.2-0.6c0.1-0.2,0.1-0.2,0.3-0.4c0.6-0.5,1.2-0.6,1.8-0.6
		c1.1-0.1,2.1-0.1,3.1,0c2,0.2,3.9,0.6,5.4,1.2c0.4,0.2,0.8,0.3,1.1,0.4c0.3,0.2,0.6,0.4,0.9,0.6c0.5,0.3,1,0.7,1.4,0.9
		c0.4,0.2,0.7,0,0.8-0.3C103.8,112.3,103.6,112.1,103.6,112.1z"/>
</g>
<g>
	<path d="M127,101.5c0.1-0.3,0.2-0.6,0.4-0.9c0.2-0.3,0.3-0.6,0.5-0.9c0.2-0.3,0.4-0.5,0.7-0.8c0.2-0.3,0.5-0.5,0.8-0.7
		c0.3-0.2,0.6-0.4,0.9-0.5c0.3-0.1,0.6-0.3,1-0.4c0.7-0.2,1.4-0.3,2.1-0.4l0.5,0l0.5,0c0.4,0,0.7,0.1,1,0.2c0.7,0.2,1.4,0.4,2,0.7
		c1.2,0.6,2.3,1.6,3.1,2.8l0.3,0.5l-0.6,0.2c-1.9,0.7-4,1.2-6,1.4c-0.5,0-1,0.1-1.5,0.1c-0.3,0-0.5,0-0.8,0c-0.3,0-0.5-0.1-0.8-0.1
		c-1-0.2-2-0.4-3-0.8c1,0,2,0,3-0.1c0.2,0,0.5-0.1,0.7-0.1c0.2,0,0.5,0,0.7,0c0.5,0,1,0,1.5-0.1c2-0.2,3.9-0.6,5.8-1.3l-0.2,0.7
		c-0.7-1-1.6-1.9-2.7-2.4c-0.6-0.3-1.1-0.5-1.7-0.6c-0.3-0.1-0.6-0.1-0.9-0.1l-0.4,0l-0.5,0c-1.2,0.1-2.4,0.5-3.5,1.1
		c-0.2,0.2-0.5,0.3-0.8,0.5c-0.3,0.2-0.5,0.3-0.8,0.5c-0.2,0.2-0.5,0.4-0.7,0.7C127.4,101,127.2,101.2,127,101.5z"/>
</g>
<g>
	<path d="M109.4,106.5c0.2,0.1,0.4,0.3,0.6,0.6c0.1,0.1,0.2,0.2,0.2,0.4c0,0.1,0.1,0.3,0.1,0.4c0,0.1,0.1,0.3,0.1,0.4
		c0,0.1,0,0.3-0.1,0.4c0,0.3-0.1,0.5-0.2,0.8c-0.4,1-0.9,1.9-1.8,2.7l-0.5,0.4l-0.3-0.5l-2.1-3.8l-1.1-1.9c0-0.1-0.1-0.2-0.1-0.2
		c0-0.1-0.1-0.2-0.1-0.3l-0.1-0.5c-0.1-0.4-0.2-0.7-0.3-1.1c0.3,0.3,0.5,0.5,0.8,0.8l0.4,0.4c0.1,0.1,0.1,0.1,0.2,0.2
		c0,0.1,0.1,0.2,0.1,0.2l1.1,1.9l2.1,3.8l-0.8-0.1c0.7-0.6,1.2-1.4,1.5-2.2c0.1-0.2,0.1-0.4,0.2-0.6c0-0.1,0-0.2,0-0.3
		c0-0.1,0.1-0.2,0.1-0.3c0.1-0.2,0.1-0.4,0.1-0.7C109.6,107,109.5,106.7,109.4,106.5z"/>
</g>
<g>
	<path d="M104.7,99.1c0,0,0-0.1,0-0.2c0-0.1,0-0.2,0-0.3c0-0.1,0-0.1,0.1-0.2c0-0.1,0.1,0,0.1-0.1c0.3-0.2,0.9-0.3,1.3-0.1
		c0.5,0.1,0.9,0.4,1.1,0.7c0,0,0.1,0.1,0.1,0.1c0,0.1,0,0.1,0,0.2c0,0.1-0.1,0.2-0.1,0.2c-0.1,0.1-0.1,0.2-0.1,0.2s-0.1,0-0.2-0.1
		c-0.1,0-0.1,0-0.2,0c0,0-0.1,0-0.1,0c0,0,0,0,0,0c-0.1-0.1-0.3-0.3-0.6-0.3c-0.3-0.1-0.5,0-0.6,0.1c0,0,0,0-0.1,0
		c0,0-0.1,0-0.1-0.1c-0.1,0-0.1-0.1-0.2-0.1C104.8,99.2,104.7,99.1,104.7,99.1z"/>
</g>
<g>
	<path d="M93.4,117c0,0,0.7-0.1,1.8-0.5c0.6-0.2,1.2-0.4,2-0.7c0.4-0.2,0.8-0.3,1.2-0.5c0.4-0.2,0.9-0.3,1.3-0.5
		c1.8-0.7,4-1.5,6.3-2.4c2.3-0.9,4.7-1.9,7.1-3.1c2.4-1.1,4.7-2.4,6.7-3.7c2.1-1.3,4-2.6,5.1-4.1c0.3-0.4,0.5-0.8,0.7-1.1
		c0.2-0.4,0.4-0.7,0.5-1.1c0.2-0.7,0.3-1.4,0.2-2c-0.1-0.6-0.2-1-0.3-1.3c-0.1-0.3-0.2-0.4-0.2-0.4s0.1,0.1,0.3,0.4
		c0.2,0.3,0.4,0.7,0.6,1.3c0.2,0.6,0.2,1.3,0.1,2.2c-0.1,0.4-0.2,0.9-0.3,1.3c-0.2,0.5-0.5,0.9-0.8,1.3c-1.2,1.7-3.3,3.1-5.3,4.4
		c-2.1,1.3-4.4,2.7-6.8,3.8c-2.4,1.2-4.9,2.2-7.2,3.1c-2.3,0.9-4.5,1.7-6.3,2.4c-0.5,0.2-0.9,0.4-1.4,0.5c-0.4,0.1-0.9,0.2-1.3,0.3
		c-0.8,0.2-1.5,0.3-2.1,0.3c-0.6,0.1-1,0.1-1.4,0.1C93.6,117,93.4,117,93.4,117z"/>
</g>
<g>
	<path d="M218.3,125.7c-1.3,1.6-2.7,3.1-4.3,4.5c-0.4,0.3-0.8,0.7-1.2,1l-1.3,0.8c-0.9,0.5-1.8,1.1-2.7,1.5l-0.2-0.9
		c0,0,0.1,0-0.1,0c0,0,0,0-0.1,0.1c-0.1,0.1-0.1,0.2-0.1,0.2c0,0.1,0,0.1,0,0.2c0,0.1,0,0.1,0,0.1c0,0.1,0.1,0.1,0.1,0.1
		c0,0-0.1-0.1-0.2-0.1l-0.5-0.3l-0.5-0.3c-0.1-0.1-0.2-0.1-0.3-0.2c0,0-0.1-0.1-0.1-0.2c0,0-0.1-0.2-0.1-0.4c0-0.1,0.1-0.2,0.1-0.3
		c0.1-0.1,0.1-0.1,0.1-0.1c0.3-0.1,0.3-0.1,0.4-0.1l0.2,0l0.2,0.2c0.2,0.2,0.3,0.4,0.4,0.7c0.1,0.2,0.1,0.5,0.1,0.8
		c0,0.5-0.1,1-0.3,1.4c-0.2,0.4-0.5,0.8-0.8,1.1c-0.3,0.3-0.7,0.6-1.2,0.8c-0.2,0.1-0.4,0.1-0.6,0.2c-0.2,0-0.4,0.1-0.7,0.1
		c-0.4,0-0.9,0-1.3,0c-0.9-0.1-1.7-0.3-2.5-0.5l-0.3-0.1l-0.1-0.3l-1-3.8l-0.5-1.9l0-0.1c0-0.2,0-0.1,0-0.2c0-0.1,0-0.1,0-0.3
		c0-0.3,0.2-0.7,0.5-0.8c0.6-0.2,0.9-0.1,1.3,0c0.7,0.2,1.3,0.4,1.9,0.7c0.3,0.2,0.6,0.3,0.9,0.5c0.3,0.1,0.6,0.4,0.8,0.7
		c1,1.1,1.4,2.4,1.8,3.6l0.2,0.6l-0.6,0.1c-0.1,0-0.4,0.2-0.6,0.5c-0.2,0.2-0.4,0.5-0.6,0.8c-0.4,0.6-0.7,1.3-0.9,1.9
		c-0.1,0.3-0.2,0.7-0.2,1c0,0.1,0,0.3,0,0.4c0,0,0.1,0.1,0.1,0.2c0,0.1,0.1,0.1,0.1,0.2c0.4,0.5,1,0.7,1.6,0.7
		c0.3,0,0.6-0.1,0.9-0.2c0.2-0.1,0.5-0.3,0.7-0.5c0.5-0.5,0.7-1.1,0.8-1.8c0-0.3,0-0.7-0.1-1c-0.1-0.3-0.3-0.6-0.6-0.8
		c-0.3-0.2-0.6-0.2-1-0.1c-0.3,0.1-0.6,0.4-0.6,0.8c-0.1-0.4,0.2-0.8,0.5-1c0.3-0.2,0.8-0.3,1.2-0.1c0.4,0.2,0.7,0.5,0.9,0.9
		c0.2,0.4,0.3,0.8,0.3,1.2c0,0.8-0.2,1.7-0.7,2.4c-0.3,0.4-0.6,0.7-1,0.9c-0.4,0.2-0.9,0.3-1.3,0.3c-0.9,0-1.8-0.4-2.4-1.1
		c-0.1-0.1-0.2-0.2-0.2-0.3c-0.1-0.1-0.1-0.1-0.1-0.3c-0.1-0.3-0.1-0.5-0.1-0.8c0-0.5,0.1-0.8,0.3-1.2c0.3-0.8,0.6-1.5,1-2.2
		c0.2-0.3,0.4-0.7,0.7-1c0.3-0.3,0.6-0.6,1.2-0.8l-0.4,0.6c-0.4-1.2-0.8-2.4-1.6-3.2c-0.2-0.2-0.4-0.4-0.7-0.5
		c-0.2-0.1-0.5-0.3-0.8-0.4c-0.6-0.3-1.1-0.5-1.7-0.6c-0.3-0.1-0.6-0.1-0.6,0c0,0,0-0.1,0-0.1c0-0.1,0,0.1,0,0.2c0,0,0,0.1,0,0.1
		l0,0.1l0.5,1.9l1,3.8l-0.4-0.4c0.8,0.2,1.6,0.4,2.3,0.5c0.4,0,0.8,0,1.1,0c0.2,0,0.4,0,0.5-0.1c0.2,0,0.3-0.1,0.5-0.2
		c0.1-0.1,0.3-0.1,0.4-0.2c0.1-0.1,0.3-0.2,0.4-0.3c0.3-0.2,0.5-0.5,0.6-0.8c0.1-0.3,0.2-0.6,0.2-1c0-0.2,0-0.3-0.1-0.5
		c-0.1-0.1-0.1-0.3-0.2-0.4l0.4,0.2c0,0-0.1,0,0.1,0c0,0,0,0,0.1-0.1c0.1-0.1,0.1-0.2,0.1-0.2c0-0.1,0-0.1,0-0.2c0-0.1,0-0.1,0-0.1
		c0-0.1-0.1-0.1-0.1-0.1c0,0,0.1,0.1,0.2,0.1l0.5,0.3l0.5,0.3c0.1,0.1,0.2,0.1,0.3,0.2c0,0,0.1,0.1,0.1,0.2c0,0,0.1,0.2,0.1,0.4
		c0,0.1-0.1,0.2-0.1,0.3c-0.1,0.1-0.1,0.1-0.1,0.1c-0.3,0.1-0.3,0.1-0.4,0.1l-2.9,0.4l2.7-1.4c0.9-0.5,1.8-0.9,2.6-1.5
		c0.4-0.3,0.8-0.5,1.3-0.8c0.4-0.3,0.9-0.5,1.3-0.8C215.2,128.4,216.7,127.1,218.3,125.7z"/>
</g>
<g>
	<path d="M195.3,134.3c-0.2,0.7-0.2,1.5-0.2,2.2c0,0.4,0.1,0.7,0.1,1.1c0.1,0.4,0.2,0.7,0.3,1l-0.4-0.4c0.4,0.1,0.9,0,1.4-0.2
		c0.5-0.1,1-0.3,1.5-0.4c0.5-0.1,1.1-0.3,1.8-0.1c0.7,0.1,1.3,0.7,1.5,1.2c0.3,0.6,0.4,1.2,0.3,1.8c0,0.6-0.2,1.1-0.4,1.7
		c-0.2,0.5-0.4,1-0.6,1.5c-0.2,0.5-0.5,1-0.9,1.5c-0.1,0.1-0.1,0.1-0.2,0.2l0,0l-0.1,0l-0.1,0.1c-0.1,0.1-0.2,0.1-0.4,0.2
		c-0.3,0.2-0.6,0.3-1.1,0.2c-0.5-0.1-0.8-0.5-0.9-0.8c-0.1-0.3-0.2-0.6-0.3-0.9c-0.2-1.1-0.1-2.2,0-3.3c0.1-1.1,0.2-2.1,0.4-3.2
		l0.2-1.6c0-0.3,0.1-0.5,0.1-0.8c0-0.1,0-0.3,0-0.4c0-0.1,0-0.3,0.1-0.2l0.5,0.4l-1.7-0.2l-0.4,0l0.1-0.3c0,0,0.1-0.1,0.1-0.1
		c0,0,0-0.1,0-0.1c-0.1-0.1-0.2-0.2-0.4-0.2c-0.2,0-0.3-0.1-0.5-0.1c0,0-0.1,0-0.1,0c0,0,0,0,0,0
		C195.2,134.2,195.3,134.3,195.3,134.3z M195.3,134.3c-0.1,0-0.2,0-0.3-0.1c0,0-0.1-0.1-0.1-0.1c0,0,0-0.1,0.1-0.1
		c0,0,0.1-0.1,0.1-0.1c0.2-0.1,0.4-0.1,0.6-0.1c0.2,0,0.4,0,0.6,0.2c0.1,0.1,0.2,0.2,0.2,0.4c0,0.2,0,0.3,0,0.4l-0.2-0.4l1.7-0.2
		l0.4,0l0.1,0.4c0.1,0.3,0.1,0.4,0,0.5c0,0.1,0,0.3,0,0.4l-0.1,0.8l-0.2,1.6c-0.2,1-0.3,2.1-0.4,3.1c-0.1,1-0.2,2.1,0,3
		c0.1,0.5,0.3,0.9,0.4,0.9c0.1,0,0.2,0,0.4-0.1c0.1,0,0.2-0.1,0.3-0.2l0.1-0.1c0,0,0.1,0,0,0l0,0c0,0,0.1-0.1,0.1-0.1
		c0.3-0.3,0.5-0.7,0.7-1.2c0.2-0.5,0.4-1,0.6-1.4c0.2-0.5,0.3-0.9,0.3-1.4c0-0.2,0-0.5,0-0.7c0-0.1,0-0.2-0.1-0.3
		c0-0.1-0.1-0.2-0.1-0.3c-0.2-0.4-0.4-0.6-0.8-0.7c-0.4-0.1-0.9,0-1.3,0.1c-0.5,0.1-1,0.3-1.5,0.4c-0.5,0.1-1.1,0.3-1.8,0.2l-0.3,0
		l-0.1-0.4c-0.1-0.4-0.1-0.8-0.1-1.2c0-0.4,0.1-0.8,0.1-1.2C194.7,135.7,195,135,195.3,134.3z"/>
</g>
<g>
	<path d="M193.3,139.8c-0.3,0.3-0.4,0.6-0.5,0.9c-0.1,0.1-0.1,0.3-0.2,0.4c-0.1,0.1-0.1,0.2-0.2,0.4c-0.2,0.5-0.2,1.1-0.1,1.6
		l-0.5-0.3l3.3,0l-0.5,0.3c0.1-0.3,0.2-0.7,0.2-1c0-0.4,0-0.7-0.1-1.1l0.5,0.4c-0.2-0.1-0.5-0.2-0.7-0.3c-0.2-0.1-0.5-0.2-0.7-0.3
		c0.2-0.1,0.5-0.2,0.7-0.2c0.2-0.1,0.5-0.1,0.7-0.2l0.4-0.1l0.1,0.5c0.1,0.5,0.2,0.9,0.1,1.4c0,0.5-0.1,0.9-0.3,1.3l-0.1,0.3l-0.4,0
		l-3.3,0l-0.3,0l-0.1-0.3c-0.3-0.8-0.2-1.6,0.1-2.3c0.1-0.2,0.2-0.4,0.3-0.5c0.1-0.2,0.3-0.3,0.5-0.4
		C192.6,139.9,193,139.8,193.3,139.8z"/>
</g>
<g>
	<path d="M197.8,136.3c0,0,0-0.1-0.1-0.2c0-0.1-0.1-0.1-0.1-0.2c0,0,0-0.1,0-0.1c0,0,0.1,0,0.1-0.1c0.2-0.2,0.5-0.4,0.8-0.6
		c0.3-0.1,0.7-0.2,1-0.2c0,0,0.1,0,0.1,0c0,0,0.1,0.1,0.1,0.1c0.1,0.1,0.1,0.1,0.1,0.2c0.1,0.1,0.1,0.2,0.1,0.2s0,0.1-0.1,0.2
		c0,0.1-0.1,0.1-0.1,0.2c0,0,0,0.1-0.1,0.1c0,0,0,0-0.1,0c-0.2,0-0.4,0.1-0.6,0.1c-0.2,0.1-0.4,0.2-0.5,0.4c0,0,0,0.1,0,0
		c0,0-0.1,0-0.1,0c-0.1,0-0.2,0-0.2,0C197.9,136.3,197.8,136.3,197.8,136.3z"/>
</g>
<g>
	<path d="M200.8,140.3c0,0,0.1-0.1,0.2-0.2c0.1,0,0.1-0.1,0.1-0.2c0,0,0-0.1,0.1-0.1c0,0,0,0,0.1,0c0.2,0,0.4,0,0.6-0.1
		c0.2-0.1,0.3-0.2,0.4-0.3c0,0,0,0,0,0c0,0,0.1,0,0.1,0c0.1,0,0.2,0,0.2,0c0.1,0,0.2-0.1,0.2-0.1s0.1,0,0.2,0.1
		c0,0.1,0.1,0.1,0.1,0.2c0,0,0,0.1,0.1,0.1c0,0.1,0,0.1,0,0.1c-0.2,0.3-0.5,0.6-0.9,0.8c-0.4,0.2-0.8,0.2-1.1,0.2c0,0-0.1,0-0.1,0
		c0,0-0.1-0.1-0.1-0.1c-0.1-0.1-0.1-0.2-0.1-0.2C200.9,140.3,200.8,140.3,200.8,140.3z"/>
</g>
<g>
	<path d="M202.2,141.5c0,0,0,0.1,0,0.2c0,0.1,0,0.3,0.1,0.4c0,0.1,0.1,0.3,0.2,0.5c0.1,0.1,0.1,0.2,0.2,0.2c0.1,0.1,0.1,0.2,0.2,0.3
		c0.3,0.4,0.8,0.8,1.4,1c0.3,0.1,0.6,0.2,1,0.1c0.3,0,0.6-0.1,0.9-0.2l0.3-0.1l0.2-0.1c0.1-0.1,0.3-0.2,0.4-0.3
		c0.2-0.2,0.4-0.5,0.6-0.8c0.3-0.6,0.5-1.2,0.6-1.8c0-0.1,0-0.3,0.1-0.4c0-0.1,0.1-0.2,0.1-0.4c0.1-0.2,0.1-0.4,0.2-0.6
		c0.1-0.4,0.1-0.6,0.1-0.6s0.1,0.2,0.2,0.5c0.1,0.2,0.1,0.4,0.2,0.7c0,0.1,0.1,0.3,0.1,0.4c0,0.2,0,0.3,0,0.5
		c-0.1,0.6-0.3,1.4-0.7,2.1c-0.2,0.4-0.4,0.7-0.7,1c-0.2,0.2-0.3,0.3-0.5,0.5l-0.3,0.2l-0.3,0.1c-0.9,0.5-1.9,0.5-2.7,0.2
		c-0.8-0.3-1.5-0.8-1.9-1.3c-0.1-0.1-0.2-0.3-0.3-0.4c0-0.2,0-0.3-0.1-0.5c0-0.3,0-0.5,0.1-0.8c0.1-0.2,0.2-0.3,0.2-0.4
		C202.1,141.5,202.2,141.5,202.2,141.5z"/>
</g>
</svg>
