<?xml version="1.0" encoding="utf-8"?>
<!-- Generator: Adobe Illustrator 19.2.1, SVG Export Plug-In . SVG Version: 6.00 Build 0)  -->
<svg version="1.1" id="Laag_1" xmlns="http://www.w3.org/2000/svg" xmlns:xlink="http://www.w3.org/1999/xlink" x="0px" y="0px"
	 viewBox="0 0 217.6 174.5" style="enable-background:new 0 0 217.6 174.5;" xml:space="preserve">
<style type="text/css">
	.st0{fill:none;stroke:#000000;stroke-miterlimit:10;}
</style>
<g>
	<g>
		<path d="M55.4,127.3c-2,0-4-0.2-5.9-0.5c-2-0.3-3.9-0.7-5.9-1.1c-1-0.2-1.9-0.4-2.9-0.7c-1-0.2-1.9-0.5-2.9-0.8
			c-1.9-0.6-3.8-1.2-5.7-1.9l-1.3-0.5l1.3-0.5l11.6-4.2c1.9-0.7,3.9-1.3,5.9-1.8c2-0.5,4.1-0.8,6.1-1c4.1-0.5,8.2-0.8,12.3-1
			c4.1-0.2,8.2-0.2,12.4,0.2c2.1,0.2,4.1,0.5,6.2,1.1c1,0.3,2,0.7,2.9,1.4c0.4,0.3,0.9,0.8,1.1,1.4l0.2,0.4c0,0.1,0,0.3,0.1,0.5
			c0,0.2,0,0.3,0,0.5l-0.1,0.4c0,0.2-0.2,0.6-0.3,0.9c-0.2,0.2-0.3,0.5-0.5,0.7c-0.4,0.4-0.8,0.8-1.3,1.1c-0.9,0.6-1.9,1-2.8,1.4
			c-1.9,0.8-4,1.3-6,1.8c-2,0.5-4,0.8-6.1,1.1c-1,0.1-2,0.3-3.1,0.4c-1,0.1-2.1,0.2-3.1,0.2c-2.1,0.1-4.1,0.2-6.2,0.3L55.4,127.3z
			 M55.4,127.3c4.1-0.1,8.2-0.6,12.2-1.2l3-0.5c1-0.1,2-0.3,3-0.4c2-0.3,4-0.7,6-1.1c2-0.4,4-1,5.8-1.7c0.9-0.4,1.8-0.8,2.6-1.3
			c0.8-0.5,1.5-1.2,1.7-2c0.2-0.9-0.2-1.6-0.9-2.2c-0.7-0.6-1.7-0.9-2.6-1.2c-1.9-0.6-3.9-0.8-6-1c-4.1-0.4-8.1-0.4-12.2-0.2
			c-4.1,0.2-8.2,0.5-12.2,1c-2,0.3-4,0.5-6,1c-2,0.5-3.9,1.1-5.8,1.8l-11.6,4.2l0-0.9c1.9,0.7,3.7,1.3,5.6,1.9l2.8,0.8
			c0.9,0.3,1.9,0.6,2.8,0.9c1.9,0.6,3.8,1.1,5.7,1.6C51.4,127,53.4,127.3,55.4,127.3z"/>
	</g>
	<g>
		<path d="M125.1,143.5c0,0-0.9-0.5-2.4-1.3c-0.8-0.4-1.7-0.9-2.7-1.5c-0.5-0.3-1.1-0.6-1.7-0.9c-0.6-0.3-1.2-0.8-1.8-1.1
			c-2.5-1.6-5.4-3.5-8.5-5.4c-0.8-0.5-1.6-1.1-2.3-1.9c-0.7-0.8-1.1-1.8-1.5-2.6c-0.8-1.7-2.3-2.8-4.1-3.5c-1.8-0.8-3.7-1.3-5.4-2.5
			c-1.7-1.1-2.9-2.7-4-4.2c-1.1-1.5-2.1-2.9-3.3-4c-1.2-1.1-2.6-1.9-3.8-2.6c-0.6-0.4-1.3-0.7-1.8-1.1c-0.6-0.4-1.1-0.8-1.5-1.3
			c-0.9-0.9-1.5-1.8-1.9-2.6c-0.4-0.8-0.5-1.5-0.5-2c0-0.2,0-0.4,0-0.5c0-0.1,0-0.2,0-0.2s0,0.1,0,0.2c0,0.1,0,0.3,0.1,0.5
			c0.1,0.4,0.3,1.1,0.8,1.8c0.4,0.7,1.1,1.5,2.1,2.2c0.5,0.3,1,0.7,1.6,1c0.6,0.3,1.2,0.7,1.8,1.1c1.3,0.7,2.7,1.5,4,2.7
			c1.3,1.2,2.3,2.7,3.4,4.2c1.1,1.5,2.2,3,3.8,4c1.5,1,3.4,1.6,5.3,2.4c0.9,0.4,1.8,0.9,2.7,1.5c0.8,0.7,1.5,1.5,1.9,2.4
			c0.4,0.9,0.8,1.7,1.4,2.4c0.6,0.7,1.3,1.2,2.1,1.7c3.1,2,6,3.9,8.5,5.4c0.6,0.4,1.2,0.8,1.8,1.1c0.5,0.4,1.1,0.8,1.5,1.1
			c1,0.7,1.8,1.3,2.5,1.8C124.3,142.9,125.1,143.5,125.1,143.5z"/>
	</g>
	<g>
		<path d="M92.8,108.7c0,0-0.1-1.7-0.3-4.6c-0.1-1.5-0.2-3.2-0.2-5.3c0-1,0-2.1,0-3.3c0.1-1.1,0.2-2.3,0.3-3.6
			c0.2-2.5,0.6-5.2,1.2-8c0.3-1.4,0.6-2.9,0.9-4.3c0.2-0.7,0.4-1.5,0.7-2.2c0.3-0.7,0.6-1.5,1.2-2.2c0.3-0.3,0.7-0.7,1.4-0.7
			c0.6,0,1.1,0.3,1.4,0.6c0.7,0.6,1.1,1.3,1.6,2c0.9,1.4,1.6,2.9,2.2,4.5c1.2,3.1,2,6.4,2.8,9.6c0.8,3.3,1.4,6.6,1.6,9.9
			c0.2,3.3-0.1,6.6-0.6,9.7c-0.2,1.6-0.5,3.1-0.8,4.6c-0.2,0.7-0.3,1.5-0.5,2.2c-0.1,0.4-0.1,0.7-0.3,1.1l-0.1,0.5l-0.2,0.6
			c-0.6,1.4-1.6,2.6-2.7,3.4c-1.2,0.8-2.6,1.4-4,1.1c-0.4-0.1-0.7-0.2-1-0.4c-0.1-0.1-0.1-0.1-0.3-0.2l-0.2-0.1l-0.3-0.3
			c-0.5-0.5-0.8-1-1.1-1.6c-0.5-1.1-0.9-2.1-1.1-3.1c-0.5-2-0.6-3.8-0.8-5.2C92.9,110.4,92.8,108.7,92.8,108.7z M92.8,108.7
			c0,0,0,0.4,0.1,1.2c0.1,0.8,0.2,1.9,0.5,3.4c0.3,1.4,0.6,3.2,1.3,5.1c0.3,1,0.7,1.9,1.3,2.9c0.3,0.5,0.6,0.9,0.9,1.3
			c0.1,0.1,0.2,0.2,0.3,0.3l0.2,0.1l0.1,0.1c0.2,0.1,0.5,0.2,0.7,0.3c1,0.2,2.3-0.2,3.3-0.9c1-0.7,1.9-1.8,2.4-3l0.2-0.4l0.1-0.5
			c0.1-0.3,0.2-0.7,0.2-1c0.2-0.7,0.3-1.4,0.5-2.2c0.3-1.5,0.6-3,0.8-4.5c0.5-3.1,0.8-6.3,0.6-9.5c-0.2-3.2-0.8-6.5-1.5-9.7
			c-0.8-3.2-1.6-6.5-2.7-9.5c-0.6-1.5-1.2-3-2.1-4.3c-0.4-0.6-0.9-1.3-1.4-1.8c-0.6-0.5-0.9-0.5-1.3,0c-0.4,0.5-0.7,1.2-1,1.9
			c-0.3,0.7-0.5,1.4-0.6,2.1c-0.4,1.5-0.7,2.9-0.9,4.3c-0.5,2.8-0.9,5.5-1.1,8c-0.2,2.5-0.4,4.8-0.6,6.8c-0.2,2-0.3,3.8-0.3,5.3
			c0,1.5,0,2.6,0,3.4C92.8,108.3,92.8,108.7,92.8,108.7z"/>
	</g>
	<g>
		<path d="M69.2,153.3c0,0,0.1,0,0.3,0c0.2,0,0.4,0.1,0.7,0c0.6,0,1.6-0.3,2.6-0.9c1-0.6,2.1-1.6,3.3-2.8c0.6-0.6,1.3-1.2,2-1.9
			c0.7-0.7,1.5-1.3,2.3-2c1.6-1.4,3.4-2.8,5.3-4.2c1.9-1.4,3.9-2.9,6-4.6c1-0.8,2-1.7,3-2.6c0.5-0.5,1-0.9,1.4-1.4
			c0.2-0.2,0.5-0.5,0.7-0.7c0.2-0.3,0.5-0.5,0.6-0.8c0.7-1,1.3-2.3,1.6-3.5c0.1-0.6,0.2-1.3,0.1-1.9c0-0.3-0.1-0.6-0.2-0.9
			c-0.2-0.2-0.2-0.5-0.5-0.7c-0.8-0.9-2.1-1.1-3.4-1l-0.1,0c0,0-0.1,0,0,0l-0.1,0l-0.3,0.1l-0.5,0.1c-0.3,0.1-0.6,0.2-0.9,0.3
			l-0.9,0.5c-0.3,0.2-0.5,0.4-0.8,0.6c-2.2,1.6-4,3.6-5.7,5.5c-1.7,2-3.2,3.9-4.8,5.8c-1.5,1.8-2.9,3.6-4.1,5.3
			c-0.6,0.8-1.2,1.7-1.7,2.4c-0.6,0.8-1.1,1.5-1.6,2.2c-1,1.4-1.8,2.6-2.4,3.7C69.9,152.1,69.2,153.3,69.2,153.3z M69.2,153.3
			c0,0,0.1-0.3,0.4-0.9c0.3-0.6,0.7-1.5,1.2-2.5c0.6-1.1,1.3-2.4,2.1-3.9c0.4-0.7,0.9-1.5,1.4-2.3c0.5-0.8,1.1-1.6,1.7-2.5
			c1.2-1.7,2.6-3.5,4.2-5.3c1.5-1.8,3.1-3.8,4.8-5.8c1.7-2,3.6-4,5.9-5.7c0.3-0.2,0.6-0.4,0.9-0.6l1-0.5c0.4-0.1,0.7-0.3,1.1-0.4
			l0.5-0.1l0.3-0.1l0.1,0c0.1,0,0.1,0,0.1,0l0.1,0l1.1,0c0.4,0.1,0.7,0.1,1.1,0.2c0.7,0.2,1.5,0.5,2,1.2c0.3,0.3,0.5,0.7,0.6,1
			c0.1,0.4,0.3,0.8,0.3,1.1c0.1,0.8,0,1.5-0.1,2.2c-0.3,1.4-0.9,2.7-1.8,3.9c-0.2,0.3-0.4,0.6-0.7,0.8c-0.3,0.3-0.5,0.5-0.7,0.8
			c-0.5,0.5-1,1-1.5,1.4c-1,0.9-2,1.8-3,2.6c-2,1.6-4.1,3.1-6,4.6c-1.9,1.4-3.7,2.8-5.3,4.2c-0.8,0.7-1.5,1.4-2.3,2
			c-0.7,0.6-1.5,1.1-2.1,1.7c-1.3,1.1-2.5,2-3.6,2.5c-1.1,0.6-2.1,0.7-2.8,0.7c-0.3,0-0.6-0.1-0.7-0.1
			C69.3,153.3,69.2,153.3,69.2,153.3z"/>
	</g>
	<g>
		<path d="M116.5,88.9c0,0,0.4-0.2,1,0.2c0.3,0.2,0.6,0.5,0.9,0.9c0.2,0.4,0.6,0.8,0.8,1.4c0.6,1.1,1.1,2.6,1.3,4.3
			c0.1,0.9,0.2,1.8,0.3,2.8c0,1-0.1,2-0.1,3c-0.2,2.1-0.4,4.4-0.6,6.7c-0.1,1.2-0.1,2.4-0.2,3.7c-0.1,1.3-0.1,2.6-0.5,3.9
			c-0.9,2.6-2.2,4.9-3.8,7.3c-0.8,1.2-1.6,2.3-2.5,3.4c-0.9,1.1-1.9,2.1-3.1,3c-0.3,0.2-0.6,0.4-1,0.5c-0.4,0.1-0.8,0.2-1.3,0.1
			c-0.5-0.1-0.9-0.5-1.1-0.9c-0.2-0.4-0.3-0.8-0.4-1.1c-0.3-1.5-0.1-2.9,0-4.3c0.2-2.8,0.7-5.5,1.3-8c1.2-5.1,2.8-9.8,4.1-13.8
			c0.3-1,0.6-2,1-2.8c0.3-0.9,0.7-1.7,1-2.5c0.6-1.6,1.2-3,1.6-4.1c0.4-1.1,0.8-2,1-2.7C116.4,89.2,116.5,88.9,116.5,88.9z
			 M116.5,88.9c0,0-0.1,0.3-0.2,1c-0.2,0.6-0.4,1.6-0.7,2.8c-0.3,1.2-0.7,2.6-1.2,4.2c-0.2,0.8-0.5,1.7-0.8,2.6
			c-0.3,0.9-0.6,1.9-1,2.8c-1.3,4-2.9,8.6-4.1,13.7c-0.6,2.5-1.1,5.2-1.3,7.9c-0.1,1.4-0.2,2.7,0,4c0.1,0.6,0.4,1.2,0.8,1.3
			c0.4,0.1,1-0.2,1.5-0.5c1.1-0.7,2-1.8,2.9-2.8c0.9-1.1,1.7-2.2,2.4-3.3c1.5-2.3,2.8-4.6,3.6-7c0.4-1.1,0.4-2.4,0.5-3.7
			c0.1-1.2,0.1-2.5,0.2-3.7c0.2-2.4,0.5-4.7,0.6-6.7c0.1-1,0.1-2,0.1-3c0-0.9,0-1.8,0-2.7c-0.1-1.7-0.5-3.1-0.9-4.2
			c-0.2-0.6-0.5-1-0.7-1.5c-0.2-0.4-0.5-0.7-0.7-0.9C116.9,88.7,116.5,88.9,116.5,88.9z"/>
	</g>
	<g>
		<path d="M106.1,132.6c0,0-0.3,0-0.9,0.1c-0.6,0.1-1.4,0.4-2.2,1c-0.8,0.6-1.7,1.6-2.3,2.9c-0.3,0.6-0.6,1.4-0.9,2.1
			c-0.3,0.8-0.6,1.6-0.9,2.4c-1.2,3.5-2.6,7.5-3.9,11.8c-0.7,2.2-1.3,4.4-1.8,6.8c-0.3,1.2-0.6,2.3-0.4,3.3c0.1,0.2,0.1,0.5,0.3,0.6
			c0.1,0.1,0.1,0.2,0.2,0.3c0.1,0,0.2,0.1,0.3,0.2c0.4,0.2,0.9,0.2,1.4,0.1c1-0.2,1.8-1.1,2.5-2.1c0.7-1,1.4-2,2-3
			c1.3-2,2.5-4,3.6-6c2.2-4,4.1-7.8,5.3-11.2c0.3-0.9,0.5-1.7,0.7-2.5c0.2-0.8,0.4-1.5,0.5-2.2c0.2-1.4,0.1-2.7-0.6-3.6
			c-0.6-0.9-1.6-1-2.1-1.1C106.4,132.7,106.1,132.6,106.1,132.6z M106.1,132.6c0,0,0.3,0,0.9,0.1c0.3,0,0.6,0.1,1,0.3
			c0.2,0.1,0.4,0.2,0.6,0.3c0.2,0.1,0.4,0.3,0.6,0.5c0.8,0.8,1.2,2.2,1.2,3.7c0,0.8-0.1,1.6-0.2,2.4c-0.1,0.8-0.5,1.7-0.7,2.6
			c-1.2,3.5-3.1,7.4-5.4,11.4c-1.1,2-2.4,4-3.7,6.1c-0.7,1-1.3,2-2,3c-0.7,1-1.6,2.1-3,2.5c-0.7,0.2-1.4,0.1-2.1-0.2
			c-0.2-0.1-0.3-0.2-0.5-0.3c-0.1-0.1-0.3-0.3-0.4-0.4c-0.2-0.3-0.4-0.7-0.5-1c-0.3-1.4,0.2-2.6,0.4-3.8c0.6-2.3,1.2-4.6,1.9-6.8
			c1.3-4.4,2.7-8.4,3.9-11.9c0.3-0.9,0.6-1.7,0.9-2.5c0.4-0.8,0.7-1.5,1.2-2.1c0.8-1.3,1.9-2.2,2.8-2.8c0.9-0.6,1.8-0.8,2.3-0.9
			C105.8,132.6,106.1,132.6,106.1,132.6z"/>
	</g>
	<g>
		<path d="M83.6,109.8c0,0-0.1-0.2-0.2-0.5c-0.1-0.1-0.1-0.3-0.2-0.5c0-0.1-0.1-0.2-0.1-0.3c0-0.1,0-0.2,0-0.4c0-1,0.1-2.3,0.2-3.6
			c0.1-1.3,0.1-2.6,0.2-3.6c0-0.1,0-0.2,0-0.4c0-0.1,0.1-0.2,0.1-0.3c0.1-0.2,0.2-0.4,0.2-0.5c0.1-0.3,0.2-0.4,0.2-0.4
			s0.1,0.2,0.2,0.5c0,0.1,0.1,0.3,0.2,0.5c0,0.1,0.1,0.2,0.1,0.3c0,0.1,0,0.2,0,0.4c0,1-0.1,2.3-0.2,3.6c-0.1,1.3-0.1,2.6-0.2,3.6
			c0,0.1,0,0.2,0,0.4c0,0.1-0.1,0.2-0.1,0.3c-0.1,0.2-0.2,0.4-0.2,0.5C83.7,109.7,83.6,109.8,83.6,109.8z"/>
	</g>
	<g>
		<path d="M116.7,125.2c0.5-0.5,1.1-1.1,1.6-1.6c0.5-0.5,1-1.1,1.5-1.7c1-1.2,1.9-2.4,2.8-3.6c0.4-0.6,0.9-1.2,1.3-1.9
			c0.4-0.6,0.9-1.2,1.3-1.9c0.9-1.2,1.7-2.5,2.5-3.8c0.8-1.3,1.6-2.6,2.3-4c0.7-1.3,1.4-2.7,2-4.1c0.7-1.4,1.4-2.8,2.4-4
			c0.9-1.3,2.1-2.4,3.4-3.3l0.5-0.3l0.2,0.5c1,2.4,1.2,5.2,0.6,7.7c-0.5,2.6-1.9,5-3.7,6.8c-0.9,0.9-1.8,1.7-2.6,2.7
			c-0.8,0.9-1.3,2-1.7,3.2c-0.4,1.2-0.9,2.4-1.4,3.5c-0.5,1.2-1,2.3-1.6,3.4c-0.6,1.1-1.2,2.2-1.9,3.3c-0.7,1.1-1.4,2.1-2.2,3.2
			c-0.8,1-1.6,2-2.6,2.8c-1,0.9-2,1.6-3.3,2.2c-1.2,0.4-2.5,1-3.9,0.7c-0.4-0.1-0.7-0.3-1-0.5c-0.3-0.3-0.5-0.6-0.6-1
			c-0.2-0.7-0.1-1.4,0-2c0.3-1.3,0.9-2.4,1.6-3.5C115,127.1,115.8,126.1,116.7,125.2z M116.7,125.2c-0.9,0.9-1.7,1.9-2.2,3
			c-0.6,1.1-1,2.3-1.2,3.5c-0.1,0.6,0,1.2,0.1,1.7c0.2,0.5,0.6,0.8,1.1,0.8c0.5,0.1,1.1,0,1.7-0.2c0.6-0.1,1.1-0.3,1.7-0.6
			c1.1-0.5,2.1-1.2,3-2c0.9-0.8,1.7-1.8,2.5-2.7c0.7-1,1.5-2,2.1-3.1c0.7-1.1,1.3-2.1,1.8-3.3c0.6-1.1,1.1-2.2,1.6-3.4
			c0.5-1.1,0.9-2.3,1.4-3.5c0.5-1.2,1-2.4,1.9-3.4c0.8-1,1.8-1.9,2.7-2.8c1.8-1.7,3-3.9,3.5-6.3c0.5-2.4,0.3-4.9-0.6-7.1l0.7,0.2
			c-1.2,0.8-2.3,1.8-3.2,3c-0.9,1.2-1.6,2.5-2.3,3.9c-0.7,1.4-1.3,2.8-2.1,4.1c-0.7,1.4-1.5,2.7-2.3,4c-0.8,1.3-1.7,2.6-2.6,3.9
			c-0.4,0.6-0.9,1.3-1.4,1.8c-0.5,0.6-1,1.2-1.5,1.7C121.2,121,119,123.1,116.7,125.2z"/>
	</g>
	<g>
		<path d="M80.7,96.5c0,0.3,0.1,0.5,0.1,0.8c0,0.1,0,0.1,0,0.2c0,0,0,0.1,0,0.1c0,0.1,0,0.2-0.1,0.3c-0.1,0.4,0,0.8,0.1,1.2
			l-0.8-0.3c0.3-0.2,0.6-0.7,0.6-1.2c0-0.2,0-0.5-0.1-0.7c-0.1,0,0-0.1,0-0.2l0-0.2c0-0.2,0-0.3,0-0.5c0.2,0,0.4,0.1,0.5,0.2
			c0.1,0.1,0.2,0.1,0.2,0.2c0.1,0.1,0.2,0.1,0.2,0.2c0.1,0.4,0.2,0.7,0.1,1.1c0,0.7-0.4,1.5-1,2l-0.6,0.4l-0.2-0.7
			c-0.2-0.5-0.2-1.1-0.1-1.6c0-0.1,0-0.3,0.1-0.4c0-0.1,0-0.1,0-0.2c0-0.1,0.1-0.1,0.1-0.2C80.2,96.8,80.5,96.6,80.7,96.5z"/>
	</g>
	<g>
		<path d="M84.8,101.3c0,0,0,0.2,0,0.5c0,0.1,0.1,0.3,0.2,0.4c0,0.1,0.1,0.1,0.2,0.2c0.1,0.1,0,0.2,0.1,0.2c0.2,0.3,0.6,0.7,0.9,0.6
			l0.1,0c0,0,0.1,0,0,0l0.1,0c0.1,0,0.2,0,0.2-0.1c0.1,0,0.2-0.1,0.2-0.2c0.2-0.1,0.3-0.4,0.4-0.6c0.1-0.2,0.1-0.5,0-0.7
			c-0.1-0.2-0.1-0.4-0.4-0.5c-0.1-0.1-0.3-0.2-0.5-0.2c-0.2,0-0.4,0-0.6,0.1c-0.1,0-0.1,0.1-0.2,0.1c-0.1,0-0.2,0-0.3,0.1
			c-0.2,0.1-0.3,0.1-0.4,0.2c-0.2,0.2-0.3,0.3-0.3,0.3c0,0-0.1-0.2,0-0.5c0-0.2,0.1-0.4,0.2-0.6c0.1-0.1,0.2-0.2,0.3-0.3
			c0.1-0.1,0.3-0.1,0.4-0.2c0.6-0.2,1.4-0.3,2.2,0.2c0.3,0.2,0.6,0.7,0.7,1.1c0.1,0.4,0.1,0.9-0.1,1.3c-0.1,0.4-0.4,0.8-0.7,1.1
			c-0.2,0.1-0.3,0.3-0.6,0.3c-0.1,0.1-0.2,0.1-0.3,0.1l-0.1,0c-0.1,0-0.1,0-0.1,0l-0.2,0c-0.4,0-0.8-0.2-1.1-0.4
			c-0.3-0.2-0.5-0.5-0.7-0.8c-0.1-0.1-0.2-0.3-0.2-0.4c0-0.2,0-0.3,0-0.4c0-0.3,0.1-0.5,0.2-0.6C84.6,101.4,84.8,101.3,84.8,101.3z"
			/>
	</g>
	<g>
		<path d="M81.8,96.8c0,0.1-0.1,0.3,0,0.4c0,0.1,0.1,0.2,0.2,0.3c0.2,0.2,0.4,0.2,0.6,0.3c0.2,0,0.4,0,0.6-0.1
			c0.1,0,0.1-0.1,0.1-0.1c0,0,0,0,0-0.1l0,0c0,0.1,0,0,0,0l0.1-0.1c0.1-0.1,0.1-0.1,0.1-0.2c0-0.1,0-0.2,0-0.3c0-0.2,0-0.4-0.1-0.6
			c-0.1-0.4-0.4-0.8-0.7-1l0.8-0.2c0,0,0,0.2,0.2,0.5c0.1,0.2,0.4,0.4,0.6,0.6c0.4,0.4,0.9,0.8,1.5,1.1c0.3,0.2,0.5,0.3,0.8,0.4
			c0.3,0.1,0.6,0.2,0.7,0.2c0,0,0,0,0,0c0,0,0,0,0,0l0.1,0c0.1,0,0.2-0.1,0.2-0.1c0,0,0.1-0.1,0.2-0.2c0.1-0.2,0.2-0.4,0.2-0.7
			c0-0.2,0-0.5-0.2-0.7c-0.1-0.1-0.1-0.2-0.2-0.2c-0.1,0,0,0-0.1-0.1c0,0-0.1,0-0.1,0c-0.2-0.1-0.4,0-0.6,0.1c0,0-0.1,0-0.1,0.1
			c0,0,0,0,0,0l-0.1,0.1l0,0c0,0-0.1,0.1-0.1,0.1c-0.3,0.2-0.4,0.2-0.6,0.2c-0.3,0.1-0.7,0.2-1,0.3c-0.3,0.1-0.7,0-1,0l-1,0l-0.5,0
			l-0.2,0L81.8,96.8C81.7,96.8,81.7,96.8,81.8,96.8z M81.8,96.8C81.7,96.8,81.7,96.8,81.8,96.8C81.7,96.7,81.7,96.7,81.8,96.8
			l0.1-0.1l0.2-0.1c0.2-0.1,0.3-0.1,0.5-0.2l0.9-0.3c0.3-0.1,0.6-0.3,0.9-0.3c0.3,0,0.6-0.1,0.9-0.2c0.1,0,0.3-0.1,0.3-0.1
			c0,0,0,0,0,0l0,0l0,0l0,0c0,0,0-0.1,0,0l0,0c0,0,0.1-0.1,0.1-0.1c0.1-0.1,0.2-0.2,0.3-0.2c0.4-0.2,0.9-0.3,1.3-0.1
			c0.1,0,0.2,0.1,0.3,0.1c0.1,0,0.2,0.1,0.3,0.2c0.2,0.1,0.3,0.3,0.5,0.5c0.2,0.4,0.3,0.8,0.3,1.2c0,0.4-0.1,0.8-0.4,1.2
			c-0.1,0.2-0.3,0.3-0.5,0.5c-0.1,0.1-0.2,0.1-0.3,0.2l-0.1,0c-0.1,0-0.1,0-0.1,0l-0.2,0c-0.5,0-0.9-0.1-1.2-0.2
			c-0.3-0.1-0.6-0.3-0.9-0.5c-0.6-0.4-1.1-0.8-1.6-1.2c-0.2-0.2-0.5-0.5-0.7-0.8c-0.2-0.3-0.5-0.7-0.3-1.3l0.2-0.7l0.6,0.5
			c0.5,0.4,0.8,0.9,1.1,1.4c0.1,0.3,0.2,0.6,0.2,0.9c0,0.2,0,0.3-0.1,0.5c0,0.1-0.1,0.4-0.2,0.5l0,0.1c0,0,0,0,0,0.1L84,98.1
			c-0.1,0.1-0.1,0.2-0.2,0.2c-0.2,0.1-0.4,0.2-0.6,0.2c-0.4,0-0.7-0.1-1-0.2c-0.3-0.2-0.5-0.4-0.6-0.7c-0.1-0.1-0.1-0.3,0-0.5
			C81.6,97,81.7,96.9,81.8,96.8z"/>
	</g>
	<g>
		<path d="M80.8,100.7c0,0-0.1,0.2-0.3,0.4c-0.1,0.1-0.2,0.3-0.3,0.5c0,0.1-0.1,0.2-0.1,0.3c0,0.1-0.1,0.2-0.2,0.3
			c-0.1,0.2-0.2,0.5-0.2,0.7c0,0.1,0,0.3,0,0.4c0,0.2,0,0.3,0.1,0.4c0.2,0.5,0.7,1,1.3,1c0.5,0.1,1-0.4,1.2-0.9
			c0.1-0.3,0.2-0.6,0.2-0.8c0-0.3,0-0.5-0.1-0.8c0-0.1-0.1-0.2-0.1-0.4c0-0.1,0-0.3,0-0.4c0-0.2,0-0.4-0.1-0.6
			c0-0.4-0.1-0.6-0.1-0.6s0.2,0.1,0.4,0.4c0.1,0.1,0.3,0.3,0.4,0.5c0.1,0.1,0.2,0.2,0.2,0.3c0.1,0.1,0.1,0.3,0.1,0.4
			c0.1,0.3,0.1,0.7,0.1,1c0,0.4-0.1,0.8-0.2,1.2c-0.2,0.4-0.4,0.8-0.8,1.1c-0.4,0.3-0.9,0.5-1.4,0.5c-0.5,0-1-0.3-1.3-0.5
			c-0.4-0.3-0.6-0.7-0.8-1.1c-0.1-0.2-0.1-0.5-0.2-0.6c0-0.3,0-0.4,0-0.6c0.1-0.4,0.2-0.8,0.3-1.1c0.1-0.1,0.1-0.3,0.3-0.4
			c0.1-0.1,0.2-0.2,0.4-0.3c0.2-0.1,0.4-0.2,0.6-0.3C80.6,100.7,80.8,100.7,80.8,100.7z"/>
	</g>
	<g>
		<path d="M84.4,90.2c0,0-0.1,0.1-0.2,0.3c0,0.1-0.1,0.2-0.1,0.4c0,0.1,0,0.2,0,0.2c0,0.1-0.1,0.1-0.1,0.2c-0.1,0.3,0,0.7,0.2,1l0,0
			l0,0c0,0,0,0,0,0l0,0l0,0c0.1,0,0.1,0.1,0.1,0.1c0,0,0.2,0.1,0.2,0.1c0.2,0,0.4,0,0.6,0c0.2-0.1,0.4-0.2,0.6-0.3
			c0.2-0.1,0.2-0.3,0.3-0.5c0-0.1,0.1-0.4,0-0.5c0-0.2-0.1-0.4-0.2-0.5c0-0.1-0.1-0.1-0.1-0.2c0-0.1,0-0.2-0.1-0.2
			c-0.1-0.1-0.1-0.3-0.2-0.4c-0.2-0.2-0.3-0.3-0.3-0.3c0,0,0.2,0,0.5,0c0.1,0,0.3,0.1,0.5,0.2c0.1,0,0.2,0.1,0.3,0.2
			c0.1,0.1,0.2,0.2,0.2,0.3c0.1,0.2,0.3,0.5,0.3,0.8c0.1,0.3,0.1,0.6-0.1,1c-0.1,0.3-0.3,0.7-0.6,0.9c-0.3,0.3-0.6,0.4-1,0.5
			c-0.4,0.1-0.7,0.1-1.1,0c-0.2,0-0.4-0.1-0.5-0.2c-0.1-0.1-0.2-0.1-0.2-0.1l0,0l-0.1,0l0,0L83.5,93c-0.5-0.6-0.6-1.3-0.4-1.9
			c0-0.1,0-0.3,0.1-0.4c0.1-0.1,0.2-0.2,0.3-0.3c0.2-0.2,0.4-0.2,0.5-0.3C84.3,90.1,84.4,90.2,84.4,90.2z"/>
	</g>
</g>
<g>
	<path d="M100.3,123.5c0,0-0.2-0.3-0.5-0.9c-0.2-0.3-0.3-0.6-0.5-1c-0.1-0.2-0.2-0.4-0.3-0.6c-0.1-0.2-0.1-0.5-0.2-0.8
		c-0.1-0.5-0.3-1.1-0.4-1.7c-0.1-0.6-0.2-1.3-0.3-1.9c-0.2-1.3-0.3-2.8-0.3-4.2c0-1.5,0.1-2.9,0.2-4.3c0.1-0.7,0.2-1.3,0.3-1.9
		c0.1-0.6,0.2-1.2,0.3-1.7c0.1-0.3,0.1-0.5,0.2-0.8c0.1-0.2,0.2-0.4,0.3-0.6c0.2-0.4,0.3-0.8,0.5-1c0.3-0.6,0.5-0.9,0.5-0.9
		s0,0.4-0.1,1c-0.1,0.3-0.1,0.7-0.1,1.1c0,0.4-0.1,0.9-0.2,1.4c-0.1,0.5-0.2,1.1-0.3,1.7c-0.1,0.6-0.2,1.2-0.3,1.9
		c-0.1,1.3-0.2,2.7-0.2,4.1c0,1.4,0.1,2.8,0.3,4.1c0.1,0.7,0.2,1.3,0.3,1.9c0.1,0.6,0.2,1.2,0.4,1.7c0.1,0.3,0.2,0.5,0.2,0.7
		c0,0.2,0.1,0.5,0.1,0.7c0.1,0.4,0.1,0.8,0.2,1.1C100.3,123.1,100.3,123.5,100.3,123.5z"/>
</g>
<path class="st0" d="M64.3,120.9c4.1,0.6,8.2-0.5,12.2-1.6c4.1-1.2,8.2-2.3,12.3-3.5"/>
<g>
	<path d="M96.7,124.9c0,0-0.1,0.2-0.3,0.5c-0.1,0.2-0.2,0.4-0.4,0.6c-0.1,0.1-0.1,0.2-0.2,0.3c-0.1,0.1-0.2,0.2-0.3,0.3
		c-0.9,0.8-2,2-3.1,3.3c-1,1.3-1.9,2.7-2.4,3.8c-0.1,0.1-0.1,0.3-0.2,0.4c-0.1,0.1-0.2,0.2-0.3,0.3c-0.2,0.2-0.3,0.4-0.5,0.5
		c-0.3,0.3-0.4,0.4-0.4,0.4s0-0.2,0.1-0.6c0-0.2,0.1-0.4,0.1-0.7c0-0.1,0.1-0.3,0.1-0.4c0-0.2,0.1-0.3,0.2-0.4
		c0.6-1.1,1.5-2.6,2.5-3.9c1-1.4,2.2-2.6,3.2-3.5c0.1-0.1,0.2-0.2,0.3-0.3c0.1-0.1,0.3-0.1,0.4-0.2c0.2-0.1,0.5-0.2,0.6-0.3
		C96.5,124.9,96.7,124.9,96.7,124.9z"/>
</g>
<g>
	<path d="M108.8,128c0,0-0.1-0.2-0.1-0.7c0-0.2-0.1-0.5-0.1-0.8c0-0.2,0-0.3-0.1-0.5c0-0.2,0.1-0.3,0.1-0.5c0.2-1.4,0.6-3.3,1.2-5.1
		c0.6-1.8,1.4-3.6,2.1-4.8c0.1-0.2,0.1-0.3,0.3-0.5c0.1-0.1,0.2-0.2,0.3-0.3c0.2-0.2,0.4-0.4,0.5-0.5c0.3-0.3,0.5-0.5,0.5-0.5
		s-0.1,0.2-0.2,0.6c-0.1,0.2-0.1,0.4-0.2,0.7c-0.1,0.3-0.2,0.6-0.4,0.9c-0.7,1.2-1.4,2.9-2,4.7c-0.6,1.8-1,3.6-1.2,5
		c0,0.2,0,0.3-0.1,0.5c-0.1,0.2-0.1,0.3-0.2,0.4c-0.1,0.3-0.2,0.5-0.3,0.7C108.9,127.7,108.8,128,108.8,128z"/>
</g>
<g>
	<path d="M107,135.6c0,0-0.1,0.2-0.3,0.6c-0.1,0.2-0.2,0.4-0.3,0.7c-0.1,0.1-0.1,0.3-0.2,0.4c-0.1,0.1-0.2,0.2-0.3,0.4
		c-0.8,1.1-1.7,2.6-2.4,4.3c-0.7,1.7-1,3.4-1.2,4.8c0,0.3-0.1,0.6-0.2,0.9c-0.1,0.3-0.2,0.5-0.2,0.7c-0.1,0.4-0.2,0.6-0.2,0.6
		s-0.1-0.2-0.2-0.6c-0.1-0.2-0.1-0.5-0.2-0.7c0-0.1-0.1-0.3-0.1-0.5c0-0.2,0-0.3,0-0.5c0.1-1.4,0.5-3.3,1.2-5
		c0.7-1.8,1.7-3.4,2.5-4.5c0.1-0.1,0.2-0.3,0.3-0.4c0.1-0.1,0.3-0.2,0.4-0.3c0.2-0.2,0.4-0.3,0.6-0.4
		C106.7,135.7,107,135.6,107,135.6z"/>
</g>
<g>
	<path d="M115.7,131.8c0,0,0.1-0.2,0.2-0.4c0.1-0.1,0.2-0.3,0.3-0.5c0-0.1,0.1-0.2,0.2-0.3c0.1-0.1,0.2-0.1,0.3-0.2
		c0.7-0.6,1.6-1.6,2.3-2.6c0.8-1,1.4-2.1,1.8-3c0.1-0.1,0.1-0.2,0.2-0.3c0.1-0.1,0.2-0.2,0.2-0.2c0.1-0.2,0.3-0.3,0.4-0.4
		c0.2-0.2,0.3-0.3,0.3-0.3s0,0.2,0,0.5c0,0.2,0,0.3,0,0.6c0,0.1,0,0.2,0,0.3c0,0.1-0.1,0.2-0.1,0.3c-0.4,0.9-1.1,2.1-1.9,3.2
		c-0.8,1.1-1.7,2.1-2.5,2.8c-0.1,0.1-0.2,0.2-0.3,0.2c-0.1,0-0.2,0.1-0.3,0.1c-0.2,0.1-0.4,0.1-0.5,0.2
		C115.9,131.8,115.7,131.8,115.7,131.8z"/>
</g>
<g>
	<path d="M96.3,41.4c0.2,0.4,0.4,0.8,0.5,1.2c0,0.1,0.1,0.2,0.1,0.3c0,0.1,0,0.2,0,0.3l0,0.6l-0.2-0.4c0.3,0.2,0.7,0.2,1.1,0.1
		c0.2-0.1,0.4-0.2,0.5-0.4c0.2-0.1,0.3-0.3,0.4-0.5c0.1-0.1,0.1-0.2,0.1-0.3c0-0.1,0.1-0.2,0.1-0.3c0-0.2,0-0.5,0-0.7
		c0-0.5-0.1-1-0.2-1.6L99,40c-0.1-0.1-0.2-0.1-0.3-0.1c-0.1,0-0.2-0.1-0.4-0.1c-0.3-0.1-0.6-0.1-1,0.1c0.2-0.4,0.5-0.7,0.9-0.8
		c0.1,0,0.2-0.1,0.3-0.1c0.1,0,0.2,0,0.3,0c0.2,0,0.5,0.1,0.7,0.2l0.2,0.1l0,0.2c0.1,0.5,0.2,1.1,0.2,1.7c0,0.3,0,0.6,0,0.9
		c0,0.2-0.1,0.3-0.1,0.5c0,0.2-0.1,0.3-0.2,0.4c-0.1,0.3-0.3,0.6-0.6,0.8c-0.2,0.2-0.5,0.4-0.8,0.6c-0.3,0.1-0.7,0.2-1,0.2
		c-0.4,0-0.8-0.1-1.1-0.4L96,44.1l0-0.2l0-0.6c0-0.1,0-0.2,0-0.3c0-0.1,0-0.2,0-0.3C96,42.2,96.1,41.8,96.3,41.4z"/>
</g>
<g>
	<path d="M104.1,38.7c0.2,0.2,0.4,0.5,0.6,0.7l0.1,0.2c0,0.1,0,0.1,0,0.2l0,0.4c0,0.6,0,1.1-0.1,1.7l-0.1,0.4l-0.4,0l-2.4,0l-0.7,0
		l0.2-0.6l0.4-1.3c0-0.1,0-0.2,0.1-0.3l0.2-0.3c0.2-0.2,0.3-0.4,0.5-0.5c0.1,0.2,0.1,0.5,0.1,0.7l0,0.4c0,0.1-0.1,0.2-0.1,0.3
		l-0.4,1.3l-0.5-0.6l2.4,0l-0.5,0.4c0.1-0.5,0.1-1,0.1-1.5l0-0.4c0-0.1,0-0.1,0-0.2l0.1-0.2L104.1,38.7z"/>
</g>
<g>
	<path d="M96.3,40.9c0,0,0-0.1,0-0.2c0-0.1,0-0.1,0-0.2c0,0,0-0.1-0.1-0.1c0,0,0,0,0,0c0,0,0.1,0,0.1-0.1c0-0.1,0-0.1,0-0.1
		c0,0,0,0,0,0c0,0,0.1,0,0.1,0c0.1,0,0.1-0.1,0.2-0.1c0.1-0.1,0.2-0.1,0.2-0.1s0.1,0,0.2,0c0.1,0,0.1,0,0.2,0c0,0,0.1,0,0.1,0
		c0,0,0,0,0,0.1c0,0.2,0,0.5-0.1,0.7c-0.1,0.2-0.3,0.4-0.5,0.5c0,0,0,0.1-0.1,0c0,0-0.1,0-0.1-0.1c-0.1,0-0.1-0.1-0.1-0.1
		C96.4,41,96.3,40.9,96.3,40.9z"/>
</g>
<g>
	<path d="M103.7,24.4l0,1.3l0,0.6c0,0.2-0.1,0.4-0.1,0.6c-0.1,0.8-0.1,1.6-0.1,2.3l-0.4-0.5c0.5,0.1,1.2-0.2,1.6-0.8
		c0.5-0.5,0.9-1.2,1.1-1.9c0.1-0.3,0.1-0.7,0.1-1c0-0.1-0.1-0.3-0.1-0.4c-0.1-0.1-0.1-0.1-0.1-0.1c0,0-0.1-0.1-0.1-0.1
		c-0.1-0.1-0.3-0.1-0.4-0.1c-0.1-0.1-0.3-0.1-0.5-0.1c-0.3,0-0.7,0.1-0.8,0.5c-0.1-0.2-0.1-0.5,0-0.7c0.1-0.2,0.3-0.4,0.5-0.5
		c0.2-0.1,0.5-0.2,0.7-0.2c0.3,0,0.5,0.1,0.8,0.2c0.1,0.1,0.2,0.1,0.4,0.2c0.1,0.1,0.2,0.3,0.3,0.3c0.2,0.3,0.2,0.5,0.3,0.7
		c0.1,0.5,0,1-0.1,1.4c-0.3,0.9-0.7,1.6-1.3,2.3c-0.3,0.3-0.6,0.6-1.1,0.9c-0.4,0.2-1,0.3-1.5,0.2l-0.4-0.1l0-0.4
		c0-0.8,0-1.7,0.1-2.5c0-0.2,0-0.4,0.1-0.6c0.1-0.2,0.2-0.4,0.3-0.6C103.2,25.1,103.4,24.7,103.7,24.4z"/>
</g>
<g>
	<path d="M105.9,38.4c0.2,0.2,0.5,0.3,0.7,0.5c0.2,0.1,0.5,0.3,0.7,0.4c0.1,0.1,0.3,0.1,0.3,0.2c0.1,0.1,0.2,0.1,0.3,0.2
		c0.2,0.1,0.4,0.2,0.7,0.3c0.9,0.4,2,0.6,3,0.4l-0.4,0.3c0.2-0.6,0.2-1.2,0.1-1.8c-0.1-0.3-0.2-0.6-0.4-0.8
		c-0.1-0.1-0.2-0.2-0.3-0.4c-0.1-0.1-0.2-0.2-0.3-0.3l-0.2-0.1l-0.2-0.1c-0.1-0.1-0.3-0.1-0.4-0.2c-0.3-0.1-0.6-0.1-0.9-0.1
		c-0.2,0-0.3,0-0.5,0c-0.2,0-0.3,0-0.5,0c-0.3,0-0.7,0.1-1,0.2c0.2-0.3,0.5-0.6,0.8-0.8c0.2-0.1,0.4-0.2,0.5-0.3
		c0.2-0.1,0.4-0.2,0.6-0.1c0.4,0,0.8,0,1.2,0.2c0.2,0.1,0.4,0.1,0.6,0.2l0.3,0.2l0.2,0.1c0.2,0.2,0.3,0.3,0.5,0.4
		c0.1,0.2,0.3,0.3,0.4,0.5c0.2,0.3,0.4,0.7,0.5,1.1c0.2,0.8,0.2,1.7-0.1,2.4l-0.1,0.3l-0.3,0c-1.2,0.2-2.4,0-3.5-0.5
		c-0.3-0.1-0.5-0.3-0.8-0.4c-0.1-0.1-0.2-0.2-0.4-0.2c-0.1-0.1-0.2-0.2-0.3-0.3c-0.2-0.2-0.4-0.5-0.5-0.8
		C106.1,38.9,106,38.6,105.9,38.4z"/>
</g>
<g>
	<path d="M111.2,19.8c0,0,0,0.3-0.1,0.8c-0.1,0.3-0.2,0.6-0.3,0.9c-0.1,0.2-0.2,0.3-0.3,0.5c-0.1,0.2-0.3,0.3-0.4,0.5
		c-0.6,0.7-1.3,1.4-1.4,2.3c0,0.1,0,0.2,0,0.3c0,0,0,0.1,0,0.1l0,0.2c0,0.2,0.1,0.2,0.1,0.3c0,0.1,0.1,0.2,0.1,0.3
		c0.3,0.4,0.7,0.6,1.1,0.8c0.5,0.2,1,0.2,1.4,0.1c0.5-0.1,0.8-0.3,1.1-0.7c0.6-0.7,0.6-1.7,0.5-2.4c0-0.2-0.1-0.4-0.1-0.5
		c0-0.2,0-0.4-0.1-0.5c-0.1-0.3-0.2-0.6-0.3-0.8c-0.2-0.4-0.4-0.7-0.4-0.7s0.1,0,0.2,0.1c0.1,0.1,0.3,0.2,0.5,0.4
		c0.2,0.2,0.4,0.4,0.7,0.7c0.1,0.2,0.2,0.3,0.3,0.5c0.1,0.2,0.1,0.4,0.2,0.7c0.1,0.5,0.1,1,0,1.6c-0.1,0.6-0.3,1.1-0.7,1.7
		c-0.4,0.5-1,0.9-1.6,1c-0.7,0.2-1.3,0.1-2-0.1c-0.6-0.2-1.2-0.6-1.7-1.2c-0.1-0.2-0.2-0.3-0.3-0.5c-0.1-0.2-0.1-0.4-0.1-0.5l0-0.2
		c0-0.2,0-0.2,0-0.3c0-0.2,0-0.3,0.1-0.5c0.1-0.6,0.4-1.2,0.7-1.6c0.3-0.4,0.6-0.8,0.9-1.1c0.1-0.2,0.2-0.3,0.4-0.5
		c0.2-0.1,0.3-0.2,0.4-0.4c0.3-0.2,0.5-0.4,0.6-0.6c0.1-0.2,0.3-0.4,0.3-0.5C111.1,19.9,111.2,19.8,111.2,19.8z"/>
</g>
<g>
	<path d="M115.1,26.9c0,0,0.1-0.1,0.4-0.3c0.1-0.1,0.3-0.2,0.5-0.3c0.1,0,0.2-0.1,0.3-0.2c0.1,0,0.2,0,0.4,0c1-0.1,2.3,0,3.6,0.4
		c1.2,0.4,2.4,1.1,3.1,1.7c0.1,0.1,0.2,0.1,0.3,0.2c0.1,0.1,0.1,0.2,0.2,0.3c0.1,0.2,0.2,0.4,0.2,0.5c0.1,0.3,0.1,0.4,0.1,0.4
		s-0.2-0.1-0.4-0.2c-0.1-0.1-0.3-0.1-0.5-0.2c-0.2-0.1-0.4-0.1-0.5-0.3c-0.7-0.6-1.7-1.2-2.8-1.5c-1.1-0.4-2.3-0.5-3.2-0.4
		c-0.1,0-0.2,0-0.3,0c-0.1,0-0.2,0-0.3-0.1c-0.2,0-0.4-0.1-0.5-0.1C115.2,26.9,115.1,26.9,115.1,26.9z"/>
</g>
<g>
	<path d="M103.3,52.1c0,0,0,0,0,0.1c0,0.1,0,0.2,0.1,0.3c0,0.1,0.1,0.3,0.2,0.4c0.1,0.1,0.1,0.1,0.2,0.2c0.1,0.1,0.1,0.2,0.2,0.2
		c0.2,0.3,0.7,0.6,1.2,0.7c0.3,0,0.4,0,0.7-0.2c0.2-0.1,0.4-0.3,0.5-0.5c0.3-0.5,0.4-1.1,0.2-1.6c-0.1-0.3-0.2-0.5-0.3-0.6
		c0,0-0.1-0.1-0.1-0.1c0,0,0,0-0.1-0.1c-0.1,0-0.2-0.1-0.2-0.1c-0.1,0-0.2,0-0.2,0c-0.1,0-0.2-0.1-0.3-0.1c-0.2,0-0.3,0-0.5,0
		c-0.3,0.1-0.4,0.2-0.4,0.2c0,0,0-0.2,0.2-0.5c0.1-0.1,0.3-0.3,0.5-0.4c0.1-0.1,0.3-0.1,0.4-0.2c0.2,0,0.3,0,0.5,0.1
		c0.2,0,0.3,0.1,0.5,0.2c0.1,0,0.2,0.1,0.3,0.2c0,0,0.1,0.1,0.2,0.2c0.2,0.3,0.4,0.6,0.5,1c0.2,0.8,0.1,1.6-0.3,2.4
		c-0.2,0.4-0.5,0.7-1,0.9c-0.3,0.2-0.8,0.3-1.2,0.2c-0.8-0.1-1.5-0.6-1.9-1.1c-0.1-0.1-0.2-0.2-0.2-0.4c0-0.2,0-0.3-0.1-0.4
		c0-0.3,0-0.5,0.1-0.7c0.1-0.2,0.1-0.3,0.2-0.3C103.2,52.1,103.3,52.1,103.3,52.1z"/>
</g>
<g>
	<path d="M106.8,57.5c0,0.5,0,0.9,0,1.4c0.1,0.2-0.1,0.4-0.1,0.6c0,0.2,0,0.4,0,0.6c0,0.1,0,0.1,0,0.1c0,0.1,0,0.1,0,0.1
		c0,0.1,0,0.2,0.1,0.2c0.1,0.2,0.2,0.3,0.3,0.4c0.2,0.3,0.5,0.4,0.8,0.5c0.1,0,0.1,0,0.2,0c0,0,0.1,0,0.2-0.1
		c0.1-0.1,0.3-0.2,0.4-0.3c0.2-0.2,0.4-0.6,0.4-0.9c0.1-0.4,0-0.7-0.1-1.1c0-0.2-0.1-0.4-0.2-0.6c-0.1-0.2-0.2-0.4-0.2-0.6l0.3,0.3
		c-0.4-0.3-0.7-0.5-1.1-0.8c0.5,0,0.9,0,1.4,0l0,0l0.3,0.3c0.2,0.2,0.2,0.4,0.3,0.6c0.1,0.2,0.1,0.4,0.2,0.7c0.1,0.5,0.2,1,0.1,1.5
		c-0.1,0.5-0.3,1-0.7,1.4c-0.2,0.2-0.4,0.4-0.7,0.5c-0.1,0.1-0.3,0.1-0.5,0.1c-0.1,0-0.3,0-0.4,0c-0.6,0-1.1-0.4-1.5-0.8
		c-0.2-0.2-0.3-0.4-0.4-0.7c-0.1-0.1-0.1-0.2-0.1-0.4c0-0.1,0-0.1,0-0.2c0,0,0-0.2,0-0.2c0-0.3,0-0.5,0-0.8c0-0.2,0-0.5,0.2-0.7
		C106.2,58.2,106.4,57.8,106.8,57.5z"/>
</g>
<g>
	<path d="M109.6,51.7c-0.2,0.5-0.1,0.9,0.1,1.2c0.1,0.2,0.1,0.3,0.2,0.5c0.1,0.2,0.2,0.3,0.3,0.4c0.1,0.1,0.3,0.2,0.4,0.2
		c0,0,0.1,0,0.1,0l0.2,0c0.1,0,0.1,0,0.2,0c0.3-0.1,0.7-0.3,0.9-0.5c0.3-0.3,0.4-0.6,0.5-1c0-0.2,0-0.3,0-0.6c0-0.2-0.1-0.4-0.2-0.5
		c-0.2-0.4-0.4-0.7-0.7-0.9c-0.3-0.3-0.7-0.5-1-0.6l0.5-0.1c-0.2,0.1-0.4,0.2-0.5,0.4c-0.1,0.2-0.3,0.5-0.3,0.7
		c-0.3-0.5-0.4-1.3,0.1-1.9l0.2-0.2l0.3,0.1c1,0.4,1.9,1.1,2.3,2.1c0.1,0.3,0.2,0.5,0.2,0.8c0,0.2,0,0.6,0,0.8
		c-0.1,0.6-0.4,1.1-0.7,1.5c-0.4,0.4-0.9,0.7-1.5,0.8c-0.1,0-0.4,0-0.5,0l-0.2,0c-0.1,0-0.2,0-0.3,0c-0.3-0.1-0.6-0.2-0.8-0.4
		c-0.2-0.2-0.4-0.4-0.6-0.7c-0.1-0.3-0.3-0.5-0.2-0.8c0-0.3,0.1-0.6,0.2-0.8C109.2,52,109.4,51.8,109.6,51.7z"/>
</g>
<g>
	<path d="M124.8,66.4c-0.9-1-1.7-2.1-2.7-3c-0.5-0.5-1-0.9-1.4-1.3c-0.2-0.2-0.5-0.4-0.7-0.7c-0.2-0.2-0.5-0.4-0.8-0.6
		c-0.5-0.4-1.1-0.7-1.7-0.9c-0.3-0.1-0.6-0.3-0.9-0.4c-0.3-0.1-0.6-0.2-0.9-0.3c-0.6-0.2-1.3-0.3-1.9-0.4c-0.6-0.1-1.3-0.2-2-0.3
		l0.5-0.4c-0.2,1.2-0.3,2.4-0.2,3.5c0,0.6,0.1,1.1,0.4,1.5c0,0.1,0.2,0.2,0.2,0.2l0.2,0.1l0.1,0c0.2,0.1,0.4,0.1,0.6,0.1
		c0.5-0.1,0.9-0.3,1.3-0.7c0.2-0.2,0.3-0.4,0.4-0.6l0-0.1c0,0,0,0,0,0l0-0.1l0.1-0.2c0-0.1,0.1-0.2,0.1-0.4c0.2-1.1-0.2-2.2-0.5-3.3
		l0.4,0.4l-1.7-0.2l-0.3,0l-0.1-0.2c-0.2-0.3-0.2-0.6-0.3-0.8c0-0.2-0.1-0.5-0.1-0.7c0-0.5,0-0.9,0-1.4c0-0.5,0.1-0.9,0.1-1.4
		c0.1-0.5,0.1-0.9,0.2-1.4l0.1-0.3l0.2-0.1c0.8-0.3,1.6-0.4,2.4-0.2c0.4,0.1,0.8,0.2,1.1,0.4c0.3,0.2,0.7,0.5,0.9,0.8
		c0.3,0.3,0.5,0.7,0.6,1c0,0.1,0.1,0.2,0.1,0.3c0,0.1,0,0.2,0,0.3c0,0.2-0.1,0.4-0.2,0.6c-0.4,0.7-1,1-1.6,1.4c0.5-0.5,1-1,1.3-1.6
		c0.1-0.1,0.1-0.3,0.1-0.4c0-0.1,0-0.1,0-0.2l-0.1-0.2c-0.1-0.3-0.3-0.5-0.6-0.7c-0.5-0.4-1.1-0.6-1.7-0.7c-0.6-0.1-1.2-0.1-1.8,0.2
		l0.3-0.4c-0.1,0.4-0.1,0.8-0.2,1.3c0,0.4-0.1,0.9-0.1,1.3c0,0.4,0,0.9,0,1.3c0,0.2,0,0.4,0.1,0.6c0,0.2,0.1,0.4,0.1,0.5l-0.4-0.2
		l1.7,0.2l0.3,0l0.1,0.3c0.3,1.2,0.7,2.4,0.5,3.8c0,0.2-0.1,0.3-0.1,0.5l-0.1,0.2l0,0.1l0,0.1l-0.1,0.1c-0.2,0.3-0.4,0.6-0.6,0.9
		c-0.5,0.5-1.1,0.9-1.9,1c-0.4,0-0.8,0-1.1-0.1c-0.1,0-0.2-0.1-0.3-0.1l-0.2-0.1c-0.2-0.2-0.3-0.3-0.4-0.5c-0.2-0.3-0.3-0.7-0.4-1
		c-0.1-0.3-0.1-0.7-0.1-1c-0.1-1.3,0.1-2.5,0.3-3.7l0.1-0.5l0.5,0.1c0.7,0.1,1.4,0.2,2,0.3c0.7,0.1,1.3,0.3,2,0.4
		c0.3,0.1,0.7,0.2,1,0.3c0.3,0.1,0.6,0.3,1,0.4c0.6,0.3,1.3,0.6,1.8,1c0.3,0.2,0.6,0.4,0.8,0.6c0.3,0.2,0.5,0.4,0.8,0.7
		c0.3,0.2,0.5,0.5,0.7,0.8c0.2,0.3,0.4,0.5,0.6,0.8C123.5,64.1,124.2,65.2,124.8,66.4z"/>
</g>
<g>
	<path d="M106.8,54.9c0.1,0.2,0.3,0.4,0.4,0.6l0.2,0.3c0,0.1,0.1,0.2,0.1,0.3l-0.3-0.4c0.5,0.3,1.1,0.4,1.7,0.3
		c0.1,0,0.3-0.1,0.4-0.1c0.1,0,0.1-0.1,0.2-0.1l0.1-0.1l0.1-0.1c0.2-0.2,0.3-0.4,0.4-0.7c0.1-0.2,0-0.5,0-0.7c0-0.1-0.1-0.2-0.2-0.3
		c-0.1-0.1-0.1,0-0.1-0.1c0,0-0.1,0-0.1-0.1c-0.1,0-0.2,0-0.3,0c-0.1,0-0.2,0.1-0.4,0c-0.3,0-0.6,0.1-0.8,0.4
		c-0.1-0.2-0.1-0.4,0-0.6c0.1-0.2,0.2-0.4,0.4-0.6c0.2-0.2,0.4-0.2,0.6-0.3c0.2,0,0.5,0,0.7,0c0.1,0,0.2,0.1,0.3,0.1
		c0.1,0,0.3,0.2,0.3,0.2c0.2,0.2,0.3,0.4,0.4,0.6c0.2,0.4,0.2,0.9,0.1,1.3c-0.1,0.4-0.3,0.8-0.7,1.1c-0.1,0.1-0.2,0.2-0.2,0.2
		c-0.1,0.1-0.2,0.1-0.3,0.2c-0.2,0.1-0.4,0.2-0.6,0.2c-0.8,0.2-1.7,0-2.4-0.4l-0.1-0.1l-0.1-0.3c0-0.1,0-0.2,0-0.3l0.1-0.3
		C106.6,55.4,106.7,55.2,106.8,54.9z"/>
</g>
<g>
	<path d="M100.7,39.2c-0.1,0.1-0.1,0.2-0.2,0.4l-0.1,0.3c0,0.1,0,0.2-0.1,0.3l-0.2,0.2c-0.2,0.3-0.3,0.7-0.4,1
		c-0.1,0.4,0,0.8,0.1,1.1c0.1,0.2,0.1,0.3,0.2,0.5c0.1,0.1,0.2,0.3,0.3,0.4l-0.8,0.1l0.2-0.3c0-0.1,0.1-0.1,0.1-0.2
		c0-0.1,0.1-0.1,0.2-0.1c0.2-0.1,0.5-0.3,0.8-0.4c0,0.3,0,0.6,0,0.9c0,0.1,0,0.2,0,0.2c0,0-0.1,0.1-0.1,0.2l-0.2,0.3l-0.3,0.5
		l-0.4-0.4c-0.2-0.2-0.4-0.4-0.5-0.6c-0.1-0.2-0.2-0.5-0.3-0.7c-0.2-0.5-0.2-1-0.1-1.5c0.1-0.5,0.2-1,0.5-1.4l0.2-0.3
		c0.1-0.1,0.2-0.2,0.3-0.2C100.2,39.1,100.4,39.1,100.7,39.2z"/>
</g>
<g>
	<path d="M107,27.8c0.1,0.2,0.1,0.5,0.1,0.7c0,0.1,0.1,0.3,0,0.3c0,0.1-0.1,0.2-0.1,0.3l-0.4,0.9l-0.5-0.8c-0.3-0.5-0.8-0.8-1.4-0.8
		l0.2-1c0.5,0.2,1,0.3,1.5,0.3c0.1,0,0.3,0,0.4,0L107,27.8c0.1,0,0.1-0.1,0.2,0c0.3,0.1,0.6,0.2,0.9,0.3c-0.2,0.3-0.5,0.5-0.8,0.6
		c-0.1,0-0.2,0-0.2,0l-0.2,0c-0.2,0-0.3,0-0.5,0c-0.6,0-1.2-0.2-1.8-0.4l-3.1-1.2l3.3,0.3c0.9,0.1,1.7,0.6,2.1,1.3l-0.9,0.1
		c0-0.1,0.1-0.2,0.1-0.3c0-0.1,0.1-0.2,0.2-0.3C106.6,28.1,106.8,27.9,107,27.8z"/>
</g>
<path class="st0" d="M61.4,101.8c-0.4,0.8-0.7,1.5-1.1,2.3c0.2,1.1,1.5,1.2,2.5,0.5S62.4,102.4,61.4,101.8z"/>
<path class="st0" d="M63.8,107c-0.6-0.6-1.8,0.2-1.7,1c0.1,0.9,1.1,1.4,2,1.3c0.5,0,1-0.2,1.2-0.7c0.2-0.4-0.1-1.1-0.6-1"/>
<path class="st0" d="M64.4,102.3c-0.4,1,0.1,2.4,1.1,2.8s2.4-0.4,2.4-1.5c0-1.1-1.5-2-2.4-1.2"/>
<path class="st0" d="M77.3,110.1c-1.2,0.9-2.9,0.5-4.2-0.3c-0.9-0.6-6.1-4-7-3.1c-1.1,0.8-1.3,2.6-0.2,3.5c1,0.9,2.9,0.4,3.3-0.9
	c0.4-1.3-0.9-2.8-2.2-2.5c-0.2-1.1,2.1-3.9,3.2-3.5c1,0.4,1.6,1.6,2,2.6c0.1,0.3,0.2,0.6,0.1,0.9c-0.2,0.4-0.7,0.6-1.2,0.7
	c-0.6,0.1-1.2,0.1-1.8,0"/>
<g>
	<g>
		<path d="M170.3,31.5c0.8-0.2,1.7-0.4,2.5-0.2l0.1,0l0,0.1c-0.4,1.4-0.8,2.8-1.4,4.2c-0.3,0.7-0.6,1.4-0.9,2
			c-0.4,0.7-0.8,1.3-1.2,1.9c-1.7,2.5-3.7,4.7-6,6.6c-1.2,0.9-2.3,1.8-3.5,2.7c-1.2,0.9-2.4,1.7-3.6,2.6c-1.2,0.8-2.5,1.6-3.9,2.2
			c-0.7,0.3-1.4,0.6-2.2,0.8c-0.2,0.1-0.4,0.1-0.6,0.1l-0.3,0l-0.1,0c-0.1,0-0.1,0-0.1,0l-0.1,0l-0.5-0.1c-0.2-0.1-0.4-0.2-0.7-0.2
			c-0.2-0.1-0.4-0.2-0.6-0.4c-0.2-0.2-0.3-0.3-0.5-0.5c-0.1-0.2-0.2-0.4-0.3-0.6c-0.1-0.2-0.1-0.4-0.1-0.6c-0.1-0.8,0-1.6,0.2-2.4
			c0.4-1.5,1.1-2.9,1.9-4.1c0.8-1.2,1.8-2.4,2.8-3.5c1-1.1,2.1-2.1,3.2-3.1c1.1-1,2.3-1.8,3.6-2.7c0.6-0.4,1.3-0.8,1.9-1.2
			c0.6-0.4,1.3-0.8,2-1c0.7-0.3,1.4-0.5,2.1-0.8c0.7-0.2,1.4-0.5,2.1-0.6C167.4,32.1,168.9,31.8,170.3,31.5z M170.3,31.5
			c-1.4,0.3-2.8,0.8-4.2,1.4c-1.3,0.6-2.6,1.3-3.9,2c-1.3,0.7-2.6,1.4-3.8,2.2c-1.2,0.8-2.4,1.6-3.5,2.6c-1.1,0.9-2.2,1.9-3.2,3
			c-1,1.1-1.9,2.2-2.7,3.4c-0.8,1.1-1.4,2.5-1.8,3.8c-0.4,1.3-0.4,2.9,0.7,3.4c0.1,0,0.3,0.1,0.4,0.1l0.5,0.1l0.1,0c0,0,0.1,0,0,0
			l0.1,0l0.2,0c0.2,0,0.3,0,0.5-0.1c0.7-0.1,1.3-0.4,2-0.7c1.3-0.6,2.5-1.4,3.8-2.2c1.2-0.8,2.4-1.6,3.6-2.5
			c1.2-0.9,2.3-1.8,3.5-2.7c2.2-1.8,4.2-4,5.8-6.4c0.4-0.6,0.8-1.2,1.2-1.8c0.4-0.6,0.8-1.2,1.1-1.9c0.7-1.3,1.4-2.6,1.9-3.9l0,0.1
			C172,31.2,171.1,31.3,170.3,31.5z"/>
	</g>
	<g>
		<path d="M144.7,55.9c0,0,0.1-0.3,0.4-0.8c0.1-0.3,0.3-0.6,0.5-0.9c0.1-0.2,0.2-0.4,0.3-0.5c0.1-0.2,0.3-0.3,0.4-0.5
			c1.2-1.5,2.9-3.3,4.7-5.1c1.8-1.8,3.7-3.5,5.1-4.8c0.2-0.1,0.3-0.3,0.5-0.4c0.2-0.1,0.4-0.2,0.5-0.3c0.3-0.2,0.6-0.4,0.9-0.5
			c0.5-0.3,0.8-0.4,0.8-0.4s-0.2,0.3-0.6,0.7c-0.2,0.2-0.4,0.5-0.6,0.8c-0.1,0.2-0.3,0.3-0.4,0.5c-0.1,0.2-0.3,0.3-0.5,0.4
			c-1.4,1.2-3.3,2.9-5.1,4.7c-1.8,1.8-3.5,3.7-4.7,5.1c-0.2,0.2-0.3,0.4-0.4,0.5c-0.2,0.1-0.3,0.3-0.5,0.4c-0.3,0.3-0.6,0.5-0.8,0.6
			C144.9,55.7,144.7,55.9,144.7,55.9z"/>
	</g>
</g>
<g>
	<path d="M141.9,78.3c-1.1-0.6-2.1-1.7-2.6-2.9c-0.3-0.6-0.5-1.3-0.5-2c0-0.7,0.1-1.5,0.7-2.1c0.6-0.6,1.4-0.9,2.2-0.8
		c0.4,0.1,0.8,0.2,1.1,0.6c0.1,0.1,0.3,0.3,0.4,0.5c0.1,0.2,0.2,0.4,0.2,0.6c0.2,0.8,0.1,1.7-0.4,2.3c-0.6,0.6-1.3,0.9-2.2,0.9
		c-0.9-0.1-1.5-0.6-1.9-1.2c-0.2-0.2-0.4-0.6-0.6-0.9c-0.1-0.3-0.2-0.7-0.3-1c-0.2-1.4,0.2-2.9,1-4c0.4-0.6,1-1.1,1.6-1.4
		c0.7-0.3,1.4-0.5,2.1-0.4c0.7,0.1,1.5,0.4,2,1.1c0.4,0.7,0.6,1.6,0,2.4l-0.1,0.2l-0.2,0c-1.2,0.2-2.4-0.1-3.4-0.7
		c-0.5-0.3-0.9-0.7-1.3-1.2c-0.3-0.5-0.6-1-0.7-1.6c0-0.2-0.1-0.5-0.1-0.9c0-0.3,0-0.6,0.1-0.9c0.1-0.6,0.4-1.1,0.7-1.6
		c0.6-1,1.6-1.8,2.8-2c0.6-0.1,1.2-0.1,1.8,0.1c0.3,0.1,0.6,0.3,0.8,0.6c0.1,0.1,0.1,0.1,0.1,0.2c0.1,0.1,0.1,0.2,0.1,0.3
		c0.1,0.2,0.1,0.4,0.1,0.5c0,0.4-0.1,0.7-0.3,1c-0.2,0.3-0.6,0.6-1,0.6c0,0,0,0-0.1,0l0,0l-0.1,0c-0.1,0-0.3,0-0.3-0.1
		c-0.2-0.1-0.4-0.2-0.5-0.3c-0.3-0.3-0.4-0.5-0.5-0.8c-0.2-0.6-0.3-1.1-0.3-1.6c-0.1-0.5-0.1-1.1,0-1.6c0-0.5,0.1-1.1,0.4-1.6
		c0.2-0.5,0.6-0.9,1.1-1.2c-0.4,0.3-0.7,0.8-0.8,1.3c-0.1,0.5-0.2,1-0.1,1.5c0,0.5,0.1,1,0.2,1.5c0.1,0.5,0.3,1,0.5,1.4
		c0.1,0.2,0.2,0.4,0.4,0.5c0.1,0,0.1,0.1,0.2,0.1c0,0,0,0,0,0l0.1,0l0,0c-0.1,0,0,0,0,0c0.2,0,0.4-0.3,0.4-0.6c0-0.1,0-0.2,0-0.2
		l0-0.1c0,0-0.1-0.1-0.1-0.1c-0.1-0.1-0.3-0.2-0.4-0.3c-0.4-0.1-0.8-0.2-1.2-0.1c-0.9,0.2-1.7,0.8-2.2,1.6c-0.3,0.4-0.4,0.8-0.5,1.3
		c0,0.2-0.1,0.5-0.1,0.7c0,0.2,0,0.4,0.1,0.7c0.1,0.4,0.3,0.9,0.5,1.2c0.3,0.4,0.6,0.7,1,1c0.8,0.5,1.7,0.8,2.6,0.6l-0.3,0.2
		c0.2-0.3,0.2-0.8-0.1-1.2c-0.3-0.4-0.7-0.6-1.3-0.7c-0.5-0.1-1.1,0.1-1.6,0.3c-0.5,0.2-0.9,0.6-1.3,1.1c-0.7,0.9-1,2.1-0.8,3.3
		c0.1,0.3,0.1,0.5,0.2,0.8c0.1,0.2,0.2,0.4,0.4,0.7c0.3,0.4,0.8,0.8,1.2,0.8c0.5,0.1,1-0.2,1.3-0.5c0.3-0.4,0.4-0.9,0.2-1.4
		c0-0.1-0.1-0.2-0.1-0.3c-0.1-0.1-0.1-0.1-0.2-0.3c-0.1-0.1-0.3-0.2-0.6-0.3c-0.4-0.1-1,0.1-1.3,0.5c-0.3,0.4-0.6,0.9-0.6,1.5
		c-0.1,0.6,0,1.2,0.2,1.8C140.2,76.3,140.9,77.4,141.9,78.3z"/>
</g>
<g>
	<path d="M146.6,53.6c0,0-0.1,0.1-0.2,0.2c-0.2,0.1-0.4,0.3-0.8,0.3c-0.4,0.1-0.8,0-1.3-0.1c-0.2-0.1-0.5-0.1-0.7-0.2
		c-0.3-0.1-0.5-0.3-0.7-0.4c-0.1-0.1-0.2-0.1-0.4-0.2l-0.1-0.1l-0.1,0l-0.2-0.1c-0.3-0.1-0.6-0.3-0.8-0.4c-0.6-0.2-1.2-0.4-1.8-0.6
		c-0.3-0.1-0.7-0.1-1-0.2c-0.3-0.1-0.7-0.1-1.1-0.2c-0.7-0.1-1.5-0.1-2.2-0.2c-1.5-0.1-3-0.1-4.4-0.2c-0.7-0.1-1.4-0.1-2.1-0.2
		c-0.7-0.1-1.3-0.2-1.8-0.3c-0.6-0.1-1.1-0.3-1.5-0.6c-0.4-0.3-0.8-0.5-1-0.7c-0.5-0.4-0.8-0.7-0.8-0.7s0.4,0.1,1,0.4
		c0.3,0.1,0.7,0.2,1.1,0.3c0.2,0.1,0.5,0.1,0.7,0.1c0.3,0,0.5,0.2,0.7,0.2c0.5,0.1,1.1,0.2,1.7,0.3c0.6,0.1,1.3,0.1,2,0.2
		c1.4,0.1,2.9,0.1,4.4,0.2c0.8,0,1.5,0.1,2.3,0.2c0.4,0,0.7,0.1,1.1,0.2c0.4,0.1,0.7,0.1,1.1,0.2c0.7,0.2,1.4,0.4,2,0.7
		c0.3,0.1,0.6,0.3,0.8,0.4l0.2,0.1l0.1,0.1l0.1,0.1c0.1,0.1,0.3,0.1,0.4,0.2c0.2,0.2,0.5,0.2,0.7,0.4c0.2,0.1,0.4,0.3,0.6,0.4
		c0.4,0.2,0.7,0.4,1,0.4c0.3,0.1,0.5,0,0.7,0C146.5,53.6,146.6,53.6,146.6,53.6z"/>
</g>
<g>
	<path d="M137.8,58.4c0,0,0.4-0.1,1.1-0.2c0.4-0.1,0.8-0.1,1.3-0.2c0.2,0,0.5-0.1,0.8-0.1c0.3,0,0.6,0,0.9,0c1.2,0,2.6,0,4.1,0.1
		c0.8,0,1.5,0.1,2.4,0.1c0.8,0.1,1.7,0.2,2.5,0.6c0.4,0.2,0.8,0.4,1.1,0.8c0.2,0.2,0.3,0.3,0.5,0.5c0.1,0.1,0.3,0.4,0.3,0.6
		c0.4,0.8,0.5,1.6,0.8,2.2c0.1,0.4,0.3,0.6,0.5,0.9c0.2,0.3,0.4,0.6,0.6,0.8c0.4,0.5,0.9,0.9,1.3,1.2c0.2,0.2,0.5,0.3,0.7,0.4
		c0.2,0.2,0.4,0.3,0.6,0.4c0.4,0.3,0.8,0.4,1.1,0.5c0.6,0.2,1.1,0.3,1.1,0.3s-0.1,0-0.3,0c-0.2,0-0.5,0-0.8,0
		c-0.4,0-0.8-0.1-1.3-0.2c-0.3-0.1-0.5-0.2-0.8-0.3c-0.3-0.1-0.5-0.3-0.8-0.5c-0.5-0.4-1-0.8-1.5-1.4c-0.2-0.3-0.5-0.6-0.7-0.9
		c-0.2-0.3-0.4-0.7-0.5-1.1c-0.3-0.8-0.4-1.5-0.8-2.2c-0.3-0.7-0.8-1.1-1.5-1.4c-1.3-0.6-2.9-0.6-4.4-0.7c-1.5-0.1-2.9-0.1-4.1-0.1
		c-0.3,0-0.6,0-0.9,0c-0.3,0-0.5-0.1-0.8-0.1c-0.5-0.1-0.9-0.1-1.3-0.2C138.2,58.5,137.8,58.4,137.8,58.4z"/>
</g>
<g>
	<path d="M135.7,49.4c0.3,0.3,0.5,0.7,0.7,1.1l0.5,0.9l-1.2-0.3c-0.2,0-0.3-0.2-0.5-0.3l-0.5-0.3c-0.3-0.2-0.6-0.4-0.9-0.7
		c-0.6-0.5-1.1-1-1.6-1.6c-0.5-0.6-0.9-1.3-1.2-2l-0.2-0.5c-0.1-0.2-0.2-0.3-0.2-0.6c0-0.4,0-0.8,0.1-1.2l0.7,0.9
		c0.2,0.1,0.2,0.3,0.2,0.5l0.2,0.5c0.3,0.6,0.7,1.2,1.1,1.8c0.4,0.5,0.9,1,1.5,1.5c0.3,0.2,0.6,0.4,0.8,0.6l0.4,0.3
		c0.1,0.1,0.3,0.1,0.5,0.3l-0.7,0.5C135.6,50.3,135.6,49.9,135.7,49.4z"/>
</g>
<g>
	<path d="M190.1,71c2,1,3.9,2.3,5.4,4c0.7,0.9,1.4,1.8,1.8,2.9c0.4,1.1,0.6,2.2,0.7,3.4c0,1.1-0.2,2.4-0.9,3.4
		c-0.7,1-1.9,1.6-3.1,1.7c-2.4,0.3-4.8-0.6-6.6-2.1c-0.9-0.8-1.7-1.7-2.2-2.7c-0.3-0.6-0.5-1-0.7-1.6c-0.2-0.6-0.4-1.1-0.5-1.7
		c-0.2-1.2-0.2-2.4,0-3.5c0.3-1.2,0.7-2.2,1.2-3.3c1-2,2.2-3.9,2.8-6c0.6-2.1,0.8-4.3,1-6.5c0.1-2.2,0.1-4.4-0.1-6.6
		c-0.2-2.2-0.6-4.4-1.5-6.3c-0.4-1-1-1.9-1.8-2.5c-0.8-0.7-1.8-1-2.8-0.9c-2.1,0.1-4.1,1.3-5.8,2.6c-1.5,1.3-2.3,3.5-2.3,5.7
		c-0.1,2.1,0.7,4.2,1.7,6.1c1.1,1.9,2.5,3.7,3.9,5.4c0.8,1,1.1,2.2,1.5,3.2c0.2,0.5,0.4,1,0.7,1.3c0.3,0.3,0.7,0.5,1.2,0.5l0.6,0.1
		l-0.2,0.6l-0.5,1.8l-0.8,1.8l-1,1.7l-1.1,1.5l-1.3,1.4l-1.4,1.3l-1.5,1.1l-1.6,1l-1.7,0.8l-1.8,0.6l-1.9,0.5l-1.9,0.3l-1.9,0.1
		l-1.9-0.1l-1.9-0.4l-1.8-0.6l-0.4-0.1l0.1-0.5l2.2-9.2L163,66c0.2-0.8,0.4-1.6,0.6-2.3c0.3-0.8,0.7-1.6,1.3-2.2
		c0.2-0.2,0.3-0.3,0.5-0.4c0.2-0.1,0.4-0.3,0.6-0.4c0.4-0.2,0.8-0.4,1.3-0.4c0.9-0.2,1.7-0.1,2.5,0c1.6,0.3,3.2,0.9,4.6,1.5l8.7,3.8
		l-0.7,0.3c0.3-0.8,0.9-1.2,1.4-1.6c0.5-0.4,1.1-0.7,1.7-1l0.2-0.1l0.2,0.1c1.2,0.5,2.6,0.5,3.9,0.3c1.4-0.2,2.8-0.5,4.2-0.6
		c1.5-0.1,2.9,0.1,4.3,0.6c0.7,0.3,1.4,0.7,1.9,1.2c0.5,0.5,1,1.2,1.2,1.9c0.5,1.5,0,3.1-0.7,4.3c-0.8,1.2-2,2.2-3.3,2.7
		c-0.7,0.3-1.4,0.4-2.1,0.5c-0.7,0.1-1.5-0.1-2.1-0.6c-0.6-0.4-1-1-1.6-1.4C191.3,71.6,190.7,71.3,190.1,71z M190.1,71
		c0.6,0.3,1.3,0.6,1.8,1.1c0.6,0.4,1,1,1.6,1.4c0.6,0.4,1.3,0.5,1.9,0.5c0.7-0.1,1.4-0.2,2-0.5c1.3-0.6,2.3-1.5,3-2.7
		c0.3-0.6,0.6-1.2,0.7-1.9c0.1-0.6,0.1-1.3-0.1-1.9c-0.4-1.3-1.5-2.2-2.8-2.6c-1.3-0.4-2.7-0.5-4-0.4c-1.4,0.1-2.7,0.4-4.2,0.6
		c-1.4,0.2-3,0.2-4.4-0.3l0.4,0c-0.5,0.3-1.1,0.6-1.6,0.9c-0.5,0.3-0.9,0.7-1.1,1.1l-0.2,0.5l-0.5-0.2l-8.7-3.8
		c-1.4-0.6-2.9-1.2-4.4-1.5c-0.7-0.1-1.5-0.1-2.2,0c-0.4,0.1-0.7,0.2-1,0.3c-0.1,0.1-0.3,0.2-0.4,0.3c-0.1,0.1-0.3,0.3-0.4,0.4
		c-1,1-1.3,2.6-1.7,4.1l-1.1,4.6l-2.2,9.2l-0.3-0.6l1.7,0.6l1.8,0.3l1.8,0.1l1.8-0.1l1.8-0.3l1.8-0.4l1.7-0.6l1.6-0.8l1.6-0.9
		l1.5-1.1l1.4-1.2l1.2-1.3l1.1-1.5l0.9-1.6l0.7-1.7l0.5-1.7l0.4,0.6c-0.6,0-1.3-0.3-1.8-0.8c-0.5-0.5-0.7-1.1-0.9-1.6
		c-0.4-1.1-0.7-2.1-1.4-2.9c-1.4-1.7-2.8-3.5-4-5.5c-1.1-2-1.9-4.3-1.9-6.7c0-2.3,0.8-4.8,2.7-6.4c0.2-0.2,0.4-0.3,0.7-0.5l0.7-0.5
		c0.5-0.3,1-0.6,1.5-0.8c1.1-0.5,2.2-0.9,3.4-0.9c1.2,0,2.5,0.4,3.4,1.2c1,0.8,1.6,1.8,2.1,2.9c1,2.1,1.4,4.4,1.6,6.7
		c0.2,2.3,0.2,4.5,0.1,6.8c-0.2,2.3-0.4,4.5-1,6.8c-0.7,2.2-1.9,4.2-2.9,6.1c-0.5,1-0.9,2-1.1,3c-0.2,1-0.2,2.1,0,3.1
		c0.1,0.5,0.3,1,0.4,1.5c0.2,0.5,0.4,1.1,0.7,1.5c0.5,0.9,1.2,1.8,2,2.4c1.6,1.4,3.7,2.3,5.8,2.1c1-0.1,2-0.5,2.7-1.4
		c0.6-0.8,0.9-1.9,0.9-3c0-1.1-0.2-2.2-0.5-3.2c-0.4-1-0.9-2-1.6-2.9C193.9,73.4,192,72,190.1,71z"/>
</g>
<g>
	<path d="M184.3,65.4c-1.8-3.1-4-6.1-6.4-8.7c-1.2-1.3-2.5-2.6-3.9-3.8c-1.3-1.2-2.8-2.3-4.2-3.4l-1.1-0.8L170,49l1.4,0.4l1.3,0.5
		l1.3,0.6l1.2,0.7l1.2,0.8l1.1,0.9l1.1,1l1,1l0.9,1.1l0.8,1.2l0.7,1.2l0.6,1.3l0.5,1.3l0.4,1.4l0.3,1.4l0.2,1.4l-0.5-0.1
		c1.7-4.8,2.7-9.8,2.9-14.8l0.5,0c-0.8,5.6-1.2,11.3-1.2,16.9l-0.5-0.1c3.5-4.9,7.7-9.2,12.6-12.8l0.2-0.2l0.1,0.3
		c0.2,0.4,0.3,0.8,0.2,1.2c0,0.4-0.2,0.8-0.4,1.1c-0.4,0.7-1,1.2-1.6,1.6c-0.6,0.4-1.2,0.8-1.9,1.2c-0.6,0.4-1.2,0.8-1.8,1.2
		c-2.2,1.8-3.9,4.3-4.8,7.1c0.8-2.8,2.4-5.4,4.6-7.3c0.5-0.5,1.1-0.9,1.8-1.3c0.6-0.4,1.2-0.8,1.8-1.2c0.6-0.4,1.1-0.9,1.5-1.5
		c0.2-0.3,0.3-0.6,0.3-0.9c0-0.3,0-0.6-0.2-0.9l0.4,0.1c-4.8,3.5-9,7.8-12.4,12.6l-0.4,0.6l0-0.8c-0.1-5.7,0.3-11.4,1.2-17l0.5,0
		c-0.2,5.1-1.2,10.2-2.9,15l-0.3,1l-0.1-1l-0.2-1.4l-0.3-1.4l-0.4-1.3l-0.5-1.3l-0.6-1.2l-0.7-1.2l-0.8-1.1l-0.9-1.1l-1-1l-1-0.9
		l-1.1-0.9l-1.2-0.8l-1.2-0.7l-1.3-0.6l-1.3-0.5l-1.3-0.4l0.2-0.4c1.5,1.1,2.9,2.2,4.3,3.4c0.7,0.6,1.3,1.2,2,1.9
		c0.6,0.7,1.2,1.3,1.8,2C180.6,59.2,182.6,62.2,184.3,65.4z"/>
</g>
<path class="st0" d="M183.3,70.4c0.4-1,0.1-2.3-0.7-3c0.3,0.6,0.6,1.3,0.9,1.9"/>
<path class="st0" d="M184.4,70.4c-0.4-0.9-0.9-1.7-1.3-2.6c1.3-0.5,2.8-0.7,4.2-0.4"/>
</svg>
