<?xml version="1.0" encoding="utf-8"?>
<!-- Generator: Adobe Illustrator 19.2.1, SVG Export Plug-In . SVG Version: 6.00 Build 0)  -->
<svg version="1.1" id="Laag_1" xmlns="http://www.w3.org/2000/svg" xmlns:xlink="http://www.w3.org/1999/xlink" x="0px" y="0px"
	 viewBox="0 0 127.5 115.7" style="enable-background:new 0 0 127.5 115.7;" xml:space="preserve">
<g>
	<g>
		<path d="M43.5,81.7c-1.4,0.5-2.9,0.5-4.4,0.4l-2.2-0.2c-0.7,0-1.4-0.1-2.1,0c-0.7,0.1-1.4,0.2-2,0.5c-0.6,0.2-1.2,0.6-1.8,1
			c-0.5,0.4-0.9,0.9-1.2,1.5c0,0.1-0.1,0.3-0.1,0.4c0,0.1,0,0.3,0,0.4c0,0.2,0,0.4,0,0.5c0,0.1,0.1,0.3,0.1,0.4
			c0.4,1.2,1.6,2,2.9,2.3c0.7,0.2,1.3,0.2,2,0.2c0.7,0,1.3-0.2,2-0.4c0.6-0.2,1.3-0.5,1.9-0.9c0.6-0.3,1.2-0.7,1.9-1.1
			c1.3-0.7,2.6-1.5,4-2l-0.3,0.4l0.1-1.2l0.1-0.6l0-0.2l0-0.1l0,0l0-0.1l0.1-0.3c0.1-0.2,0.2-0.6,0.4-0.7c0.1-0.2,0.3-0.4,0.5-0.6
			c0.3-0.3,0.7-0.6,1.1-0.8c0.8-0.5,1.6-0.8,2.4-1c0.4-0.1,0.9-0.2,1.3-0.2c0.2,0,0.5,0,0.7,0c0.2,0,0.5,0.1,0.7,0.2l0.4,0.2
			l-0.1,0.5c-2,6.3-3.4,12.8-4.1,19.4l-0.3-0.5c1.1,0.5,2.4,0.4,3.5-0.1c0.6-0.2,1.1-0.6,1.5-1c0.2-0.2,0.4-0.4,0.6-0.7
			c0.2-0.2,0.3-0.5,0.5-0.8c0.6-1.1,0.9-2.4,1-3.7c0.1-0.7,0.1-1.3,0-2c0-0.6-0.1-1.3-0.2-1.9c-0.2-1.3-0.6-2.5-1.1-3.8
			c-0.2-0.6-0.5-1.2-0.8-1.8c-0.2-0.3-0.3-0.6-0.5-0.9l0,0l0,0c0,0-0.1-0.1,0.1,0.1l0,0l0,0c0,0,0,0,0,0c-0.1,0-0.1-0.1-0.2-0.1
			c-0.1,0-0.3-0.1-0.5-0.1c-1.3-0.3-2.6-0.5-4-0.6c-0.7-0.1-1.3-0.1-2-0.2c-0.3,0-0.7,0-1,0c-0.2,0-0.3,0-0.5,0c-0.1,0-0.2,0-0.2,0
			C43.6,81.6,43.4,81.6,43.5,81.7z M43.5,81.7c0-0.1,0.1-0.1,0.2-0.2c0.1,0,0.2-0.1,0.2-0.1c0.2,0,0.3-0.1,0.5-0.1
			c0.3,0,0.7-0.1,1-0.1c0.7,0,1.4,0,2,0c1.4,0,2.7,0.1,4.1,0.3c0.2,0,0.3,0.1,0.5,0.1c0.1,0,0.2,0.1,0.3,0.1c0.1,0,0.2,0.1,0.2,0.1
			l0.1,0l0,0l0.1,0.1l0,0l0,0c0.2,0.3,0.4,0.6,0.6,0.9c0.4,0.6,0.7,1.2,1,1.8c0.6,1.3,0.9,2.6,1.2,4c0.1,0.7,0.2,1.4,0.2,2.1
			c0,0.7,0,1.4,0,2.1c-0.1,1.4-0.5,2.8-1.2,4.1c-0.2,0.3-0.4,0.6-0.6,0.9c-0.2,0.3-0.5,0.6-0.7,0.8c-0.5,0.5-1.1,0.9-1.8,1.2
			c-1.3,0.6-2.9,0.7-4.3,0.1l-0.3-0.1l0-0.4c0.7-6.7,2.1-13.2,4.1-19.6l0.3,0.6c-0.1,0-0.3-0.1-0.5-0.1c-0.2,0-0.4,0-0.5,0
			c-0.4,0-0.7,0.1-1.1,0.2c-0.7,0.2-1.5,0.5-2.1,0.9c-0.3,0.2-0.6,0.4-0.9,0.7c-0.1,0.1-0.2,0.3-0.3,0.4c-0.1,0.2-0.1,0.2-0.2,0.4
			l-0.1,0.3l0,0l0,0c0-0.1,0,0,0-0.1l0,0l0,0l0,0l0,0.1l0,0.2l-0.1,0.6l-0.1,1.2l0,0.3l-0.3,0.1c-1.3,0.4-2.6,1.1-3.8,1.9
			c-1.3,0.7-2.5,1.5-4,2.1c-0.7,0.3-1.5,0.5-2.3,0.5c-0.8,0-1.6-0.1-2.3-0.3c-0.8-0.2-1.5-0.5-2.1-1c-0.6-0.5-1.2-1.1-1.5-2
			c-0.1-0.2-0.1-0.4-0.2-0.7c0-0.2,0-0.4,0-0.6c0-0.5,0.1-0.9,0.2-1.3c0.3-0.8,0.8-1.4,1.5-1.9c0.6-0.5,1.4-0.8,2.1-1
			c0.7-0.2,1.5-0.3,2.3-0.3c0.7,0,1.5,0.1,2.2,0.2l2.2,0.3C40.6,81.9,42.1,82.1,43.5,81.7z"/>
	</g>
	<g>
		<path d="M47.7,71.9c-0.8-1.8-1.5-3.7-2.2-5.6l-1.1-2.8c-0.4-0.9-0.6-1.9-1-2.8l0.4,0.3c-1-0.2-1.9-0.3-2.9-0.1
			c-0.9,0.1-1.8,0.5-2.2,1.2c-0.1,0.1-0.1,0.2-0.1,0.3l0,0.1l0,0c0,0,0,0,0,0l0,0c0,0.1,0,0.1,0,0.2c0,0.2,0,0.4,0,0.6
			c0.1,0.4,0.2,0.8,0.5,1.2c0.2,0.4,0.5,0.8,0.9,1.1c0.4,0.4,0.7,0.7,1.1,1c1.5,1.3,3.2,2.4,4.8,3.8c0.4,0.3,0.8,0.7,1.2,1.1
			c0.4,0.4,0.7,0.8,1,1.2c0.3,0.4,0.6,0.9,0.8,1.4c0.1,0.3,0.2,0.5,0.3,0.8l0.2,0.8l-0.8-0.3c1.1-0.8,2.3-1.2,3.2-1.8
			c0.5-0.3,0.9-0.7,1-1.1c0.1-0.1,0.1-0.2,0.1-0.3c0-0.1,0-0.3,0.1-0.5c0-0.3,0.1-0.6,0.2-0.9c0.5-2.5,1.6-4.8,2.9-6.9
			c0.7-1.1,1.4-2.1,2.1-3.1c0.7-1,1.4-2,2.2-3c0.8-1,1.6-2,2.5-2.8c0.5-0.4,1-0.8,1.5-1.2c0.5-0.4,1.1-0.6,1.7-0.9l-0.3,0.5
			c-0.1-2.9,0.4-5.7,1.7-8.2c-0.9,2.6-1.2,5.4-0.8,8.1l0,0.3l-0.3,0.2c-0.5,0.2-1,0.6-1.5,0.9c-0.5,0.3-1,0.7-1.4,1.1
			c-0.9,0.8-1.7,1.7-2.4,2.7c-0.7,1-1.5,2-2.2,3c-0.7,1-1.4,2-2,3c-0.6,1-1.2,2.1-1.7,3.2c-0.2,0.6-0.5,1.1-0.6,1.7
			c-0.2,0.6-0.3,1.2-0.5,1.7c-0.1,0.3-0.1,0.6-0.2,0.9c0,0.2,0,0.3-0.1,0.5c0,0.2-0.1,0.4-0.2,0.6c-0.3,0.7-0.9,1.2-1.4,1.6
			c-1.1,0.7-2.3,1.1-3.2,1.8l-0.6,0.4l-0.2-0.7l-0.2-0.7c-0.1-0.2-0.2-0.4-0.3-0.7c-0.2-0.4-0.4-0.8-0.7-1.2
			c-0.3-0.4-0.6-0.8-0.9-1.1c-0.3-0.4-0.7-0.7-1.1-1c-1.5-1.3-3.2-2.4-4.8-3.8c-0.4-0.4-0.8-0.7-1.1-1.1c-0.4-0.4-0.7-0.8-1-1.3
			c-0.3-0.5-0.5-1-0.6-1.6c0-0.3,0-0.6,0-0.9l0-0.2l0,0l0,0l0,0l0-0.1c0.1-0.1,0.1-0.3,0.2-0.4c0.3-0.6,0.8-1,1.3-1.2
			c0.5-0.3,1.1-0.4,1.6-0.5c1.1-0.1,2.2,0,3.2,0.1l0.3,0.1l0.1,0.3c0.3,0.9,0.7,1.9,0.9,2.8l0.8,2.9C46.7,68.1,47.2,70,47.7,71.9z"
			/>
	</g>
	<g>
		<path d="M74.6,49.1c-0.1-0.2-0.2-0.5-0.2-0.7c-0.1-0.2-0.2-0.4-0.3-0.6c-0.3-0.4-0.5-0.8-0.8-1.1c-0.6-0.7-1.3-1.4-1.9-2.1
			c-0.3-0.4-0.7-0.7-1-1.1C70,43,69.7,42.6,69.6,42c-0.2-0.5-0.3-1.1-0.2-1.6c0-0.3,0.1-0.5,0.1-0.8c0.1-0.3,0.2-0.5,0.3-0.8
			c0.2-0.5,0.5-0.9,0.8-1.3c0.3-0.4,0.7-0.8,1.1-1.1c0.8-0.7,1.7-1.2,2.8-1.4c0.3,0,0.5-0.1,0.8,0c0.2,0,0.6,0.1,0.8,0.2
			c0.5,0.2,1,0.5,1.4,0.9c0.4,0.4,0.7,0.9,0.9,1.4c0.2,0.5,0.2,1.2-0.1,1.7l-0.8-0.6c1.1-0.9,2.3-1.8,3.7-2.3
			c0.3-0.1,0.7-0.3,1.1-0.3c0.4-0.1,0.8-0.1,1.2-0.1c0.4,0,0.8,0.1,1.2,0.2c0.4,0.1,0.7,0.3,1.1,0.6c0.2,0.2,0.3,0.3,0.4,0.4
			c0.1,0.1,0.3,0.3,0.4,0.5c0.2,0.4,0.4,0.7,0.5,1.1c0.2,0.8,0.2,1.6,0,2.3c-0.1,0.7-0.3,1.5-0.6,2.1c-0.3,0.7-0.6,1.3-0.9,2
			l-0.6-0.7c1.2-0.5,2.5-0.1,3.3,0.8c0.2,0.2,0.4,0.5,0.5,0.8c0,0.1,0.1,0.3,0.1,0.4c0,0.2,0,0.3,0,0.5c0,0.6-0.2,1.2-0.5,1.7
			c-0.3,0.5-0.8,0.9-1.4,1.1c-0.6,0.2-1.1,0.2-1.6,0.3c-0.5,0-0.9,0.1-1.3,0.3c-0.3,0.2-0.5,0.4-0.7,0.8c-0.1,0.2-0.2,0.4-0.3,0.7
			c-0.1,0.2-0.2,0.5-0.4,0.7c-0.3,0.5-0.7,0.9-1.2,1.2c-0.9,0.7-2.1,0.8-3.2,0.6L78,54.3l-0.4-0.1c-0.3-0.1-0.5-0.2-0.7-0.4
			c-0.4-0.3-0.8-0.7-1.1-1.1c-0.6-0.9-0.9-1.9-0.7-2.9c0,1,0.4,2,1,2.7c0.3,0.4,0.7,0.7,1.1,0.9c0.2,0.1,0.4,0.2,0.6,0.3l0.4,0.1
			l0.3,0c0.9,0.1,1.8-0.3,2.5-0.7c0.4-0.2,0.7-0.6,0.9-0.9c0.1-0.2,0.2-0.3,0.3-0.6l0.3-0.7c0.1-0.3,0.2-0.5,0.4-0.8
			c0.2-0.3,0.5-0.5,0.8-0.6c0.6-0.3,1.1-0.3,1.6-0.3c0.5,0,1-0.1,1.3-0.2c0.4-0.1,0.7-0.4,0.9-0.7c0.2-0.3,0.3-0.7,0.3-1.1
			c0-0.1,0-0.2,0-0.3c0-0.1,0-0.2-0.1-0.3c-0.1-0.2-0.2-0.3-0.3-0.5c-0.5-0.6-1.5-0.8-2.2-0.5L84,46l0.7-1.3
			c0.7-1.2,1.2-2.5,1.4-3.8c0.1-0.7,0.1-1.3,0-1.9c-0.1-0.3-0.2-0.6-0.3-0.8c-0.1-0.1-0.1-0.2-0.3-0.3c-0.1-0.1-0.3-0.3-0.4-0.3
			c-0.5-0.4-1.1-0.6-1.7-0.6c-0.3,0-0.6,0-0.9,0.1c-0.3,0.1-0.6,0.2-0.9,0.3c-1.2,0.5-2.4,1.3-3.4,2.2l-1.6,1.4l0.8-1.9
			c0.3-0.7,0-1.5-0.6-2.1c-0.3-0.3-0.6-0.5-1-0.6c-0.2-0.1-0.3-0.1-0.6-0.1c-0.2,0-0.4,0-0.6,0c-0.8,0.1-1.6,0.6-2.3,1.1
			c-0.3,0.3-0.6,0.6-0.9,1c-0.3,0.4-0.5,0.7-0.7,1.1c-0.1,0.2-0.2,0.4-0.2,0.6c0,0.2-0.1,0.4-0.1,0.6c0,0.4,0,0.8,0.2,1.2
			c0.1,0.4,0.3,0.8,0.6,1.2c0.2,0.4,0.5,0.8,0.8,1.2c0.6,0.8,1.2,1.5,1.7,2.3c0.3,0.4,0.5,0.8,0.7,1.3c0.1,0.2,0.2,0.5,0.2,0.7
			C74.5,48.6,74.6,48.8,74.6,49.1z"/>
	</g>
	<g>
		<g>
			<path d="M56.2,62.4c0,0,0-0.9-0.1-2.5c0-0.8-0.1-1.7-0.3-2.8c-0.1-0.5-0.2-1.1-0.3-1.7c-0.1-0.6-0.2-1.2-0.4-1.9
				c-0.3-1.3-0.8-2.6-1.6-3.9c-0.8-1.3-1.8-2.5-3.1-3.4c-0.3-0.2-0.7-0.4-1-0.6c-0.4-0.2-0.8-0.4-1.2-0.6c-0.4-0.2-0.8-0.5-1.1-0.8
				c-0.4-0.3-0.7-0.6-1-0.9c-1.3-1.2-2.5-2.7-3.5-4.2c-2.1-3-3.7-6.3-5.2-9.3c-0.7-1.5-1.5-3-2.1-4.4c-0.7-1.4-1.3-2.8-1.8-4.1
				c-0.2-0.7-0.5-1.3-0.6-1.9c-0.1-0.6-0.2-1.2-0.2-1.8c-0.1-1.1,0-2.1,0.2-2.9c0.2-0.8,0.4-1.4,0.6-1.7c0.2-0.4,0.3-0.6,0.3-0.6
				s-0.1,0.2-0.2,0.6c-0.1,0.4-0.3,1-0.4,1.8c-0.1,0.8,0,1.7,0.2,2.8c0.1,0.5,0.2,1.1,0.4,1.6c0.2,0.6,0.3,1.2,0.6,1.8
				c0.4,1.2,1,2.6,1.7,3.9c0.7,1.4,1.4,2.9,2.1,4.4c1.5,3,3.1,6.2,5.1,9.2c1,1.5,2.1,2.8,3.4,4c0.3,0.3,0.6,0.6,1,0.8
				c0.3,0.2,0.7,0.5,1,0.7c0.4,0.2,0.7,0.4,1.1,0.6c0.4,0.2,0.8,0.4,1.2,0.7c1.5,1,2.6,2.3,3.4,3.7c0.8,1.4,1.4,2.8,1.7,4.2
				c0.2,0.7,0.3,1.3,0.4,2c0.1,0.6,0.1,1.2,0.1,1.8c0,1.1,0,2.1-0.1,2.9C56.3,61.5,56.2,62.4,56.2,62.4z"/>
		</g>
		<g>
			<path d="M38.9,30.4c0,0-0.2-0.5-0.3-1.5c-0.1-0.5-0.2-1-0.2-1.7c0-0.3-0.1-0.7-0.1-1.1c0-0.4,0.1-0.8,0.1-1.2
				c0.1-0.8,0.2-1.7,0.4-2.6c0.2-0.9,0.4-1.9,0.8-2.9c0.2-0.5,0.5-1,0.9-1.4c0.4-0.4,1-0.8,1.7-0.9c0.1,0,0.2,0,0.4,0
				c0.2,0,0.4,0,0.5,0.1c0.3,0.1,0.6,0.3,0.9,0.5c0.5,0.4,0.8,1,1,1.5c0.4,1.1,0.6,2.2,0.5,3.4c-0.1,1-0.1,2.1-0.3,3.1
				c-0.2,2-0.6,3.9-0.9,5.5c-0.1,0.4-0.1,0.8-0.3,1.1c-0.1,0.3-0.3,0.7-0.4,1c-0.2,0.6-0.5,1.1-0.7,1.6c-0.4,0.9-0.6,1.3-0.6,1.3
				s0.1-0.5,0.3-1.5c0.1-0.5,0.2-1,0.3-1.7c0-0.3,0.1-0.7,0.2-1c0-0.4,0.2-0.7,0.3-1.1c0.4-1.5,0.7-3.4,0.9-5.3c0.1-1,0.2-2,0.3-3.1
				c0.1-1-0.1-2-0.4-2.9c-0.4-0.9-1-1.6-1.9-1.5c-0.7,0.1-1.4,0.9-1.7,1.7c-0.3,0.8-0.6,1.8-0.8,2.7c-0.2,0.9-0.3,1.7-0.4,2.5
				c-0.1,0.4,0,0.8-0.1,1.1c-0.1,0.4-0.1,0.7-0.1,1C39,27.9,39,28.5,39,29C38.9,29.9,38.9,30.4,38.9,30.4z"/>
		</g>
		<g>
			<path d="M32.7,21.1c0,0,0-0.2,0.1-0.5c0-0.3,0-0.7-0.1-1.3c-0.1-0.5-0.3-1.1-0.7-1.8c-0.2-0.3-0.4-0.6-0.7-0.9
				c-0.3-0.3-0.5-0.7-0.9-1C29.8,15,29,14.5,28,13.9c-0.9-0.5-2-1-3-1.6c-1.1-0.6-2.1-1.4-3.2-1.7c-0.5-0.2-1.1-0.2-1.5,0.1
				c-0.5,0.2-0.7,0.6-0.9,1.1c-0.3,1,0,2.3,0.8,3c0.8,0.8,1.9,1.3,3,1.7c1.1,0.4,2.2,0.8,3.2,1.3c1,0.5,1.9,1,2.7,1.6
				c0.4,0.3,0.8,0.5,1.1,0.8c0.3,0.3,0.6,0.6,0.9,0.9c0.6,0.6,1,1.1,1.4,1.5c0.4,0.4,0.6,0.8,0.8,1.1c0.2,0.3,0.3,0.4,0.3,0.4
				s-0.5-0.5-1.3-1.2c-0.4-0.4-0.9-0.8-1.6-1.2c-0.3-0.2-0.7-0.5-1-0.7c-0.4-0.2-0.7-0.5-1.1-0.8c-0.8-0.5-1.7-1-2.6-1.5
				c-0.9-0.5-2-0.9-3.2-1.3c-1.1-0.4-2.4-1-3.3-2c-1-1-1.4-2.6-1.1-4c0.1-0.4,0.3-0.7,0.5-1c0.1-0.2,0.3-0.3,0.4-0.4l0.3-0.2
				l0.2-0.1c0.7-0.4,1.5-0.3,2.2-0.1c1.4,0.4,2.3,1.2,3.4,1.8c2.1,1.1,4.2,2.1,5.7,3.5c0.4,0.4,0.7,0.7,1,1.1
				c0.2,0.4,0.4,0.8,0.6,1.2c0.3,0.8,0.4,1.5,0.4,2.1c0,0.6-0.1,1-0.2,1.3C32.8,20.9,32.7,21.1,32.7,21.1z"/>
		</g>
	</g>
	<g>
		<path d="M49.5,76.4c-2.8,0-5.6,0.4-8.2,1.2l-0.5,0.2l-0.1-0.6c-0.1-0.9-0.5-1.7-1.2-2.4c-0.3-0.3-0.7-0.6-1.1-0.8
			c-0.2-0.1-0.4-0.2-0.6-0.3c-0.2-0.1-0.5-0.2-0.7-0.2c-0.3-0.1-0.5-0.1-0.7-0.1c-0.2,0-0.5,0-0.7-0.1c-0.5,0-1,0-1.5,0.1
			c-1,0.1-2,0.3-3,0.5l0.3-0.2c0,0.1-0.1,0.2-0.1,0.3c0,0.1,0,0.2,0,0.3c0,0.2,0.2,0.5,0.3,0.6c0.2,0.2,0.4,0.3,0.6,0.4
			c0.1,0,0.2,0,0.3,0c0.1,0,0.2,0,0.3-0.1l-0.2,0.2c0.3-0.6,0.3-1.2,0.1-1.8c-0.2-0.6-0.6-1.2-1.1-1.6c-0.5-0.4-1.1-0.7-1.8-0.8
			c-0.6-0.1-1.3,0-1.9,0.3c-1.2,0.5-2.2,1.6-2.8,2.9c-0.3,0.6-0.5,1.4-0.5,2c0,0.6,0.2,1.4,0.6,1.5c0.1,0.1,0.4,0,0.5-0.1
			c0.2-0.1,0.3-0.4,0.3-0.6c0.1-0.6-0.3-1.1-0.8-1.4c-0.5-0.3-1.2-0.5-1.8-0.4c-0.3,0.1-0.6,0.2-0.8,0.4c-0.2,0.2-0.5,0.4-0.7,0.7
			c-0.4,0.5-0.6,1.2-0.8,1.9c-0.1,0.7-0.1,1.4,0,2c0.2,0.6,0.5,1.3,0.9,1.7c0.4,0.5,1,0.7,1.5,0.5l-0.3,0.3c0.1-0.2,0-0.4-0.3-0.7
			c-0.3-0.2-0.7-0.4-1-0.6c-0.4-0.1-0.8-0.2-1.3-0.3c-0.4-0.1-0.9-0.1-1.3-0.2c-0.9,0-1.8,0.2-2.4,0.8c-0.3,0.3-0.5,0.7-0.7,1.1
			C16,83.5,16,84,16.3,84.4c-0.3-0.4-0.4-0.9-0.4-1.3c0.1-0.5,0.3-0.9,0.6-1.3c0.2-0.2,0.3-0.4,0.5-0.5c0.1-0.1,0.2-0.1,0.3-0.2
			c0.1-0.1,0.2-0.1,0.3-0.2c0.5-0.2,1-0.3,1.4-0.3c0.5,0,1,0,1.5,0l0.7,0.1c0.2,0,0.5,0.1,0.7,0.1c0.5,0.1,1,0.3,1.4,0.7
			c0.2,0.2,0.4,0.4,0.6,0.8c0.1,0.3,0.1,0.7,0,1L24,83.4l-0.2,0.1c-0.4,0.2-1,0.2-1.4,0c-0.5-0.1-0.8-0.4-1.1-0.7
			c-0.6-0.6-1-1.4-1.2-2.2c-0.2-0.8-0.2-1.6,0-2.4c0.1-0.8,0.4-1.6,0.9-2.3c0.3-0.3,0.5-0.6,0.9-0.9c0.3-0.2,0.7-0.5,1.2-0.5
			c0.9-0.2,1.8,0,2.5,0.5c0.4,0.2,0.7,0.6,0.9,1c0.1,0.2,0.2,0.4,0.3,0.7c0,0.1,0,0.3,0,0.4c0,0.1,0,0.2,0,0.3c0,0.5-0.2,1-0.6,1.3
			c-0.4,0.4-1.1,0.5-1.6,0.3c-0.5-0.3-0.8-0.7-0.9-1.1c-0.2-0.4-0.2-0.9-0.2-1.3c0.1-0.9,0.3-1.6,0.6-2.4c0.7-1.5,1.8-2.7,3.3-3.4
			c0.8-0.3,1.6-0.5,2.5-0.3c0.9,0.1,1.6,0.5,2.3,1.1c0.6,0.5,1.2,1.2,1.4,2.1c0.3,0.8,0.3,1.8-0.1,2.6l-0.1,0.2l-0.2,0.1
			c-0.2,0.1-0.4,0.1-0.7,0.2c-0.2,0-0.5,0-0.7-0.1c-0.4-0.1-0.8-0.4-1-0.7c-0.3-0.3-0.5-0.7-0.5-1.1c0-0.2,0-0.4,0-0.7
			c0-0.2,0.1-0.4,0.3-0.6l0.1-0.2l0.2,0c1-0.2,2-0.4,3.1-0.5c0.5-0.1,1.1-0.1,1.6-0.1c0.3,0,0.5,0,0.8,0.1c0.3,0,0.6,0.1,0.8,0.1
			c0.3,0.1,0.5,0.1,0.8,0.2c0.3,0.1,0.5,0.2,0.8,0.3c0.5,0.3,1,0.6,1.4,1c0.4,0.4,0.8,0.8,1,1.4c0.1,0.3,0.2,0.5,0.3,0.8
			c0.1,0.3,0.1,0.6,0.1,0.9l-0.6-0.4C43.9,76.2,46.7,76,49.5,76.4z"/>
	</g>
	<g>
		<path d="M75.5,79.8c-0.5,1.3-1.1,2.6-2.3,3.4c-0.6,0.4-1.5,0.6-2.2,0.3l-0.2-0.1c-0.1,0-0.2-0.1-0.3-0.2c-0.2-0.1-0.4-0.2-0.5-0.4
			c-0.3-0.3-0.5-0.6-0.7-0.9c-0.3-0.7-0.5-1.4-0.7-2c-0.2-0.7-0.3-1.3-0.6-1.9c-0.2-0.6-0.6-1.1-1-1.4l-0.2-0.2
			c-0.1-0.1-0.1-0.1-0.2-0.2c-0.2-0.2-0.3-0.5-0.3-0.8c0-0.5,0.2-0.9,0.4-1.3c0.2-0.3,0.5-0.6,0.9-0.9c0.2-0.1,0.4-0.2,0.6-0.2
			c0.2-0.1,0.4-0.1,0.5-0.1c0.7-0.2,1.3-0.3,1.7-0.6c0.4-0.3,0.6-0.8,0.9-1.5l0.1-0.1l0.1-0.1c0-0.1,0.1-0.1,0.1-0.2
			c0.1-0.2,0.2-0.3,0.3-0.5c0.2-0.3,0.5-0.6,0.8-0.8c0.6-0.4,1.4-0.7,2.1-0.8c0.4,0,0.8,0,1.2,0.1c0.2,0.1,0.3,0.1,0.5,0.2
			c0.2,0.1,0.4,0.2,0.5,0.3c1.3,0.8,2.2,2.3,2.2,3.9l-1,0c0-0.3,0.1-0.7,0.2-1c0.2-0.3,0.4-0.5,0.7-0.7c0.5-0.4,1.1-0.5,1.8-0.5
			c0.3,0,0.6,0.1,0.9,0.2c0.3,0.1,0.6,0.3,0.8,0.5c0.5,0.4,0.8,0.9,1,1.4c0.4,1.1,0.5,2.2,0.5,3.2c0,1,0,2.1,0.2,3
			c0.1,0.5,0.3,0.8,0.5,1.3c0.1,0.2,0.2,0.5,0.3,0.9c0.1,0.3,0,0.7-0.1,1c-0.1,0.3-0.2,0.5-0.5,0.8c-0.2,0.2-0.3,0.4-0.6,0.6
			c-0.5,0.4-1,0.7-1.5,0.9c-1.1,0.4-2.3,0.4-3.4,0.1c-0.6-0.2-1.1-0.5-1.5-0.9c-0.4-0.4-0.7-1-0.9-1.6l1-0.2
			c0.2,0.7,0.3,1.5,0.3,2.3c0,0.2,0,0.4-0.1,0.6c0,0.1,0,0.2-0.1,0.3c0,0.1-0.1,0.2-0.1,0.3c-0.2,0.4-0.4,0.7-0.7,1
			c-0.3,0.3-0.7,0.5-1.1,0.5c-0.2,0-0.4,0-0.6-0.1c-0.2-0.1-0.4-0.2-0.5-0.3c-0.3-0.3-0.4-0.7-0.4-1.1c0-0.4,0.2-0.8,0.5-0.9
			c-0.3,0.2-0.5,0.6-0.4,0.9c0,0.3,0.2,0.7,0.5,0.9c0.1,0.1,0.2,0.2,0.4,0.2c0.1,0,0.3,0,0.5,0c0.3-0.1,0.6-0.2,0.8-0.5
			c0.4-0.5,0.6-1.1,0.6-1.7c0-0.6-0.3-1.3-0.5-2l1-0.2c0.1,0.4,0.3,0.8,0.6,1.1c0.3,0.3,0.7,0.5,1.1,0.7c0.9,0.3,1.8,0.2,2.7-0.1
			c0.4-0.2,0.9-0.4,1.1-0.7c0.2-0.1,0.3-0.3,0.5-0.5c0.1-0.1,0.2-0.4,0.3-0.5c0.1-0.4,0.1-0.7-0.1-1.1c-0.2-0.4-0.5-1-0.6-1.5
			c-0.3-1.1-0.2-2.2-0.2-3.2c0-0.5,0-1-0.1-1.5c-0.1-0.5-0.2-0.9-0.4-1.4c-0.2-0.4-0.4-0.8-0.7-1.1c-0.4-0.3-0.7-0.4-1.1-0.4
			c-0.4,0-0.8,0.1-1.2,0.3c-0.3,0.2-0.5,0.5-0.5,0.9l-1,0c0.1-1.2-0.6-2.3-1.6-2.9c-0.5-0.3-1.1-0.4-1.7-0.4c-0.6,0-1.2,0.3-1.7,0.6
			c-0.2,0.2-0.5,0.4-0.6,0.6c-0.1,0.1-0.2,0.2-0.2,0.3c0,0.1-0.1,0.1-0.1,0.2l0,0.1l0,0.1c-0.2,0.5-0.4,1.4-1.2,1.9
			c-0.7,0.5-1.5,0.6-2.1,0.7c-0.7,0.1-1.1,0.3-1.4,0.8c-0.1,0.2-0.2,0.5-0.2,0.6c0,0.1,0,0.2,0.1,0.2c0,0,0.1,0.1,0.1,0.1l0,0
			c-0.1-0.1,0,0-0.1,0l0,0l0,0l0.1,0l0.1,0.1c0.7,0.5,1.1,1.2,1.4,1.8c0.3,0.7,0.4,1.4,0.6,2c0.2,0.7,0.4,1.3,0.6,1.8
			c0.1,0.3,0.2,0.6,0.4,0.8c0.1,0.1,0.2,0.2,0.3,0.3c0,0,0.1,0.1,0.1,0.1l0.2,0.1c0.5,0.3,1.1,0.2,1.7,0c0.6-0.3,1-0.7,1.5-1.3
			C74.8,80.9,75.2,80.4,75.5,79.8z"/>
	</g>
	<g>
		<path d="M98.8,63.3c-1.6-0.2-3.3-0.3-4.8,0.1c-0.8,0.2-1.4,0.6-1.9,1.2c-0.2,0.3-0.4,0.6-0.5,0.9c-0.1,0.3-0.2,0.7-0.1,1
			c0.1,0.7,0.3,1.4,0.7,2c0.2,0.3,0.4,0.6,0.7,0.8c0.3,0.2,0.6,0.4,0.9,0.6c1.3,0.6,3,0.5,4.4,0l0.8-0.3l-0.2,0.9
			c-0.3,1.3-0.5,2.6-0.4,3.9c0,0.3,0.1,0.6,0.2,0.9c0.1,0.4,0.2,0.5,0.4,0.8c0.3,0.5,0.8,0.9,1.3,1.1c0.3,0.1,0.5,0.2,0.8,0.2
			c0.3,0,0.6,0,0.8-0.1c0.4-0.1,0.5-0.2,0.7-0.4c0.2-0.2,0.4-0.4,0.5-0.7c0.5-1.1,0.6-2.5,0.5-3.8l0-0.7l0.7,0.2
			c0.9,0.2,1.9,0.4,2.8,0.4c0.9,0,1.8-0.3,2.5-0.8l0.1,0c0,0,0,0,0,0l0.1-0.1c0.1-0.1,0.1-0.2,0.2-0.2c0.1-0.1,0.2-0.3,0.3-0.5
			c0.1-0.4,0.2-0.8,0.2-1.2c0-0.4-0.2-0.8-0.4-1.1c-0.1-0.2-0.2-0.3-0.4-0.4c-0.1,0-0.2-0.1-0.2-0.1l-0.3-0.1l-1.2-0.3l1-0.6
			c1.2-0.7,2.2-1.9,2.7-3.3c0.1-0.3,0.2-0.7,0.2-1l0-0.3l0-0.1l0-0.1c0-0.2,0-0.4-0.1-0.5c-0.1-0.7-0.4-1.3-0.9-1.9
			c-0.4-0.5-1-1-1.6-1.2c-0.2,0-0.3-0.1-0.5-0.1c-0.1,0-0.2,0-0.2,0l-0.3,0c-0.3,0-0.6,0-1,0.2c-1.3,0.4-2.3,1.7-2.1,3l-0.8-0.3
			c0.4-0.3,0.6-0.8,0.5-1.4c-0.1-0.6-0.3-1.2-0.7-1.6c-0.1-0.1-0.2-0.2-0.3-0.3l-0.2-0.1l-0.2-0.1c-0.2-0.1-0.5-0.2-0.8-0.3
			c-0.6-0.2-1.3-0.2-1.9-0.2c-0.7,0-1.4,0-2,0.1c-0.3,0-0.6,0.1-0.9,0.2c-0.1,0.1-0.2,0.2-0.3,0.2l-0.2,0.2l-0.1,0.2
			c-0.3,0.5-0.4,1.2-0.5,1.9c-0.1,0.3-0.1,0.7-0.3,1.1c-0.1,0.2-0.2,0.3-0.4,0.4c-0.1,0-0.2,0.1-0.3,0.1l-0.3,0l0.2-0.2l1.3,2.9
			l-1.6-2.7l-0.2-0.3l0.3,0c0.3,0,0.5-0.1,0.7-0.4c0.1-0.3,0.2-0.6,0.2-0.9c0.1-0.7,0.1-1.4,0.4-2.1l0.1-0.3l0.1-0.2
			c0.2-0.2,0.3-0.3,0.5-0.4c0.4-0.2,0.8-0.3,1.1-0.4c0.7-0.1,1.4-0.2,2.1-0.2c0.7,0,1.5,0,2.2,0.2c0.4,0.1,0.7,0.2,1.1,0.4l0.2,0.1
			c0.1,0.1,0.2,0.1,0.3,0.2c0.2,0.1,0.3,0.3,0.5,0.4c0.6,0.6,0.9,1.3,1,2.2c0,0.4,0,0.8-0.2,1.2c-0.1,0.4-0.4,0.8-0.8,1.1l-0.7,0.5
			l-0.1-0.9c-0.1-0.9,0.2-1.8,0.7-2.6c0.5-0.7,1.3-1.2,2.1-1.5c0.4-0.1,0.9-0.2,1.3-0.2l0.3,0c0.2,0,0.2,0,0.4,0.1
			c0.2,0,0.4,0.1,0.6,0.2c0.8,0.3,1.5,0.9,2.1,1.5c0.5,0.7,0.9,1.5,1.1,2.3c0,0.2,0.1,0.5,0.1,0.6l0,0.1l0,0.2l0,0.3
			c0,0.4-0.1,0.8-0.2,1.3c-0.5,1.6-1.7,3-3.1,3.8l-0.2-0.9l0.5,0.1c0.1,0.1,0.3,0.1,0.4,0.2c0.3,0.2,0.5,0.4,0.7,0.6
			c0.4,0.5,0.5,1.1,0.6,1.6c0,0.6,0,1.1-0.2,1.7c-0.1,0.3-0.2,0.5-0.4,0.8c-0.1,0.1-0.2,0.3-0.3,0.3l-0.1,0.1l-0.1,0.1l-0.1,0.1
			c-0.9,0.7-2,1-3.1,1.1c-1.1,0-2.1-0.1-3.1-0.4l0.6-0.5c0.1,1.4,0.1,2.9-0.6,4.3c-0.2,0.3-0.4,0.7-0.7,1c-0.3,0.3-0.7,0.6-1,0.6
			c-0.4,0.2-0.8,0.2-1.2,0.2c-0.4,0-0.8-0.1-1.2-0.3c-0.7-0.3-1.3-0.9-1.7-1.5c-0.2-0.3-0.4-0.7-0.5-1c-0.1-0.4-0.2-0.7-0.3-1.1
			c-0.2-1.5,0.1-2.9,0.4-4.2l0.7,0.6c-1.6,0.6-3.5,0.7-5.1,0c-0.4-0.2-0.8-0.4-1.2-0.7c-0.4-0.3-0.7-0.6-0.9-1
			c-0.5-0.7-0.8-1.7-0.8-2.6c0-0.5,0.1-0.9,0.3-1.4c0.2-0.4,0.4-0.8,0.8-1.1c0.6-0.7,1.5-1,2.3-1.2C95.5,62.6,97.2,62.9,98.8,63.3z"
			/>
	</g>
	<g>
		<path d="M72,56.9c-0.2-1-0.4-2-0.6-3c-0.1-0.5-0.2-1-0.2-1.5c0-0.5-0.1-1-0.1-1.5l-0.4-6.1l0-0.4l0.4-0.1c1.5-0.5,3.1-0.4,4.5,0.2
			l-0.4,0c0.8-0.4,1.8-0.2,2.5,0.1c0.7,0.4,1.3,1.1,1.4,2c0,0.2,0,0.5-0.1,0.7c-0.1,0.3-0.1,0.3-0.2,0.6c-0.2,0.4-0.3,0.7-0.5,1
			c-0.4,0.6-0.9,1.1-1.3,1.7c-0.2,0.3-0.4,0.5-0.6,0.8c-0.2,0.2-0.4,0.6-0.5,0.8c-0.2,0.3-0.3,0.6-0.4,0.9c-0.1,0.3-0.2,0.6-0.3,1
			c-0.3,0.6-0.6,1.3-1.1,1.9c-0.2,0.3-0.6,0.5-0.9,0.7C72.7,56.6,72.4,56.8,72,56.9z M72,56.9c0.3-0.2,0.6-0.4,0.8-0.6
			c0.2-0.2,0.5-0.5,0.6-0.8c0.3-0.6,0.4-1.2,0.6-1.9c0.1-0.3,0.2-0.7,0.4-1c0.1-0.3,0.3-0.7,0.5-1c0.2-0.4,0.3-0.6,0.6-0.9
			c0.2-0.3,0.4-0.6,0.7-0.8c0.5-0.5,0.9-1,1.3-1.6c0.2-0.3,0.3-0.5,0.4-0.8c0-0.1,0.1-0.3,0.1-0.4c0-0.1,0-0.2,0-0.3
			c0-0.5-0.4-0.9-0.9-1.2c-0.5-0.3-1.1-0.3-1.5-0.1l-0.2,0.1l-0.2-0.1c-1.2-0.5-2.6-0.6-3.8-0.2l0.3-0.5l0.4,6.1
			c0,0.5,0.1,1,0.1,1.5c0.1,0.5,0,1,0,1.5C72.1,54.8,72.1,55.8,72,56.9z"/>
	</g>
	<g>
		<path d="M100.8,61.8c-0.5,0.7-0.9,1.5-1.3,2.2c-0.1,0.2-0.2,0.3-0.3,0.5c-0.1,0.2-0.2,0.4-0.3,0.5c-0.2,0.4-0.3,0.8-0.4,1.1
			l-0.5-0.6c0.4,0,0.6,0.1,0.9,0.1l0.8,0.2c0.5,0.1,1,0.3,1.4,0.3l0.4,0l0.1,0.4c0.4,1.2,0.5,2.5,0.3,3.8l-1-0.1v-3v-0.7v-0.1l0-0.2
			l0,0l0,0l0,0l0,0c0,0,0-0.1,0.1-0.1c0.1-0.1,0.2-0.2,0.3-0.2c0.1,0,0.1,0,0.1,0c0.1,0,0.2,0,0.2,0c0.2,0,0.3,0,0.5,0l0.7,0.2
			c0.1,0,0.2,0,0.3,0c0,0,0.1,0,0,0c0,0-0.3,0.1-0.3,0.4l0.5,0.5c-0.4-0.1-0.9-0.2-1.3-0.2c-0.4-0.1-0.9-0.2-1.3-0.3
			c0.4-0.1,0.9-0.2,1.3-0.3c0.4-0.1,0.9-0.2,1.3-0.2l0.5-0.1l0,0.6c0,0.4-0.4,0.6-0.5,0.6c-0.2,0-0.2,0-0.3,0c-0.2,0-0.3,0-0.4-0.1
			l-0.7-0.2c-0.1,0-0.2,0-0.3,0c0,0,0,0,0,0c0,0,0,0,0,0c0.1,0,0.1-0.1,0.2-0.2c0.1-0.3,0,0.2,0-0.2v0.1v0.7v3l-1-0.1
			c0.2-1.1,0.1-2.2-0.3-3.3l0.5,0.4c-0.7,0-1.2-0.2-1.7-0.3l-0.8-0.2c-0.2-0.1-0.5-0.1-0.7-0.1l-0.7,0l0.2-0.6
			c0.1-0.4,0.3-0.9,0.4-1.3c0.1-0.2,0.2-0.4,0.3-0.6c0.1-0.2,0.2-0.4,0.3-0.6C99.3,62.8,100,62.2,100.8,61.8z"/>
	</g>
	<g>
		<path d="M71.5,77.1c0.6-0.2,1.2-0.3,1.7-0.4c0.1,0,0.3-0.1,0.4-0.1c0.1,0,0.3,0,0.4,0l0.9,0l3.5,0l0,1c-1.6,0.1-3.2-0.9-3.9-2.4
			l0.7,0.2c-0.1,0.1-0.1,0.1-0.2,0.2c0,0.1,0,0.3,0,0.4c0.1,0.3,0.3,0.7,0.6,0.9c0.1,0.1,0.2,0.1,0.3,0.2c0.1,0.1,0.2,0.1,0.3,0.2
			c0.2,0.1,0.4,0.3,0.6,0.5c0.4,0.3,0.8,0.8,0.9,1.3c-0.4-0.4-0.8-0.5-1.2-0.6c-0.2-0.1-0.5-0.1-0.7-0.2c-0.1,0-0.2-0.1-0.3-0.2
			c-0.1-0.1-0.2-0.1-0.3-0.2c-0.5-0.4-0.9-0.8-1-1.4c-0.1-0.3-0.1-0.6,0-1c0-0.2,0.1-0.4,0.2-0.5c0.1-0.2,0.3-0.3,0.4-0.4l0.5-0.3
			l0.2,0.5c0.5,1.1,1.8,1.9,3,1.8l0,1l-3.5,0l-0.9,0c-0.1,0-0.3,0-0.4,0c-0.1,0-0.3-0.1-0.4-0.1C72.7,77.4,72.1,77.3,71.5,77.1z"/>
	</g>
	<g>
		<path d="M60.3,52.6c-1.2-1.3-2-3.1-2.1-4.9l0.1,0c0.1,0.6,0.4,1.2,0.8,1.6L59,49.4c-0.2-1.7-0.7-3.3-0.9-5l0.3,0
			c0,0.3,0.1,0.6,0.2,0.9c0.1,0.3,0.2,0.6,0.3,0.9c0.1,0.3,0.2,0.6,0.4,0.8c0.1,0.3,0.3,0.5,0.5,0.7l-0.3,0.1
			c0.2-1.7,0.1-3.4-0.2-5.1l0.5,0c-0.2,0.7,0.1,1.6,0.6,2.1L59.7,45c0-1.3-0.5-2.5-0.9-3.8c-0.4-1.3-0.9-2.6-0.9-4l0.5,0.1
			c0,0.1,0,0.3,0.1,0.5c0.1,0.2,0.2,0.3,0.3,0.5c0.2,0.3,0.5,0.7,0.7,1c0.5,0.6,1.1,1.2,1.8,1.7L60.9,41c0-0.5-0.1-1.1-0.2-1.6
			c-0.1-0.5-0.3-1.1-0.5-1.6c-0.4-1.1-0.9-2.1-1.4-3.2l0.5-0.2c0.3,0.7,0.7,1.4,1.1,2.1c0.4,0.7,0.8,1.4,1.1,2.2l-0.5,0l1.1-5
			l0.5,0.1l-0.5,2.9l-0.5,0c0.1-2.5-0.4-5.1-1.3-7.4l0.5-0.2l2.5,9.5l-0.5,0l1.6-7.3l0.5,0.1l-1.2,5.6l-0.4-0.2l3.5-4.5l0.8-1
			l-0.4,1.3c-0.7,2.6-2,5.1-3.6,7.3l-0.4-0.3c0.5-0.8,1.2-1.5,1.8-2.2c0.6-0.7,1.3-1.3,1.7-2.1l0.5-0.8l0,0.9c0,0.4,0,0.9-0.1,1.3
			c-0.1,0.4-0.2,0.8-0.3,1.2c-0.3,0.8-0.6,1.6-1.1,2.3c-0.9,1.5-1.9,2.8-3.1,4l-0.5,0.6l0.1-0.8c0-0.3,0.1-0.6,0.2-0.8
			c0.1-0.3,0.3-0.5,0.4-0.7c0.4-0.4,0.8-0.8,1.3-1.1c0.9-0.6,1.9-1.1,2.7-1.7l0.8-0.7l-0.4,0.9c-0.3,0.7-0.7,1.3-1.2,1.9
			c-0.5,0.6-1,1.1-1.5,1.6c-0.5,0.5-1,1-1.5,1.5c-0.5,0.5-0.9,1.1-1.3,1.7l-0.4-0.3c0.4-0.3,0.8-0.6,1.2-0.8
			c0.4-0.2,0.9-0.3,1.4-0.4c0.4-0.1,0.9-0.2,1.3-0.4c0.4-0.2,0.8-0.4,1.1-0.7l1-0.9l-0.6,1.2c-0.3,0.7-0.8,1.4-1.3,2
			c-0.5,0.6-1.1,1.1-1.7,1.6c-1.3,0.9-2.5,1.7-3.7,2.7l0-0.4c0.2,0.1,0.4,0.2,0.5,0.2c0.2,0,0.4,0.1,0.6,0c0.4,0,0.8-0.1,1.2-0.3
			c0.4-0.2,0.7-0.4,0.9-0.8c0.1-0.2,0.2-0.3,0.3-0.5c0.1-0.2,0.1-0.4,0.1-0.6l0.3,0.1c-0.6,2-1.7,3.9-3.1,5.5l-0.2-0.1l1.7-2.2
			l0.2-0.2l-0.1,0.3l-1.2,5.3l1.1-5.3l0.1,0.1l-1.6,2.3l-0.2-0.1c1.4-1.6,2.4-3.4,2.9-5.4l0.3,0.1c0,0.2-0.1,0.5-0.2,0.7
			c-0.1,0.2-0.2,0.4-0.3,0.6c-0.3,0.4-0.6,0.7-1,0.9c-0.4,0.2-0.9,0.4-1.3,0.4c-0.2,0-0.5,0-0.7,0c-0.2-0.1-0.5-0.1-0.7-0.2
			l-0.3-0.2l0.3-0.2c1.2-1,2.5-1.8,3.7-2.7c0.6-0.4,1.2-0.9,1.7-1.5c0.5-0.6,0.9-1.2,1.2-1.9l0.4,0.3c-0.4,0.3-0.8,0.6-1.2,0.8
			c-0.4,0.2-0.9,0.3-1.4,0.4c-0.4,0.1-0.9,0.2-1.3,0.4c-0.4,0.2-0.8,0.4-1.1,0.7l-1.2,1.1l0.8-1.4c0.4-0.6,0.8-1.2,1.3-1.8
			c0.5-0.5,1-1,1.5-1.5c0.5-0.5,1-1,1.5-1.5c0.4-0.5,0.8-1.1,1.1-1.8l0.4,0.3c-0.9,0.7-1.8,1.2-2.7,1.7c-0.4,0.3-0.8,0.6-1.1,1
			c-0.2,0.2-0.3,0.4-0.4,0.6c-0.1,0.2-0.1,0.5-0.2,0.7L62.3,44c1.1-1.2,2.2-2.5,3-3.9c0.4-0.7,0.8-1.5,1-2.2
			c0.1-0.4,0.2-0.8,0.3-1.2c0.1-0.4,0.1-0.8,0.1-1.2l0.5,0.1c-0.5,0.8-1.2,1.5-1.8,2.2c-0.6,0.7-1.3,1.3-1.7,2.1l-0.4-0.3
			c1.6-2.1,2.8-4.6,3.5-7.1l0.4,0.2l-3.5,4.5l-0.7,0.9l0.2-1.1l1.2-5.6l0.5,0.1l-1.6,7.3l-0.2,1l-0.3-1l-2.5-9.5l0.5-0.2
			c0.9,2.4,1.4,5,1.3,7.6l-0.5,0l0.5-2.9l0.5,0.1l-1.1,5l-0.2,0.8L61,39c-0.3-0.7-0.7-1.4-1.1-2.1c-0.4-0.7-0.8-1.4-1.1-2.2l0.5-0.2
			c0.5,1,1,2.1,1.4,3.2c0.2,0.5,0.4,1.1,0.5,1.7c0.1,0.6,0.2,1.2,0.2,1.8l0,0.4L61,41.3c-0.7-0.5-1.3-1.1-1.9-1.7
			c-0.3-0.3-0.5-0.7-0.8-1c-0.1-0.2-0.2-0.4-0.3-0.6c-0.1-0.2-0.1-0.5-0.1-0.8l0.5,0.1c0,1.3,0.5,2.5,0.9,3.8c0.4,1.3,0.9,2.6,0.9,4
			l0,0.6l-0.4-0.4c-0.7-0.7-1-1.6-0.8-2.6l0.3-1.1l0.2,1.1c0.4,1.7,0.4,3.5,0.1,5.3l-0.1,0.4L59.3,48c-0.2-0.3-0.4-0.6-0.5-0.9
			c-0.1-0.3-0.2-0.6-0.3-0.9c-0.1-0.3-0.2-0.6-0.3-0.9c-0.1-0.3-0.1-0.6-0.1-1l0.3,0c0.2,1.7,0.6,3.3,0.8,5l0,0.3L59,49.4
			c-0.5-0.5-0.8-1.1-0.9-1.8l0.1,0C58.4,49.4,59.1,51.2,60.3,52.6z"/>
	</g>
</g>
</svg>
